<svg width="75" height="92" viewBox="0 0 75 92" fill="none" xmlns="http://www.w3.org/2000/svg">
<path d="M12.356 76.976H13.924V81.134H18.572V76.976H20.126V87H18.572V82.618H13.924V87H12.356V76.976ZM23.0485 78.824C22.7592 78.824 22.5118 78.726 22.3065 78.53C22.1105 78.3247 22.0125 78.0773 22.0125 77.788C22.0125 77.4987 22.1105 77.256 22.3065 77.06C22.5118 76.8547 22.7592 76.752 23.0485 76.752C23.3378 76.752 23.5805 76.8547 23.7765 77.06C23.9818 77.256 24.0845 77.4987 24.0845 77.788C24.0845 78.0773 23.9818 78.3247 23.7765 78.53C23.5805 78.726 23.3378 78.824 23.0485 78.824ZM22.2785 79.86H23.8185V87H22.2785V79.86ZM29.5429 87.224C29.0389 87.224 28.5862 87.112 28.1849 86.888C27.7835 86.664 27.4802 86.3933 27.2749 86.076H27.2049V87H25.7349V76.976H27.2749V79.79L27.2049 80.798H27.2749C27.4802 80.4713 27.7835 80.196 28.1849 79.972C28.5862 79.748 29.0389 79.636 29.5429 79.636C30.1869 79.636 30.7702 79.7993 31.2929 80.126C31.8155 80.4527 32.2262 80.9053 32.5249 81.484C32.8329 82.0533 32.9869 82.702 32.9869 83.43C32.9869 84.158 32.8329 84.8113 32.5249 85.39C32.2262 85.9593 31.8155 86.4073 31.2929 86.734C30.7702 87.0607 30.1869 87.224 29.5429 87.224ZM29.3189 85.81C29.6922 85.81 30.0422 85.712 30.3689 85.516C30.6955 85.32 30.9569 85.04 31.1529 84.676C31.3489 84.312 31.4469 83.8967 31.4469 83.43C31.4469 82.9633 31.3489 82.5527 31.1529 82.198C30.9569 81.834 30.6955 81.554 30.3689 81.358C30.0422 81.162 29.6922 81.064 29.3189 81.064C28.9455 81.064 28.5955 81.162 28.2689 81.358C27.9515 81.554 27.6949 81.834 27.4989 82.198C27.3029 82.5527 27.2049 82.9633 27.2049 83.43C27.2049 83.8967 27.3029 84.312 27.4989 84.676C27.6949 85.04 27.9515 85.32 28.2689 85.516C28.5955 85.712 28.9455 85.81 29.3189 85.81ZM36.9248 87.224C36.0568 87.224 35.3941 86.9673 34.9368 86.454C34.4888 85.9313 34.2648 85.208 34.2648 84.284V79.86H35.8048V84.074C35.8048 84.6527 35.9401 85.0867 36.2108 85.376C36.4908 85.6653 36.8548 85.81 37.3028 85.81C37.6668 85.81 37.9888 85.7167 38.2688 85.53C38.5488 85.334 38.7635 85.0773 38.9128 84.76C39.0621 84.4427 39.1368 84.102 39.1368 83.738V79.86H40.6768V87H39.2208V86.076H39.1368C38.9408 86.412 38.6375 86.6873 38.2268 86.902C37.8161 87.1167 37.3821 87.224 36.9248 87.224ZM42.4692 79.86H43.9392V80.91H44.0092C44.1679 80.546 44.4432 80.2473 44.8352 80.014C45.2272 79.7713 45.6426 79.65 46.0812 79.65C46.4266 79.65 46.7159 79.6967 46.9492 79.79V81.386C46.5386 81.2367 46.1699 81.162 45.8432 81.162C45.4886 81.162 45.1712 81.2553 44.8912 81.442C44.6206 81.6287 44.4059 81.8807 44.2472 82.198C44.0886 82.506 44.0092 82.8467 44.0092 83.22V87H42.4692V79.86ZM50.1233 87.224C49.61 87.224 49.1526 87.126 48.7513 86.93C48.35 86.7247 48.0373 86.44 47.8133 86.076C47.5893 85.7027 47.4773 85.2827 47.4773 84.816C47.4773 84.0787 47.7526 83.4953 48.3033 83.066C48.8633 82.6367 49.568 82.422 50.4173 82.422C50.8373 82.422 51.2153 82.464 51.5513 82.548C51.8873 82.6227 52.1533 82.7067 52.3493 82.8V82.436C52.3493 81.9973 52.186 81.6427 51.8593 81.372C51.5326 81.092 51.1126 80.952 50.5993 80.952C50.2353 80.952 49.89 81.0313 49.5633 81.19C49.246 81.3487 48.9893 81.568 48.7933 81.848L47.7153 81.022C48.0326 80.5833 48.4433 80.2427 48.9473 80C49.4513 79.7573 50.0113 79.636 50.6273 79.636C51.6633 79.636 52.4613 79.8927 53.0213 80.406C53.5813 80.91 53.8613 81.624 53.8613 82.548V87H52.3493V86.146H52.2793C52.074 86.454 51.7846 86.7107 51.4113 86.916C51.038 87.1213 50.6086 87.224 50.1233 87.224ZM50.3893 85.95C50.7626 85.95 51.0986 85.8613 51.3973 85.684C51.696 85.5067 51.9293 85.2687 52.0973 84.97C52.2653 84.6713 52.3493 84.3493 52.3493 84.004C52.1346 83.8827 51.8826 83.7847 51.5933 83.71C51.3133 83.6353 51.0193 83.598 50.7113 83.598C50.1326 83.598 49.708 83.7147 49.4373 83.948C49.1666 84.172 49.0313 84.466 49.0313 84.83C49.0313 85.1567 49.1573 85.4273 49.4093 85.642C49.6613 85.8473 49.988 85.95 50.3893 85.95ZM55.5396 79.86H57.0096V80.798H57.0796C57.2849 80.462 57.5882 80.1867 57.9896 79.972C58.4002 79.748 58.8342 79.636 59.2916 79.636C60.1596 79.636 60.8176 79.8927 61.2656 80.406C61.7229 80.91 61.9516 81.6007 61.9516 82.478V87H60.4116V82.688C60.4116 82.128 60.2716 81.7173 59.9916 81.456C59.7209 81.1947 59.3429 81.064 58.8576 81.064C58.5122 81.064 58.2042 81.162 57.9336 81.358C57.6629 81.5447 57.4529 81.7967 57.3036 82.114C57.1542 82.4313 57.0796 82.772 57.0796 83.136V87H55.5396V79.86Z" fill="#1E272E"/>
<circle opacity="0.1" cx="37.5" cy="37.5" r="26.5" fill="#F7B731"/>
<path fill-rule="evenodd" clip-rule="evenodd" d="M23.6 26H52.4C53.2837 26 54 26.7163 54 27.6V45.2C54 46.0837 53.2837 46.8 52.4 46.8H23.6C22.7163 46.8 22 46.0837 22 45.2V27.6C22 26.7163 22.7163 26 23.6 26Z" fill="url(#paint0_linear_1_306)"/>
<path d="M41 36.0006C41 36.1999 40.817 36.3432 40.817 36.3432L35.6804 39.8784C35.306 40.1511 35 39.9491 35 39.4325V32.568C35 32.05 35.306 31.8494 35.681 32.1214L40.8176 35.6579C40.817 35.6579 41 35.8012 41 36.0006Z" fill="#F7B731"/>
<path d="M51.6 48.4H24.4C23.9582 48.4 23.6 48.7582 23.6 49.2C23.6 49.6418 23.9582 50 24.4 50H51.6C52.0418 50 52.4 49.6418 52.4 49.2C52.4 48.7582 52.0418 48.4 51.6 48.4Z" fill="#F7B731"/>
<defs>
<linearGradient id="paint0_linear_1_306" x1="22" y1="36.4" x2="54" y2="36.4" gradientUnits="userSpaceOnUse">
<stop stop-color="#E52D27"/>
<stop offset="1" stop-color="#B31217"/>
</linearGradient>
</defs>
</svg>
