<svg width="75" height="92" viewBox="0 0 75 92" fill="none" xmlns="http://www.w3.org/2000/svg">
<path d="M12.6099 76.976H14.1779V87H12.6099V76.976ZM16.2134 79.86H17.6834V80.798H17.7534C17.9587 80.462 18.262 80.1867 18.6634 79.972C19.074 79.748 19.508 79.636 19.9654 79.636C20.8334 79.636 21.4914 79.8927 21.9394 80.406C22.3967 80.91 22.6254 81.6007 22.6254 82.478V87H21.0854V82.688C21.0854 82.128 20.9454 81.7173 20.6654 81.456C20.3947 81.1947 20.0167 81.064 19.5314 81.064C19.186 81.064 18.878 81.162 18.6074 81.358C18.3367 81.5447 18.1267 81.7967 17.9774 82.114C17.828 82.4313 17.7534 82.772 17.7534 83.136V87H16.2134V79.86ZM26.9324 87.112C26.615 87.112 26.3164 87.0607 26.0364 86.958C25.7564 86.8553 25.5277 86.72 25.3504 86.552C24.949 86.1507 24.7484 85.6047 24.7484 84.914V81.218H23.5024V79.86H24.7484V77.844H26.2884V79.86H28.0244V81.218H26.2884V84.578C26.2884 84.9607 26.363 85.2313 26.5124 85.39C26.6524 85.5767 26.895 85.67 27.2404 85.67C27.399 85.67 27.539 85.6513 27.6604 85.614C27.7817 85.5673 27.9124 85.4973 28.0524 85.404V86.902C27.7444 87.042 27.371 87.112 26.9324 87.112ZM32.4773 87.224C31.7773 87.224 31.1473 87.0607 30.5873 86.734C30.0367 86.4073 29.6027 85.9593 29.2853 85.39C28.9773 84.8113 28.8233 84.1627 28.8233 83.444C28.8233 82.7627 28.9727 82.1327 29.2713 81.554C29.5793 80.966 30.004 80.4993 30.5453 80.154C31.0867 79.8087 31.7027 79.636 32.3933 79.636C33.112 79.636 33.7327 79.7947 34.2553 80.112C34.7873 80.4293 35.1887 80.8633 35.4593 81.414C35.7393 81.9647 35.8793 82.5853 35.8793 83.276C35.8793 83.4067 35.8653 83.57 35.8373 83.766H30.3633C30.4193 84.4287 30.6527 84.942 31.0633 85.306C31.4833 85.6607 31.9687 85.838 32.5193 85.838C32.958 85.838 33.336 85.74 33.6533 85.544C33.98 85.3387 34.2413 85.0633 34.4373 84.718L35.7393 85.334C35.4033 85.922 34.9647 86.384 34.4233 86.72C33.882 87.056 33.2333 87.224 32.4773 87.224ZM34.3113 82.59C34.2927 82.338 34.2133 82.0907 34.0733 81.848C33.9333 81.596 33.7187 81.386 33.4293 81.218C33.1493 81.05 32.804 80.966 32.3933 80.966C31.8987 80.966 31.4787 81.1153 31.1333 81.414C30.7973 81.7033 30.564 82.0953 30.4333 82.59H34.3113ZM37.2817 79.86H38.7517V80.91H38.8217C38.9804 80.546 39.2557 80.2473 39.6477 80.014C40.0397 79.7713 40.4551 79.65 40.8937 79.65C41.2391 79.65 41.5284 79.6967 41.7617 79.79V81.386C41.3511 81.2367 40.9824 81.162 40.6557 81.162C40.3011 81.162 39.9837 81.2553 39.7037 81.442C39.4331 81.6287 39.2184 81.8807 39.0597 82.198C38.9011 82.506 38.8217 82.8467 38.8217 83.22V87H37.2817V79.86ZM42.9419 79.86H44.4119V80.798H44.4819C44.6872 80.462 44.9906 80.1867 45.3919 79.972C45.8026 79.748 46.2366 79.636 46.6939 79.636C47.5619 79.636 48.2199 79.8927 48.6679 80.406C49.1252 80.91 49.3539 81.6007 49.3539 82.478V87H47.8139V82.688C47.8139 82.128 47.6739 81.7173 47.3939 81.456C47.1232 81.1947 46.7452 81.064 46.2599 81.064C45.9146 81.064 45.6066 81.162 45.3359 81.358C45.0652 81.5447 44.8552 81.7967 44.7059 82.114C44.5566 82.4313 44.4819 82.772 44.4819 83.136V87H42.9419V79.86ZM54.3523 87.224C53.6523 87.224 53.0223 87.0607 52.4623 86.734C51.9117 86.4073 51.4777 85.9593 51.1603 85.39C50.8523 84.8113 50.6983 84.1627 50.6983 83.444C50.6983 82.7627 50.8477 82.1327 51.1463 81.554C51.4543 80.966 51.879 80.4993 52.4203 80.154C52.9617 79.8087 53.5777 79.636 54.2683 79.636C54.987 79.636 55.6077 79.7947 56.1303 80.112C56.6623 80.4293 57.0637 80.8633 57.3343 81.414C57.6143 81.9647 57.7543 82.5853 57.7543 83.276C57.7543 83.4067 57.7403 83.57 57.7123 83.766H52.2383C52.2943 84.4287 52.5277 84.942 52.9383 85.306C53.3583 85.6607 53.8437 85.838 54.3943 85.838C54.833 85.838 55.211 85.74 55.5283 85.544C55.855 85.3387 56.1163 85.0633 56.3123 84.718L57.6143 85.334C57.2783 85.922 56.8397 86.384 56.2983 86.72C55.757 87.056 55.1083 87.224 54.3523 87.224ZM56.1863 82.59C56.1677 82.338 56.0883 82.0907 55.9483 81.848C55.8083 81.596 55.5937 81.386 55.3043 81.218C55.0243 81.05 54.679 80.966 54.2683 80.966C53.7737 80.966 53.3537 81.1153 53.0083 81.414C52.6723 81.7033 52.439 82.0953 52.3083 82.59H56.1863ZM61.8777 87.112C61.5603 87.112 61.2617 87.0607 60.9817 86.958C60.7017 86.8553 60.473 86.72 60.2957 86.552C59.8943 86.1507 59.6937 85.6047 59.6937 84.914V81.218H58.4477V79.86H59.6937V77.844H61.2337V79.86H62.9697V81.218H61.2337V84.578C61.2337 84.9607 61.3083 85.2313 61.4577 85.39C61.5977 85.5767 61.8403 85.67 62.1857 85.67C62.3443 85.67 62.4843 85.6513 62.6057 85.614C62.727 85.5673 62.8577 85.4973 62.9977 85.404V86.902C62.6897 87.042 62.3163 87.112 61.8777 87.112Z" fill="#1E272E"/>
<circle opacity="0.1" cx="37.5" cy="37.5" r="26.5" fill="#F7B731"/>
<path d="M42.5719 53.3292C47.1792 51.9614 50.9219 48.5743 52.7675 44.1937H45.7983C45.2305 47.8647 44.1464 51.1485 42.5719 53.3292Z" fill="url(#paint0_linear_1_262)"/>
<path d="M53.4515 33.8711H46.05C46.1855 35.226 46.2629 36.6131 46.2629 38.0002C46.2629 39.3873 46.1855 40.7744 46.05 42.1292H53.445C53.7999 40.8066 54 39.4324 54 38.0002C54 36.5679 53.7999 35.1937 53.4515 33.8711Z" fill="url(#paint1_linear_1_262)"/>
<path d="M52.761 31.8066C50.9155 27.426 47.1793 24.0389 42.5654 22.6711C44.1399 24.8518 45.224 28.1356 45.7919 31.8066H52.761Z" fill="url(#paint2_linear_1_262)"/>
<path d="M32.2924 44.1935C33.228 49.9548 35.4349 54 38.0032 54C40.5714 54 42.7783 49.9548 43.714 44.1935H32.2924Z" fill="url(#paint3_linear_1_262)"/>
<path d="M31.8085 38C31.8085 39.4323 31.8859 40.8065 32.0214 42.129H43.9787C44.1142 40.8065 44.1916 39.4323 44.1916 38C44.1916 36.5677 44.1142 35.1936 43.9787 33.871H32.0214C31.8859 35.1936 31.8085 36.5677 31.8085 38Z" fill="url(#paint4_linear_1_262)"/>
<path d="M43.7141 31.8065C42.7784 26.0452 40.5715 22 38.0033 22C35.435 22 33.2281 26.0452 32.2924 31.8065H43.7141Z" fill="url(#paint5_linear_1_262)"/>
<path d="M23.2454 44.1937C25.091 48.5743 28.8272 51.9614 33.441 53.3292C31.8665 51.1485 30.7824 47.8647 30.2146 44.1937H23.2454Z" fill="#F7B731"/>
<path d="M29.7435 38.0002C29.7435 36.6131 29.8209 35.226 29.9564 33.8711H22.555C22.2065 35.1937 22 36.5679 22 38.0002C22 39.4324 22.2065 40.8066 22.555 42.1292H29.95C29.8209 40.7744 29.7435 39.3873 29.7435 38.0002Z" fill="#F7B731"/>
<path d="M33.4346 22.6711C28.8272 24.0389 25.0845 27.426 23.2454 31.8066H30.2146C30.776 28.1356 31.8601 24.8518 33.4346 22.6711Z" fill="#F7B731"/>
<defs>
<linearGradient id="paint0_linear_1_262" x1="42.5719" y1="48.7614" x2="52.7675" y2="48.7614" gradientUnits="userSpaceOnUse">
<stop stop-color="#E52D27"/>
<stop offset="1" stop-color="#B31217"/>
</linearGradient>
<linearGradient id="paint1_linear_1_262" x1="46.05" y1="38.0002" x2="54" y2="38.0002" gradientUnits="userSpaceOnUse">
<stop stop-color="#E52D27"/>
<stop offset="1" stop-color="#B31217"/>
</linearGradient>
<linearGradient id="paint2_linear_1_262" x1="42.5654" y1="27.2389" x2="52.761" y2="27.2389" gradientUnits="userSpaceOnUse">
<stop stop-color="#E52D27"/>
<stop offset="1" stop-color="#B31217"/>
</linearGradient>
<linearGradient id="paint3_linear_1_262" x1="32.2924" y1="49.0968" x2="43.714" y2="49.0968" gradientUnits="userSpaceOnUse">
<stop stop-color="#E52D27"/>
<stop offset="1" stop-color="#B31217"/>
</linearGradient>
<linearGradient id="paint4_linear_1_262" x1="31.8085" y1="38" x2="44.1916" y2="38" gradientUnits="userSpaceOnUse">
<stop stop-color="#E52D27"/>
<stop offset="1" stop-color="#B31217"/>
</linearGradient>
<linearGradient id="paint5_linear_1_262" x1="32.2924" y1="26.9032" x2="43.7141" y2="26.9032" gradientUnits="userSpaceOnUse">
<stop stop-color="#E52D27"/>
<stop offset="1" stop-color="#B31217"/>
</linearGradient>
</defs>
</svg>
