<svg width="75" height="92" viewBox="0 0 75 92" fill="none" xmlns="http://www.w3.org/2000/svg">
<path d="M12.5884 76.976H16.1164C16.7138 76.976 17.2598 77.1067 17.7544 77.368C18.2491 77.6293 18.6364 77.9933 18.9164 78.46C19.2058 78.9267 19.3504 79.454 19.3504 80.042C19.3504 80.714 19.1311 81.3113 18.6924 81.834C18.2631 82.3567 17.7218 82.7067 17.0684 82.884L17.0544 82.954L19.7984 86.916V87H17.9784L15.3324 83.08H14.1564V87H12.5884V76.976ZM16.0744 81.624C16.5411 81.624 16.9378 81.4747 17.2644 81.176C17.5911 80.8773 17.7544 80.4947 17.7544 80.028C17.7544 79.7667 17.6891 79.5147 17.5584 79.272C17.4278 79.0293 17.2411 78.8333 16.9984 78.684C16.7558 78.5253 16.4664 78.446 16.1304 78.446H14.1564V81.624H16.0744ZM21.7907 78.824C21.5014 78.824 21.254 78.726 21.0487 78.53C20.8527 78.3247 20.7547 78.0773 20.7547 77.788C20.7547 77.4987 20.8527 77.256 21.0487 77.06C21.254 76.8547 21.5014 76.752 21.7907 76.752C22.08 76.752 22.3227 76.8547 22.5187 77.06C22.724 77.256 22.8267 77.4987 22.8267 77.788C22.8267 78.0773 22.724 78.3247 22.5187 78.53C22.3227 78.726 22.08 78.824 21.7907 78.824ZM21.0207 79.86H22.5607V87H21.0207V79.86ZM23.6791 79.86H25.3451L26.7871 84.97H26.8431L28.4531 79.86H30.0351L31.6311 84.97H31.6871L33.1291 79.86H34.7671L32.4851 87H30.8611L29.2231 81.876H29.1811L27.5571 87H25.9611L23.6791 79.86ZM37.8596 87.224C37.3463 87.224 36.889 87.126 36.4876 86.93C36.0863 86.7247 35.7736 86.44 35.5496 86.076C35.3256 85.7027 35.2136 85.2827 35.2136 84.816C35.2136 84.0787 35.489 83.4953 36.0396 83.066C36.5996 82.6367 37.3043 82.422 38.1536 82.422C38.5736 82.422 38.9516 82.464 39.2876 82.548C39.6236 82.6227 39.8896 82.7067 40.0856 82.8V82.436C40.0856 81.9973 39.9223 81.6427 39.5956 81.372C39.269 81.092 38.849 80.952 38.3356 80.952C37.9716 80.952 37.6263 81.0313 37.2996 81.19C36.9823 81.3487 36.7256 81.568 36.5296 81.848L35.4516 81.022C35.769 80.5833 36.1796 80.2427 36.6836 80C37.1876 79.7573 37.7476 79.636 38.3636 79.636C39.3996 79.636 40.1976 79.8927 40.7576 80.406C41.3176 80.91 41.5976 81.624 41.5976 82.548V87H40.0856V86.146H40.0156C39.8103 86.454 39.521 86.7107 39.1476 86.916C38.7743 87.1213 38.345 87.224 37.8596 87.224ZM38.1256 85.95C38.499 85.95 38.835 85.8613 39.1336 85.684C39.4323 85.5067 39.6656 85.2687 39.8336 84.97C40.0016 84.6713 40.0856 84.3493 40.0856 84.004C39.871 83.8827 39.619 83.7847 39.3296 83.71C39.0496 83.6353 38.7556 83.598 38.4476 83.598C37.869 83.598 37.4443 83.7147 37.1736 83.948C36.903 84.172 36.7676 84.466 36.7676 84.83C36.7676 85.1567 36.8936 85.4273 37.1456 85.642C37.3976 85.8473 37.7243 85.95 38.1256 85.95ZM45.3232 86.608L42.3552 79.86H44.0772L46.0932 84.718H46.1492L48.1092 79.86H49.8032L45.3932 90.024H43.7692L45.3232 86.608ZM52.6936 87.224C52.1803 87.224 51.723 87.126 51.3216 86.93C50.9203 86.7247 50.6076 86.44 50.3836 86.076C50.1596 85.7027 50.0476 85.2827 50.0476 84.816C50.0476 84.0787 50.323 83.4953 50.8736 83.066C51.4336 82.6367 52.1383 82.422 52.9876 82.422C53.4076 82.422 53.7856 82.464 54.1216 82.548C54.4576 82.6227 54.7236 82.7067 54.9196 82.8V82.436C54.9196 81.9973 54.7563 81.6427 54.4296 81.372C54.103 81.092 53.683 80.952 53.1696 80.952C52.8056 80.952 52.4603 81.0313 52.1336 81.19C51.8163 81.3487 51.5596 81.568 51.3636 81.848L50.2856 81.022C50.603 80.5833 51.0136 80.2427 51.5176 80C52.0216 79.7573 52.5816 79.636 53.1976 79.636C54.2336 79.636 55.0316 79.8927 55.5916 80.406C56.1516 80.91 56.4316 81.624 56.4316 82.548V87H54.9196V86.146H54.8496C54.6443 86.454 54.355 86.7107 53.9816 86.916C53.6083 87.1213 53.179 87.224 52.6936 87.224ZM52.9596 85.95C53.333 85.95 53.669 85.8613 53.9676 85.684C54.2663 85.5067 54.4996 85.2687 54.6676 84.97C54.8356 84.6713 54.9196 84.3493 54.9196 84.004C54.705 83.8827 54.453 83.7847 54.1636 83.71C53.8836 83.6353 53.5896 83.598 53.2816 83.598C52.703 83.598 52.2783 83.7147 52.0076 83.948C51.737 84.172 51.6016 84.466 51.6016 84.83C51.6016 85.1567 51.7276 85.4273 51.9796 85.642C52.2316 85.8473 52.5583 85.95 52.9596 85.95ZM60.8991 87.112C60.5818 87.112 60.2831 87.0607 60.0031 86.958C59.7231 86.8553 59.4945 86.72 59.3171 86.552C58.9158 86.1507 58.7151 85.6047 58.7151 84.914V81.218H57.4691V79.86H58.7151V77.844H60.2551V79.86H61.9911V81.218H60.2551V84.578C60.2551 84.9607 60.3298 85.2313 60.4791 85.39C60.6191 85.5767 60.8618 85.67 61.2071 85.67C61.3658 85.67 61.5058 85.6513 61.6271 85.614C61.7485 85.5673 61.8791 85.4973 62.0191 85.404V86.902C61.7111 87.042 61.3378 87.112 60.8991 87.112Z" fill="#1E272E"/>
<circle opacity="0.1" cx="37.5" cy="37.5" r="26.5" fill="#F7B731"/>
<path fill-rule="evenodd" clip-rule="evenodd" d="M26.3333 23H49.6667C50.9553 23 52 24.0447 52 25.3333V48.6667C52 49.9553 50.9553 51 49.6667 51H26.3333C25.0447 51 24 49.9553 24 48.6667V25.3333C24 24.0447 25.0447 23 26.3333 23Z" fill="#F7B731"/>
<path fill-rule="evenodd" clip-rule="evenodd" d="M26.3333 23H49.6667C50.9553 23 52 24.0447 52 25.3333V48.6667C52 49.9553 50.9553 51 49.6667 51H26.3333C25.0447 51 24 49.9553 24 48.6667V25.3333C24 24.0447 25.0447 23 26.3333 23ZM31.7778 26.1111C30.9187 26.1111 30.2222 26.8076 30.2222 27.6667C30.2222 28.5258 30.9187 29.2222 31.7778 29.2222H44.2222C45.0813 29.2222 45.7778 28.5258 45.7778 27.6667C45.7778 26.8076 45.0813 26.1111 44.2222 26.1111H31.7778Z" fill="url(#paint0_linear_344_10)"/>
<path d="M35.7223 36.046L36.5042 36.5936C36.5751 36.6432 36.628 36.7144 36.6551 36.7965C36.7244 37.0069 36.6101 37.2336 36.3997 37.3029L33.6833 38.1984C33.6463 38.2105 33.6077 38.2173 33.5688 38.2184C33.3474 38.2245 33.1629 38.05 33.1568 37.8286L33.0779 34.9758C33.0756 34.8898 33.1009 34.8052 33.1503 34.7347C33.2774 34.5533 33.5274 34.5092 33.7089 34.6362L34.3557 35.0891C35.5077 34.079 36.9984 33.5 38.5834 33.5C42.1272 33.5 45 36.3728 45 39.9167C45 43.4605 42.1272 46.3333 38.5834 46.3333C35.0395 46.3333 32.1667 43.4605 32.1667 39.9167H33.7709C33.7709 42.5745 35.9255 44.7292 38.5834 44.7292C41.2412 44.7292 43.3959 42.5745 43.3959 39.9167C43.3959 37.2588 41.2412 35.1042 38.5834 35.1042C37.5314 35.1042 36.5362 35.4433 35.7223 36.046Z" fill="#F7B731"/>
<defs>
<linearGradient id="paint0_linear_344_10" x1="24" y1="37" x2="52" y2="37" gradientUnits="userSpaceOnUse">
<stop stop-color="#E52D27"/>
<stop offset="1" stop-color="#B31217"/>
</linearGradient>
</defs>
</svg>
