<svg width="75" height="92" viewBox="0 0 75 92" fill="none" xmlns="http://www.w3.org/2000/svg">
<path d="M9.45757 76.976H12.9856C13.5829 76.976 14.1289 77.1067 14.6236 77.368C15.1182 77.6293 15.5056 77.9933 15.7856 78.46C16.0749 78.9267 16.2196 79.454 16.2196 80.042C16.2196 80.714 16.0002 81.3113 15.5616 81.834C15.1322 82.3567 14.5909 82.7067 13.9376 82.884L13.9236 82.954L16.6676 86.916V87H14.8476L12.2016 83.08H11.0256V87H9.45757V76.976ZM12.9436 81.624C13.4102 81.624 13.8069 81.4747 14.1336 81.176C14.4602 80.8773 14.6236 80.4947 14.6236 80.028C14.6236 79.7667 14.5582 79.5147 14.4276 79.272C14.2969 79.0293 14.1102 78.8333 13.8676 78.684C13.6249 78.5253 13.3356 78.446 12.9996 78.446H11.0256V81.624H12.9436ZM20.9871 87.224C20.2685 87.224 19.6245 87.0607 19.0551 86.734C18.4858 86.398 18.0425 85.9407 17.7251 85.362C17.4078 84.7833 17.2491 84.1393 17.2491 83.43C17.2491 82.7207 17.4078 82.0767 17.7251 81.498C18.0425 80.9193 18.4858 80.4667 19.0551 80.14C19.6245 79.804 20.2685 79.636 20.9871 79.636C21.7058 79.636 22.3498 79.804 22.9191 80.14C23.4885 80.476 23.9318 80.9333 24.2491 81.512C24.5665 82.0907 24.7251 82.73 24.7251 83.43C24.7251 84.1393 24.5665 84.7833 24.2491 85.362C23.9318 85.9407 23.4885 86.398 22.9191 86.734C22.3498 87.0607 21.7058 87.224 20.9871 87.224ZM20.9871 85.81C21.3791 85.81 21.7431 85.7167 22.0791 85.53C22.4151 85.334 22.6811 85.0587 22.8771 84.704C23.0825 84.34 23.1851 83.9153 23.1851 83.43C23.1851 82.9447 23.0825 82.5247 22.8771 82.17C22.6811 81.8153 22.4151 81.5447 22.0791 81.358C21.7431 81.162 21.3791 81.064 20.9871 81.064C20.5951 81.064 20.2311 81.162 19.8951 81.358C19.5591 81.5447 19.2885 81.8153 19.0831 82.17C18.8871 82.5247 18.7891 82.9447 18.7891 83.43C18.7891 83.9153 18.8871 84.34 19.0831 84.704C19.2885 85.0587 19.5591 85.334 19.8951 85.53C20.2311 85.7167 20.5951 85.81 20.9871 85.81ZM28.385 87.224C27.8717 87.224 27.4144 87.126 27.013 86.93C26.6117 86.7247 26.299 86.44 26.075 86.076C25.851 85.7027 25.739 85.2827 25.739 84.816C25.739 84.0787 26.0144 83.4953 26.565 83.066C27.125 82.6367 27.8297 82.422 28.679 82.422C29.099 82.422 29.477 82.464 29.813 82.548C30.149 82.6227 30.415 82.7067 30.611 82.8V82.436C30.611 81.9973 30.4477 81.6427 30.121 81.372C29.7944 81.092 29.3744 80.952 28.861 80.952C28.497 80.952 28.1517 81.0313 27.825 81.19C27.5077 81.3487 27.251 81.568 27.055 81.848L25.977 81.022C26.2944 80.5833 26.705 80.2427 27.209 80C27.713 79.7573 28.273 79.636 28.889 79.636C29.925 79.636 30.723 79.8927 31.283 80.406C31.843 80.91 32.123 81.624 32.123 82.548V87H30.611V86.146H30.541C30.3357 86.454 30.0464 86.7107 29.673 86.916C29.2997 87.1213 28.8704 87.224 28.385 87.224ZM28.651 85.95C29.0244 85.95 29.3604 85.8613 29.659 85.684C29.9577 85.5067 30.191 85.2687 30.359 84.97C30.527 84.6713 30.611 84.3493 30.611 84.004C30.3964 83.8827 30.1444 83.7847 29.855 83.71C29.575 83.6353 29.281 83.598 28.973 83.598C28.3944 83.598 27.9697 83.7147 27.699 83.948C27.4284 84.172 27.293 84.466 27.293 84.83C27.293 85.1567 27.419 85.4273 27.671 85.642C27.923 85.8473 28.2497 85.95 28.651 85.95ZM33.8013 79.86H35.2713V80.798H35.3413C35.5559 80.4527 35.8593 80.1727 36.2513 79.958C36.6433 79.7433 37.0633 79.636 37.5113 79.636C38.0246 79.636 38.4726 79.7573 38.8553 80C39.2379 80.2333 39.5133 80.546 39.6813 80.938C39.9239 80.546 40.2459 80.2333 40.6473 80C41.0579 79.7573 41.5386 79.636 42.0893 79.636C42.9106 79.636 43.5313 79.888 43.9513 80.392C44.3806 80.8867 44.5953 81.5633 44.5953 82.422V87H43.0553V82.688C43.0553 81.6053 42.5933 81.064 41.6693 81.064C41.1746 81.064 40.7686 81.2647 40.4513 81.666C40.1339 82.0673 39.9753 82.562 39.9753 83.15V87H38.4353V82.688C38.4353 81.6053 37.9593 81.064 37.0073 81.064C36.5219 81.064 36.1206 81.2647 35.8033 81.666C35.4953 82.0673 35.3413 82.562 35.3413 83.15V87H33.8013V79.86ZM47.2341 78.824C46.9447 78.824 46.6974 78.726 46.4921 78.53C46.2961 78.3247 46.1981 78.0773 46.1981 77.788C46.1981 77.4987 46.2961 77.256 46.4921 77.06C46.6974 76.8547 46.9447 76.752 47.2341 76.752C47.5234 76.752 47.7661 76.8547 47.9621 77.06C48.1674 77.256 48.2701 77.4987 48.2701 77.788C48.2701 78.0773 48.1674 78.3247 47.9621 78.53C47.7661 78.726 47.5234 78.824 47.2341 78.824ZM46.4641 79.86H48.0041V87H46.4641V79.86ZM49.9204 79.86H51.3904V80.798H51.4604C51.6657 80.462 51.9691 80.1867 52.3704 79.972C52.7811 79.748 53.2151 79.636 53.6724 79.636C54.5404 79.636 55.1984 79.8927 55.6464 80.406C56.1037 80.91 56.3324 81.6007 56.3324 82.478V87H54.7924V82.688C54.7924 82.128 54.6524 81.7173 54.3724 81.456C54.1017 81.1947 53.7237 81.064 53.2384 81.064C52.8931 81.064 52.5851 81.162 52.3144 81.358C52.0437 81.5447 51.8337 81.7967 51.6844 82.114C51.5351 82.4313 51.4604 82.772 51.4604 83.136V87H49.9204V79.86ZM61.2205 90.248C60.3432 90.248 59.6152 90.0473 59.0365 89.646C58.4672 89.2447 58.0845 88.7687 57.8885 88.218L59.3305 87.616C59.4798 87.9893 59.7178 88.288 60.0445 88.512C60.3805 88.7453 60.7725 88.862 61.2205 88.862C61.8738 88.862 62.3825 88.666 62.7465 88.274C63.1198 87.8913 63.3065 87.35 63.3065 86.65V85.992H63.2225C62.9892 86.328 62.6765 86.594 62.2845 86.79C61.9018 86.9767 61.4585 87.07 60.9545 87.07C60.3572 87.07 59.8018 86.916 59.2885 86.608C58.7752 86.3 58.3645 85.866 58.0565 85.306C57.7578 84.7367 57.6085 84.088 57.6085 83.36C57.6085 82.632 57.7578 81.988 58.0565 81.428C58.3645 80.8587 58.7752 80.42 59.2885 80.112C59.8018 79.7947 60.3572 79.636 60.9545 79.636C61.4492 79.636 61.8925 79.734 62.2845 79.93C62.6765 80.126 62.9892 80.392 63.2225 80.728H63.3065V79.86H64.7765V86.608C64.7765 87.3827 64.6272 88.0407 64.3285 88.582C64.0298 89.1327 63.6098 89.548 63.0685 89.828C62.5365 90.108 61.9205 90.248 61.2205 90.248ZM61.2345 85.67C61.6078 85.67 61.9532 85.5813 62.2705 85.404C62.5878 85.2173 62.8398 84.9513 63.0265 84.606C63.2132 84.2513 63.3065 83.836 63.3065 83.36C63.3065 82.632 63.1058 82.0673 62.7045 81.666C62.3125 81.2553 61.8225 81.05 61.2345 81.05C60.8518 81.05 60.5018 81.1433 60.1845 81.33C59.8672 81.5073 59.6152 81.7687 59.4285 82.114C59.2418 82.4593 59.1485 82.8747 59.1485 83.36C59.1485 83.8453 59.2418 84.2607 59.4285 84.606C59.6152 84.9513 59.8672 85.2173 60.1845 85.404C60.5018 85.5813 60.8518 85.67 61.2345 85.67Z" fill="#1E272E"/>
<circle opacity="0.1" cx="37.5" cy="37.5" r="26.5" fill="#F7B731"/>
<path d="M47.4067 27.396L43.6807 26.8559L29.3135 24.5168C28.4665 24.3799 27.5984 24.4421 26.7809 24.6983C25.9633 24.9545 25.22 25.3972 24.6122 25.99L22.1974 28.3462C22.1154 28.4264 22.056 28.5259 22.0248 28.6352C21.9936 28.7444 21.9918 28.8596 22.0195 28.9697C22.0471 29.0798 22.1034 29.1811 22.1827 29.2637C22.2621 29.3464 22.3619 29.4077 22.4726 29.4416L36.5902 33.7729L39.1607 34.5353" fill="#F7B731"/>
<path d="M40 34.3257L41.6148 38.7197L46.0497 52.538C46.0844 52.6461 46.1471 52.7437 46.2316 52.8213C46.3162 52.8989 46.4198 52.9539 46.5324 52.981C46.645 53.008 46.7629 53.0062 46.8746 52.9757C46.9863 52.9453 47.0881 52.8872 47.1701 52.807L49.5835 50.4475C50.1902 49.8534 50.6434 49.1265 50.9055 48.327C51.1677 47.5276 51.2313 46.6786 51.091 45.8504L48.6972 31.7967L48.0948 27.896L40.0007 34.3257H40Z" fill="#F7B731"/>
<path d="M22.9044 43.966L28.7187 46.4165C28.8815 46.4855 29.01 46.6144 29.0762 46.7753L31.4694 52.5785L34.1411 49.9341L33.6757 46.0097C33.6639 45.911 33.6751 45.811 33.7084 45.7171C33.7417 45.6232 33.7962 45.5379 33.868 45.4676L53.294 26.4791C53.6331 26.0888 53.8606 25.6177 53.9532 25.1136C54.0459 24.6096 54.0004 24.0905 53.8214 23.6092L53.7155 23.2234C53.6539 22.9976 53.5331 22.7914 53.3652 22.6251C53.1972 22.4588 52.9879 22.3382 52.7577 22.2751L52.3672 22.1702C51.8829 21.9967 51.3596 21.9548 50.8529 22.0493C50.3463 22.1437 49.8754 22.3708 49.4904 22.7064L30.0266 41.7067C29.9534 41.7782 29.8643 41.8323 29.7663 41.8648C29.6683 41.8973 29.564 41.9072 29.4614 41.894L25.5182 41.3822L22.9044 43.966Z" fill="url(#paint0_linear_1_291)"/>
<defs>
<linearGradient id="paint0_linear_1_291" x1="22.9044" y1="37.2893" x2="54" y2="37.2893" gradientUnits="userSpaceOnUse">
<stop stop-color="#E52D27"/>
<stop offset="1" stop-color="#B31217"/>
</linearGradient>
</defs>
</svg>
