<svg width="75" height="92" viewBox="0 0 75 92" fill="none" xmlns="http://www.w3.org/2000/svg">
<path d="M27.2657 87.224C26.4351 87.224 25.6884 86.9813 25.0257 86.496C24.3631 86.0107 23.9057 85.3293 23.6537 84.452L25.1377 83.85C25.2871 84.4007 25.5484 84.8533 25.9217 85.208C26.3044 85.5533 26.7617 85.726 27.2937 85.726C27.7884 85.726 28.2084 85.6 28.5537 85.348C28.8991 85.0867 29.0717 84.732 29.0717 84.284C29.0717 83.8733 28.9177 83.5373 28.6097 83.276C28.3111 83.0053 27.7837 82.7347 27.0277 82.464L26.3977 82.24C25.7257 82.0067 25.1611 81.6707 24.7037 81.232C24.2464 80.7933 24.0177 80.2147 24.0177 79.496C24.0177 79.0013 24.1531 78.544 24.4237 78.124C24.6944 77.704 25.0677 77.3727 25.5437 77.13C26.0291 76.878 26.5751 76.752 27.1817 76.752C28.0591 76.752 28.7591 76.9667 29.2817 77.396C29.8044 77.816 30.1544 78.292 30.3317 78.824L28.9177 79.426C28.8151 79.1087 28.6191 78.8287 28.3297 78.586C28.0404 78.3433 27.6671 78.222 27.2097 78.222C26.7524 78.222 26.3651 78.3387 26.0477 78.572C25.7397 78.8053 25.5857 79.104 25.5857 79.468C25.5857 79.8133 25.7257 80.098 26.0057 80.322C26.2857 80.546 26.7244 80.7607 27.3217 80.966L27.9517 81.176C28.8104 81.4747 29.4731 81.8667 29.9397 82.352C30.4157 82.828 30.6537 83.4673 30.6537 84.27C30.6537 84.9233 30.4857 85.474 30.1497 85.922C29.8137 86.3607 29.3844 86.6873 28.8617 86.902C28.3484 87.1167 27.8164 87.224 27.2657 87.224ZM32.4478 76.976H34.5758L37.4598 84.578H37.5438L40.4278 76.976H42.5558V87H41.0018V81.386L41.0858 79.58H41.0018L38.1318 87H36.8718L34.0018 79.58H33.9178L34.0018 81.386V87H32.4478V76.976ZM47.7462 87.224C46.9155 87.224 46.1689 86.9813 45.5062 86.496C44.8435 86.0107 44.3862 85.3293 44.1342 84.452L45.6182 83.85C45.7675 84.4007 46.0289 84.8533 46.4022 85.208C46.7849 85.5533 47.2422 85.726 47.7742 85.726C48.2689 85.726 48.6889 85.6 49.0342 85.348C49.3795 85.0867 49.5522 84.732 49.5522 84.284C49.5522 83.8733 49.3982 83.5373 49.0902 83.276C48.7915 83.0053 48.2642 82.7347 47.5082 82.464L46.8782 82.24C46.2062 82.0067 45.6415 81.6707 45.1842 81.232C44.7269 80.7933 44.4982 80.2147 44.4982 79.496C44.4982 79.0013 44.6335 78.544 44.9042 78.124C45.1749 77.704 45.5482 77.3727 46.0242 77.13C46.5095 76.878 47.0555 76.752 47.6622 76.752C48.5395 76.752 49.2395 76.9667 49.7622 77.396C50.2849 77.816 50.6349 78.292 50.8122 78.824L49.3982 79.426C49.2955 79.1087 49.0995 78.8287 48.8102 78.586C48.5209 78.3433 48.1475 78.222 47.6902 78.222C47.2329 78.222 46.8455 78.3387 46.5282 78.572C46.2202 78.8053 46.0662 79.104 46.0662 79.468C46.0662 79.8133 46.2062 80.098 46.4862 80.322C46.7662 80.546 47.2049 80.7607 47.8022 80.966L48.4322 81.176C49.2909 81.4747 49.9535 81.8667 50.4202 82.352C50.8962 82.828 51.1342 83.4673 51.1342 84.27C51.1342 84.9233 50.9662 85.474 50.6302 85.922C50.2942 86.3607 49.8649 86.6873 49.3422 86.902C48.8289 87.1167 48.2969 87.224 47.7462 87.224Z" fill="#1E272E"/>
<circle opacity="0.1" cx="37.5" cy="37.5" r="26.5" fill="#F7B731"/>
<path fill-rule="evenodd" clip-rule="evenodd" d="M25.2 42.6667L22 53L32.4 49.8205L25.2 42.6667Z" fill="#F7B731"/>
<path fill-rule="evenodd" clip-rule="evenodd" d="M38.8 52.2051C30.4052 52.2051 23.6 45.4435 23.6 37.1026C23.6 28.7616 30.4052 22 38.8 22C47.1947 22 54 28.7616 54 37.1026C54 45.4435 47.1947 52.2051 38.8 52.2051Z" fill="#F7B731"/>
<path fill-rule="evenodd" clip-rule="evenodd" d="M38.8 52.2051C30.4053 52.2051 23.6 45.4435 23.6 37.1026C23.6 28.7616 30.4053 22 38.8 22C47.1947 22 54 28.7616 54 37.1026C54 45.4435 47.1947 52.2051 38.8 52.2051ZM31.6 31.5385C30.7164 31.5385 30 32.2502 30 33.1282C30 34.0062 30.7164 34.7179 31.6 34.7179H46C46.8837 34.7179 47.6 34.0062 47.6 33.1282C47.6 32.2502 46.8837 31.5385 46 31.5385H31.6ZM31.6 37.8974C30.7164 37.8974 30 38.6092 30 39.4872C30 40.3652 30.7164 41.0769 31.6 41.0769H39.6C40.4837 41.0769 41.2 40.3652 41.2 39.4872C41.2 38.6092 40.4837 37.8974 39.6 37.8974H31.6Z" fill="url(#paint0_linear_1_283)"/>
<defs>
<linearGradient id="paint0_linear_1_283" x1="23.6" y1="37.1026" x2="54" y2="37.1026" gradientUnits="userSpaceOnUse">
<stop stop-color="#E52D27"/>
<stop offset="1" stop-color="#B31217"/>
</linearGradient>
</defs>
</svg>
