<svg width="75" height="92" viewBox="0 0 75 92" fill="none" xmlns="http://www.w3.org/2000/svg">
<path d="M18.5149 78.474H15.7149V76.976H22.8829V78.474H20.0829V87H18.5149V78.474ZM26.2898 87.224C25.5898 87.224 24.9598 87.0607 24.3998 86.734C23.8492 86.4073 23.4152 85.9593 23.0978 85.39C22.7898 84.8113 22.6358 84.1627 22.6358 83.444C22.6358 82.7627 22.7852 82.1327 23.0838 81.554C23.3918 80.966 23.8165 80.4993 24.3578 80.154C24.8992 79.8087 25.5152 79.636 26.2058 79.636C26.9245 79.636 27.5452 79.7947 28.0678 80.112C28.5998 80.4293 29.0012 80.8633 29.2718 81.414C29.5518 81.9647 29.6918 82.5853 29.6918 83.276C29.6918 83.4067 29.6778 83.57 29.6498 83.766H24.1758C24.2318 84.4287 24.4652 84.942 24.8758 85.306C25.2958 85.6607 25.7812 85.838 26.3318 85.838C26.7705 85.838 27.1485 85.74 27.4658 85.544C27.7925 85.3387 28.0538 85.0633 28.2498 84.718L29.5518 85.334C29.2158 85.922 28.7772 86.384 28.2358 86.72C27.6945 87.056 27.0458 87.224 26.2898 87.224ZM28.1238 82.59C28.1052 82.338 28.0258 82.0907 27.8858 81.848C27.7458 81.596 27.5312 81.386 27.2418 81.218C26.9618 81.05 26.6165 80.966 26.2058 80.966C25.7112 80.966 25.2912 81.1153 24.9458 81.414C24.6098 81.7033 24.3765 82.0953 24.2458 82.59H28.1238ZM31.0942 76.976H32.6342V87H31.0942V76.976ZM34.3879 79.86H35.8579V80.798H35.9279C36.1332 80.4713 36.4365 80.196 36.8379 79.972C37.2392 79.748 37.6919 79.636 38.1959 79.636C38.8399 79.636 39.4232 79.7993 39.9459 80.126C40.4685 80.4527 40.8792 80.9053 41.1779 81.484C41.4859 82.0533 41.6399 82.702 41.6399 83.43C41.6399 84.158 41.4859 84.8113 41.1779 85.39C40.8792 85.9593 40.4685 86.4073 39.9459 86.734C39.4232 87.0607 38.8399 87.224 38.1959 87.224C37.6919 87.224 37.2392 87.112 36.8379 86.888C36.4365 86.664 36.1332 86.3933 35.9279 86.076H35.8579L35.9279 87.07V90.024H34.3879V79.86ZM37.9719 85.81C38.3452 85.81 38.6952 85.712 39.0219 85.516C39.3485 85.32 39.6099 85.04 39.8059 84.676C40.0019 84.312 40.0999 83.8967 40.0999 83.43C40.0999 82.9633 40.0019 82.5527 39.8059 82.198C39.6099 81.834 39.3485 81.554 39.0219 81.358C38.6952 81.162 38.3452 81.064 37.9719 81.064C37.5985 81.064 37.2485 81.162 36.9219 81.358C36.6045 81.554 36.3479 81.834 36.1519 82.198C35.9559 82.5527 35.8579 82.9633 35.8579 83.43C35.8579 83.8967 35.9559 84.312 36.1519 84.676C36.3479 85.04 36.6045 85.32 36.9219 85.516C37.2485 85.712 37.5985 85.81 37.9719 85.81ZM46.3895 87.224C45.6708 87.224 45.0268 87.0607 44.4575 86.734C43.8881 86.398 43.4448 85.9407 43.1275 85.362C42.8101 84.7833 42.6515 84.1393 42.6515 83.43C42.6515 82.7207 42.8101 82.0767 43.1275 81.498C43.4448 80.9193 43.8881 80.4667 44.4575 80.14C45.0268 79.804 45.6708 79.636 46.3895 79.636C47.1081 79.636 47.7521 79.804 48.3215 80.14C48.8908 80.476 49.3341 80.9333 49.6515 81.512C49.9688 82.0907 50.1275 82.73 50.1275 83.43C50.1275 84.1393 49.9688 84.7833 49.6515 85.362C49.3341 85.9407 48.8908 86.398 48.3215 86.734C47.7521 87.0607 47.1081 87.224 46.3895 87.224ZM46.3895 85.81C46.7815 85.81 47.1455 85.7167 47.4815 85.53C47.8175 85.334 48.0835 85.0587 48.2795 84.704C48.4848 84.34 48.5875 83.9153 48.5875 83.43C48.5875 82.9447 48.4848 82.5247 48.2795 82.17C48.0835 81.8153 47.8175 81.5447 47.4815 81.358C47.1455 81.162 46.7815 81.064 46.3895 81.064C45.9975 81.064 45.6335 81.162 45.2975 81.358C44.9615 81.5447 44.6908 81.8153 44.4855 82.17C44.2895 82.5247 44.1915 82.9447 44.1915 83.43C44.1915 83.9153 44.2895 84.34 44.4855 84.704C44.6908 85.0587 44.9615 85.334 45.2975 85.53C45.6335 85.7167 45.9975 85.81 46.3895 85.81ZM51.4106 79.86H52.8806V80.798H52.9506C53.156 80.462 53.4593 80.1867 53.8606 79.972C54.2713 79.748 54.7053 79.636 55.1626 79.636C56.0306 79.636 56.6886 79.8927 57.1366 80.406C57.594 80.91 57.8226 81.6007 57.8226 82.478V87H56.2826V82.688C56.2826 82.128 56.1426 81.7173 55.8626 81.456C55.592 81.1947 55.214 81.064 54.7286 81.064C54.3833 81.064 54.0753 81.162 53.8046 81.358C53.534 81.5447 53.324 81.7967 53.1746 82.114C53.0253 82.4313 52.9506 82.772 52.9506 83.136V87H51.4106V79.86Z" fill="#1E272E"/>
<circle opacity="0.1" cx="37.5" cy="37.5" r="26.5" fill="#F7B731"/>
<path fill-rule="evenodd" clip-rule="evenodd" d="M40.3101 44.065L44.1153 40.2684C45.1663 39.2198 45.4268 37.6179 44.7622 36.2916L44.5466 35.8613C43.8819 34.535 44.1424 32.9331 45.1934 31.8845L49.9116 27.1771C50.2487 26.8407 50.7953 26.8407 51.1324 27.1771C51.198 27.2426 51.2526 27.3181 51.2941 27.4009L53.2001 31.2043C54.6582 34.1139 54.0867 37.628 51.7812 39.9282L41.4242 50.2616C38.9147 52.7655 35.2027 53.6397 31.8358 52.52L27.6672 51.1336C27.2149 50.9832 26.9704 50.4954 27.1212 50.0442C27.1636 49.9173 27.235 49.8021 27.3297 49.7075L31.9072 45.1405C32.9581 44.092 34.5637 43.832 35.893 44.4952L36.3242 44.7103C37.6536 45.3735 39.2591 45.1135 40.3101 44.065Z" fill="url(#paint0_linear_1_276)"/>
<path d="M42.1542 28.9463L41.8238 32.3756C39.271 32.1308 36.7358 33.0147 34.8878 34.8585C33.0458 36.6962 32.1595 39.2152 32.397 41.7544L28.9589 42.0745C28.627 38.525 29.8697 34.993 32.4462 32.4224C35.0311 29.8434 38.5858 28.604 42.1542 28.9463ZM42.7585 22.0821L42.439 25.5125C37.8617 25.0881 33.3178 26.6805 30.0045 29.9863C26.6958 33.2875 25.0994 37.8131 25.5188 42.3742L22.0802 42.6889C21.5681 37.1192 23.521 31.5829 27.5629 27.5502C31.6103 23.512 37.169 21.5639 42.7585 22.0821Z" fill="#F7B731"/>
<defs>
<linearGradient id="paint0_linear_1_276" x1="27.0767" y1="39.9624" x2="54" y2="39.9624" gradientUnits="userSpaceOnUse">
<stop stop-color="#E52D27"/>
<stop offset="1" stop-color="#B31217"/>
</linearGradient>
</defs>
</svg>
