<svg width="75" height="92" viewBox="0 0 75 92" fill="none" xmlns="http://www.w3.org/2000/svg">
<path d="M6.3948 78.474H3.5948V76.976H10.7628V78.474H7.9628V87H6.3948V78.474ZM14.1697 87.224C13.4697 87.224 12.8397 87.0607 12.2797 86.734C11.7291 86.4073 11.2951 85.9593 10.9777 85.39C10.6697 84.8113 10.5157 84.1627 10.5157 83.444C10.5157 82.7627 10.6651 82.1327 10.9637 81.554C11.2717 80.966 11.6964 80.4993 12.2377 80.154C12.7791 79.8087 13.3951 79.636 14.0857 79.636C14.8044 79.636 15.4251 79.7947 15.9477 80.112C16.4797 80.4293 16.8811 80.8633 17.1517 81.414C17.4317 81.9647 17.5717 82.5853 17.5717 83.276C17.5717 83.4067 17.5577 83.57 17.5297 83.766H12.0557C12.1117 84.4287 12.3451 84.942 12.7557 85.306C13.1757 85.6607 13.6611 85.838 14.2117 85.838C14.6504 85.838 15.0284 85.74 15.3457 85.544C15.6724 85.3387 15.9337 85.0633 16.1297 84.718L17.4317 85.334C17.0957 85.922 16.6571 86.384 16.1157 86.72C15.5744 87.056 14.9257 87.224 14.1697 87.224ZM16.0037 82.59C15.9851 82.338 15.9057 82.0907 15.7657 81.848C15.6257 81.596 15.4111 81.386 15.1217 81.218C14.8417 81.05 14.4964 80.966 14.0857 80.966C13.5911 80.966 13.1711 81.1153 12.8257 81.414C12.4897 81.7033 12.2564 82.0953 12.1257 82.59H16.0037ZM18.9741 79.86H20.4441V80.91H20.5141C20.6728 80.546 20.9481 80.2473 21.3401 80.014C21.7321 79.7713 22.1475 79.65 22.5861 79.65C22.9315 79.65 23.2208 79.6967 23.4541 79.79V81.386C23.0435 81.2367 22.6748 81.162 22.3481 81.162C21.9935 81.162 21.6761 81.2553 21.3961 81.442C21.1255 81.6287 20.9108 81.8807 20.7521 82.198C20.5935 82.506 20.5141 82.8467 20.5141 83.22V87H18.9741V79.86ZM26.9648 87.224C26.1435 87.224 25.4715 87.0467 24.9488 86.692C24.4262 86.328 24.0575 85.866 23.8428 85.306L25.2148 84.704C25.3828 85.0773 25.6162 85.362 25.9148 85.558C26.2228 85.754 26.5728 85.852 26.9648 85.852C27.3475 85.852 27.6695 85.7867 27.9308 85.656C28.1922 85.516 28.3228 85.3107 28.3228 85.04C28.3228 84.7787 28.2108 84.5733 27.9868 84.424C27.7628 84.2747 27.4175 84.144 26.9508 84.032L26.0968 83.822C25.5275 83.682 25.0562 83.4347 24.6828 83.08C24.3095 82.7253 24.1228 82.2773 24.1228 81.736C24.1228 81.316 24.2442 80.9473 24.4868 80.63C24.7388 80.3127 25.0748 80.07 25.4948 79.902C25.9148 79.7247 26.3722 79.636 26.8668 79.636C27.5295 79.636 28.1128 79.7713 28.6168 80.042C29.1208 80.3033 29.4848 80.686 29.7088 81.19L28.3648 81.778C28.0942 81.2273 27.5995 80.952 26.8808 80.952C26.5355 80.952 26.2462 81.022 26.0128 81.162C25.7795 81.302 25.6628 81.484 25.6628 81.708C25.6628 81.9227 25.7515 82.1 25.9288 82.24C26.1062 82.3707 26.3675 82.4827 26.7128 82.576L27.7628 82.842C28.4628 83.0193 28.9902 83.29 29.3448 83.654C29.7088 84.0087 29.8908 84.4473 29.8908 84.97C29.8908 85.418 29.7602 85.8147 29.4988 86.16C29.2468 86.496 28.8968 86.7573 28.4488 86.944C28.0008 87.1307 27.5062 87.224 26.9648 87.224ZM32.0378 78.824C31.7484 78.824 31.5011 78.726 31.2958 78.53C31.0998 78.3247 31.0018 78.0773 31.0018 77.788C31.0018 77.4987 31.0998 77.256 31.2958 77.06C31.5011 76.8547 31.7484 76.752 32.0378 76.752C32.3271 76.752 32.5698 76.8547 32.7658 77.06C32.9711 77.256 33.0738 77.4987 33.0738 77.788C33.0738 78.0773 32.9711 78.3247 32.7658 78.53C32.5698 78.726 32.3271 78.824 32.0378 78.824ZM31.2678 79.86H32.8078V87H31.2678V79.86ZM34.7241 79.86H36.1941V80.798H36.2641C36.4788 80.4527 36.7821 80.1727 37.1741 79.958C37.5661 79.7433 37.9861 79.636 38.4341 79.636C38.9475 79.636 39.3955 79.7573 39.7781 80C40.1608 80.2333 40.4361 80.546 40.6041 80.938C40.8468 80.546 41.1688 80.2333 41.5701 80C41.9808 79.7573 42.4615 79.636 43.0121 79.636C43.8335 79.636 44.4541 79.888 44.8741 80.392C45.3035 80.8867 45.5181 81.5633 45.5181 82.422V87H43.9781V82.688C43.9781 81.6053 43.5161 81.064 42.5921 81.064C42.0975 81.064 41.6915 81.2647 41.3741 81.666C41.0568 82.0673 40.8981 82.562 40.8981 83.15V87H39.3581V82.688C39.3581 81.6053 38.8821 81.064 37.9301 81.064C37.4448 81.064 37.0435 81.2647 36.7261 81.666C36.4181 82.0673 36.2641 82.562 36.2641 83.15V87H34.7241V79.86ZM47.2189 79.86H48.6889V80.798H48.7589C48.9642 80.4713 49.2676 80.196 49.6689 79.972C50.0702 79.748 50.5229 79.636 51.0269 79.636C51.6709 79.636 52.2542 79.7993 52.7769 80.126C53.2996 80.4527 53.7102 80.9053 54.0089 81.484C54.3169 82.0533 54.4709 82.702 54.4709 83.43C54.4709 84.158 54.3169 84.8113 54.0089 85.39C53.7102 85.9593 53.2996 86.4073 52.7769 86.734C52.2542 87.0607 51.6709 87.224 51.0269 87.224C50.5229 87.224 50.0702 87.112 49.6689 86.888C49.2676 86.664 48.9642 86.3933 48.7589 86.076H48.6889L48.7589 87.07V90.024H47.2189V79.86ZM50.8029 85.81C51.1762 85.81 51.5262 85.712 51.8529 85.516C52.1796 85.32 52.4409 85.04 52.6369 84.676C52.8329 84.312 52.9309 83.8967 52.9309 83.43C52.9309 82.9633 52.8329 82.5527 52.6369 82.198C52.4409 81.834 52.1796 81.554 51.8529 81.358C51.5262 81.162 51.1762 81.064 50.8029 81.064C50.4296 81.064 50.0796 81.162 49.7529 81.358C49.4356 81.554 49.1789 81.834 48.9829 82.198C48.7869 82.5527 48.6889 82.9633 48.6889 83.43C48.6889 83.8967 48.7869 84.312 48.9829 84.676C49.1789 85.04 49.4356 85.32 49.7529 85.516C50.0796 85.712 50.4296 85.81 50.8029 85.81ZM58.1145 87.224C57.6012 87.224 57.1438 87.126 56.7425 86.93C56.3412 86.7247 56.0285 86.44 55.8045 86.076C55.5805 85.7027 55.4685 85.2827 55.4685 84.816C55.4685 84.0787 55.7438 83.4953 56.2945 83.066C56.8545 82.6367 57.5592 82.422 58.4085 82.422C58.8285 82.422 59.2065 82.464 59.5425 82.548C59.8785 82.6227 60.1445 82.7067 60.3405 82.8V82.436C60.3405 81.9973 60.1772 81.6427 59.8505 81.372C59.5238 81.092 59.1038 80.952 58.5905 80.952C58.2265 80.952 57.8812 81.0313 57.5545 81.19C57.2372 81.3487 56.9805 81.568 56.7845 81.848L55.7065 81.022C56.0238 80.5833 56.4345 80.2427 56.9385 80C57.4425 79.7573 58.0025 79.636 58.6185 79.636C59.6545 79.636 60.4525 79.8927 61.0125 80.406C61.5725 80.91 61.8525 81.624 61.8525 82.548V87H60.3405V86.146H60.2705C60.0652 86.454 59.7758 86.7107 59.4025 86.916C59.0292 87.1213 58.5998 87.224 58.1145 87.224ZM58.3805 85.95C58.7538 85.95 59.0898 85.8613 59.3885 85.684C59.6872 85.5067 59.9205 85.2687 60.0885 84.97C60.2565 84.6713 60.3405 84.3493 60.3405 84.004C60.1258 83.8827 59.8738 83.7847 59.5845 83.71C59.3045 83.6353 59.0105 83.598 58.7025 83.598C58.1238 83.598 57.6992 83.7147 57.4285 83.948C57.1578 84.172 57.0225 84.466 57.0225 84.83C57.0225 85.1567 57.1485 85.4273 57.4005 85.642C57.6525 85.8473 57.9792 85.95 58.3805 85.95ZM63.5308 79.86H65.0008V80.798H65.0708C65.2761 80.462 65.5794 80.1867 65.9808 79.972C66.3914 79.748 66.8254 79.636 67.2828 79.636C68.1508 79.636 68.8088 79.8927 69.2568 80.406C69.7141 80.91 69.9428 81.6007 69.9428 82.478V87H68.4028V82.688C68.4028 82.128 68.2628 81.7173 67.9828 81.456C67.7121 81.1947 67.3341 81.064 66.8488 81.064C66.5034 81.064 66.1954 81.162 65.9248 81.358C65.6541 81.5447 65.4441 81.7967 65.2948 82.114C65.1454 82.4313 65.0708 82.772 65.0708 83.136V87H63.5308V79.86Z" fill="#1E272E"/>
<circle opacity="0.1" cx="37.5" cy="37.5" r="26.5" fill="#F7B731"/>
<path fill-rule="evenodd" clip-rule="evenodd" d="M27.3333 23H48.6667C49.6485 23 50.4444 23.7901 50.4444 24.7647V42.4118C50.4444 43.3865 49.6485 44.1765 48.6667 44.1765H27.3333C26.3515 44.1765 25.5555 43.3865 25.5555 42.4118V24.7647C25.5555 23.7901 26.3515 23 27.3333 23Z" fill="url(#paint0_linear_1_314)"/>
<path fill-rule="evenodd" clip-rule="evenodd" d="M48.6667 23H27.3333C26.3515 23 25.5555 23.7901 25.5555 24.7647V42.4118C25.5555 43.3865 26.3515 44.1765 27.3333 44.1765H48.6667C49.6485 44.1765 50.4444 43.3865 50.4444 42.4118V24.7647C50.4444 23.7901 49.6485 23 48.6667 23ZM40.6667 27H35.3333C34.597 27 34 27.608 34 28.3581V36.321C34 36.4908 34.0625 36.6546 34.1752 36.7798C34.424 37.0562 34.8457 37.0749 35.1171 36.8215L37.5495 34.5505C37.8044 34.3125 38.1956 34.3125 38.4505 34.5505L40.8829 36.8215C41.0058 36.9363 41.1665 37 41.3333 37C41.7015 37 42 36.696 42 36.321V28.3581C42 27.608 41.403 27 40.6667 27Z" fill="#F7B731"/>
<path fill-rule="evenodd" clip-rule="evenodd" d="M23.4093 31.0691L38 41.5294L52.5907 31.0691C52.9887 30.7838 53.5443 30.8728 53.8317 31.2678C53.9411 31.4182 54 31.5989 54 31.7844V49.4706C54 51.4198 52.4081 53 50.4444 53H25.5556C23.5919 53 22 51.4198 22 49.4706V31.7844C22 31.2971 22.398 30.9021 22.8889 30.9021C23.0757 30.9021 23.2578 30.9605 23.4093 31.0691Z" fill="url(#paint1_linear_1_314)"/>
<defs>
<linearGradient id="paint0_linear_1_314" x1="25.5555" y1="33.5883" x2="50.4444" y2="33.5883" gradientUnits="userSpaceOnUse">
<stop stop-color="#E52D27"/>
<stop offset="1" stop-color="#B31217"/>
</linearGradient>
<linearGradient id="paint1_linear_1_314" x1="22" y1="41.951" x2="54" y2="41.951" gradientUnits="userSpaceOnUse">
<stop stop-color="#E52D27"/>
<stop offset="1" stop-color="#B31217"/>
</linearGradient>
</defs>
</svg>
