<svg width="75" height="92" viewBox="0 0 75 92" fill="none" xmlns="http://www.w3.org/2000/svg">
<path d="M10.8274 87.224C10.0807 87.224 9.41805 87.056 8.83938 86.72C8.27005 86.384 7.82672 85.908 7.50938 85.292C7.19205 84.676 7.03338 83.962 7.03338 83.15V76.976H8.58738V83.234C8.58738 83.9713 8.77872 84.5733 9.16138 85.04C9.55338 85.4973 10.1087 85.726 10.8274 85.726C11.546 85.726 12.0967 85.4973 12.4794 85.04C12.862 84.5827 13.0534 83.9807 13.0534 83.234V76.976H14.6214V83.15C14.6214 83.9527 14.4674 84.662 14.1594 85.278C13.8514 85.894 13.4127 86.3747 12.8434 86.72C12.274 87.056 11.602 87.224 10.8274 87.224ZM16.479 79.86H17.949V80.798H18.019C18.2243 80.462 18.5277 80.1867 18.929 79.972C19.3397 79.748 19.7737 79.636 20.231 79.636C21.099 79.636 21.757 79.8927 22.205 80.406C22.6623 80.91 22.891 81.6007 22.891 82.478V87H21.351V82.688C21.351 82.128 21.211 81.7173 20.931 81.456C20.6603 81.1947 20.2823 81.064 19.797 81.064C19.4517 81.064 19.1437 81.162 18.873 81.358C18.6023 81.5447 18.3923 81.7967 18.243 82.114C18.0937 82.4313 18.019 82.772 18.019 83.136V87H16.479V79.86ZM27.7791 90.248C26.9018 90.248 26.1738 90.0473 25.5951 89.646C25.0258 89.2447 24.6431 88.7687 24.4471 88.218L25.8891 87.616C26.0384 87.9893 26.2764 88.288 26.6031 88.512C26.9391 88.7453 27.3311 88.862 27.7791 88.862C28.4324 88.862 28.9411 88.666 29.3051 88.274C29.6784 87.8913 29.8651 87.35 29.8651 86.65V85.992H29.7811C29.5478 86.328 29.2351 86.594 28.8431 86.79C28.4604 86.9767 28.0171 87.07 27.5131 87.07C26.9158 87.07 26.3604 86.916 25.8471 86.608C25.3338 86.3 24.9231 85.866 24.6151 85.306C24.3164 84.7367 24.1671 84.088 24.1671 83.36C24.1671 82.632 24.3164 81.988 24.6151 81.428C24.9231 80.8587 25.3338 80.42 25.8471 80.112C26.3604 79.7947 26.9158 79.636 27.5131 79.636C28.0078 79.636 28.4511 79.734 28.8431 79.93C29.2351 80.126 29.5478 80.392 29.7811 80.728H29.8651V79.86H31.3351V86.608C31.3351 87.3827 31.1858 88.0407 30.8871 88.582C30.5884 89.1327 30.1684 89.548 29.6271 89.828C29.0951 90.108 28.4791 90.248 27.7791 90.248ZM27.7931 85.67C28.1664 85.67 28.5118 85.5813 28.8291 85.404C29.1464 85.2173 29.3984 84.9513 29.5851 84.606C29.7718 84.2513 29.8651 83.836 29.8651 83.36C29.8651 82.632 29.6644 82.0673 29.2631 81.666C28.8711 81.2553 28.3811 81.05 27.7931 81.05C27.4104 81.05 27.0604 81.1433 26.7431 81.33C26.4258 81.5073 26.1738 81.7687 25.9871 82.114C25.8004 82.4593 25.7071 82.8747 25.7071 83.36C25.7071 83.8453 25.8004 84.2607 25.9871 84.606C26.1738 84.9513 26.4258 85.2173 26.7431 85.404C27.0604 85.5813 27.4104 85.67 27.7931 85.67ZM36.2967 90.248C35.4193 90.248 34.6913 90.0473 34.1127 89.646C33.5433 89.2447 33.1607 88.7687 32.9647 88.218L34.4067 87.616C34.556 87.9893 34.794 88.288 35.1207 88.512C35.4567 88.7453 35.8487 88.862 36.2967 88.862C36.95 88.862 37.4587 88.666 37.8227 88.274C38.196 87.8913 38.3827 87.35 38.3827 86.65V85.992H38.2987C38.0653 86.328 37.7527 86.594 37.3607 86.79C36.978 86.9767 36.5347 87.07 36.0307 87.07C35.4333 87.07 34.878 86.916 34.3647 86.608C33.8513 86.3 33.4407 85.866 33.1327 85.306C32.834 84.7367 32.6847 84.088 32.6847 83.36C32.6847 82.632 32.834 81.988 33.1327 81.428C33.4407 80.8587 33.8513 80.42 34.3647 80.112C34.878 79.7947 35.4333 79.636 36.0307 79.636C36.5253 79.636 36.9687 79.734 37.3607 79.93C37.7527 80.126 38.0653 80.392 38.2987 80.728H38.3827V79.86H39.8527V86.608C39.8527 87.3827 39.7033 88.0407 39.4047 88.582C39.106 89.1327 38.686 89.548 38.1447 89.828C37.6127 90.108 36.9967 90.248 36.2967 90.248ZM36.3107 85.67C36.684 85.67 37.0293 85.5813 37.3467 85.404C37.664 85.2173 37.916 84.9513 38.1027 84.606C38.2893 84.2513 38.3827 83.836 38.3827 83.36C38.3827 82.632 38.182 82.0673 37.7807 81.666C37.3887 81.2553 36.8987 81.05 36.3107 81.05C35.928 81.05 35.578 81.1433 35.2607 81.33C34.9433 81.5073 34.6913 81.7687 34.5047 82.114C34.318 82.4593 34.2247 82.8747 34.2247 83.36C34.2247 83.8453 34.318 84.2607 34.5047 84.606C34.6913 84.9513 34.9433 85.2173 35.2607 85.404C35.578 85.5813 35.928 85.67 36.3107 85.67ZM44.1982 87.224C43.3302 87.224 42.6676 86.9673 42.2102 86.454C41.7622 85.9313 41.5382 85.208 41.5382 84.284V79.86H43.0782V84.074C43.0782 84.6527 43.2136 85.0867 43.4842 85.376C43.7642 85.6653 44.1282 85.81 44.5762 85.81C44.9402 85.81 45.2622 85.7167 45.5422 85.53C45.8222 85.334 46.0369 85.0773 46.1862 84.76C46.3356 84.4427 46.4102 84.102 46.4102 83.738V79.86H47.9502V87H46.4942V86.076H46.4102C46.2142 86.412 45.9109 86.6873 45.5002 86.902C45.0896 87.1167 44.6556 87.224 44.1982 87.224ZM49.7427 76.976H51.2827V87H49.7427V76.976ZM55.2639 87.224C54.7506 87.224 54.2933 87.126 53.8919 86.93C53.4906 86.7247 53.1779 86.44 52.9539 86.076C52.7299 85.7027 52.6179 85.2827 52.6179 84.816C52.6179 84.0787 52.8933 83.4953 53.4439 83.066C54.0039 82.6367 54.7086 82.422 55.5579 82.422C55.9779 82.422 56.3559 82.464 56.6919 82.548C57.0279 82.6227 57.2939 82.7067 57.4899 82.8V82.436C57.4899 81.9973 57.3266 81.6427 56.9999 81.372C56.6733 81.092 56.2533 80.952 55.7399 80.952C55.3759 80.952 55.0306 81.0313 54.7039 81.19C54.3866 81.3487 54.1299 81.568 53.9339 81.848L52.8559 81.022C53.1733 80.5833 53.5839 80.2427 54.0879 80C54.5919 79.7573 55.1519 79.636 55.7679 79.636C56.8039 79.636 57.6019 79.8927 58.1619 80.406C58.7219 80.91 59.0019 81.624 59.0019 82.548V87H57.4899V86.146H57.4199C57.2146 86.454 56.9253 86.7107 56.5519 86.916C56.1786 87.1213 55.7493 87.224 55.2639 87.224ZM55.5299 85.95C55.9033 85.95 56.2393 85.8613 56.5379 85.684C56.8366 85.5067 57.0699 85.2687 57.2379 84.97C57.4059 84.6713 57.4899 84.3493 57.4899 84.004C57.2753 83.8827 57.0233 83.7847 56.7339 83.71C56.4539 83.6353 56.1599 83.598 55.8519 83.598C55.2733 83.598 54.8486 83.7147 54.5779 83.948C54.3073 84.172 54.1719 84.466 54.1719 84.83C54.1719 85.1567 54.2979 85.4273 54.5499 85.642C54.8019 85.8473 55.1286 85.95 55.5299 85.95ZM60.6802 79.86H62.1502V80.798H62.2202C62.4255 80.462 62.7288 80.1867 63.1302 79.972C63.5408 79.748 63.9748 79.636 64.4322 79.636C65.3002 79.636 65.9582 79.8927 66.4062 80.406C66.8635 80.91 67.0922 81.6007 67.0922 82.478V87H65.5522V82.688C65.5522 82.128 65.4122 81.7173 65.1322 81.456C64.8615 81.1947 64.4835 81.064 63.9982 81.064C63.6528 81.064 63.3448 81.162 63.0742 81.358C62.8035 81.5447 62.5935 81.7967 62.4442 82.114C62.2948 82.4313 62.2202 82.772 62.2202 83.136V87H60.6802V79.86Z" fill="#1E272E"/>
<circle opacity="0.1" cx="37.5" cy="37.5" r="26.5" fill="#F7B731"/>
<path fill-rule="evenodd" clip-rule="evenodd" d="M25 24.3112L36.9241 22.054C37.3047 21.982 37.6953 21.982 38.0759 22.054L50 24.3112V38.9547C50 43.5835 47.638 47.8859 43.75 50.3391L38.3281 53.7602C37.8215 54.0799 37.1785 54.0799 36.6719 53.7602L31.25 50.3391C27.362 47.8859 25 43.5835 25 38.9547V24.3112Z" fill="url(#paint0_linear_1_299)"/>
<path fill-rule="evenodd" clip-rule="evenodd" d="M36.4583 46.3744L43.75 35.9632H40.1042V29.0225L32.8125 39.4336H36.4583V46.3744Z" fill="#F7B731"/>
<defs>
<linearGradient id="paint0_linear_1_299" x1="25" y1="38" x2="50" y2="38" gradientUnits="userSpaceOnUse">
<stop stop-color="#E52D27"/>
<stop offset="1" stop-color="#B31217"/>
</linearGradient>
</defs>
</svg>
