<svg width="133" height="100" viewBox="0 0 133 100" fill="none" xmlns="http://www.w3.org/2000/svg">
<g filter="url(#filter0_d_1_241)">
<rect x="16" y="14" width="101" height="68" rx="4" fill="white"/>
</g>
<path d="M27.04 25.692H28.132V35H27.04V25.692ZM29.9928 28.37H31.0458V29.345H31.0978C31.2798 29.0157 31.5702 28.7383 31.9688 28.513C32.3675 28.279 32.7922 28.162 33.2428 28.162C34.0402 28.162 34.6468 28.396 35.0628 28.864C35.4875 29.3233 35.6998 29.9517 35.6998 30.749V35H34.5948V30.918C34.5948 30.3027 34.4475 29.8563 34.1528 29.579C33.8582 29.3017 33.4552 29.163 32.9438 29.163C32.5885 29.163 32.2678 29.2627 31.9818 29.462C31.7045 29.6613 31.4878 29.9257 31.3318 30.255C31.1758 30.5757 31.0978 30.9137 31.0978 31.269V35H29.9928V28.37ZM39.4979 35.104C39.2292 35.104 38.9779 35.0607 38.7439 34.974C38.5185 34.8873 38.3279 34.7703 38.1719 34.623C37.9985 34.4583 37.8685 34.2677 37.7819 34.051C37.6952 33.8343 37.6519 33.57 37.6519 33.258V29.371H36.4949V28.37H37.6519V26.498H38.7569V28.37H40.3689V29.371H38.7569V32.985C38.7569 33.349 38.8262 33.6177 38.9649 33.791C39.1295 33.9817 39.3679 34.077 39.6799 34.077C39.9312 34.077 40.1739 34.0033 40.4079 33.856V34.935C40.2779 34.9957 40.1435 35.039 40.0049 35.065C39.8749 35.091 39.7059 35.104 39.4979 35.104ZM44.3696 35.208C43.7369 35.208 43.1693 35.0563 42.6666 34.753C42.1639 34.4497 41.7696 34.0337 41.4836 33.505C41.2063 32.9677 41.0676 32.3653 41.0676 31.698C41.0676 31.0567 41.1976 30.4673 41.4576 29.93C41.7263 29.3927 42.1033 28.9637 42.5886 28.643C43.0739 28.3223 43.6373 28.162 44.2786 28.162C44.9286 28.162 45.4919 28.3093 45.9686 28.604C46.4453 28.89 46.8093 29.2887 47.0606 29.8C47.3206 30.3113 47.4506 30.8963 47.4506 31.555C47.4506 31.685 47.4376 31.7977 47.4116 31.893H42.1726C42.1986 32.3957 42.3199 32.8203 42.5366 33.167C42.7533 33.5137 43.0263 33.7737 43.3556 33.947C43.6936 34.1203 44.0446 34.207 44.4086 34.207C45.2579 34.207 45.9123 33.8083 46.3716 33.011L47.3076 33.466C47.0216 34.0033 46.6316 34.428 46.1376 34.74C45.6523 35.052 45.0629 35.208 44.3696 35.208ZM46.2806 30.983C46.2633 30.7057 46.1853 30.4283 46.0466 30.151C45.9079 29.8737 45.6869 29.6397 45.3836 29.449C45.0889 29.2583 44.7163 29.163 44.2656 29.163C43.7456 29.163 43.3036 29.332 42.9396 29.67C42.5843 29.9993 42.3503 30.437 42.2376 30.983H46.2806ZM48.7438 28.37H49.7968V29.436H49.8488C49.9788 29.072 50.2301 28.773 50.6028 28.539C50.9755 28.2963 51.3655 28.175 51.7728 28.175C52.0761 28.175 52.3361 28.2183 52.5528 28.305V29.501C52.2755 29.3623 51.9635 29.293 51.6168 29.293C51.2961 29.293 51.0015 29.384 50.7328 29.566C50.4641 29.748 50.2475 29.995 50.0828 30.307C49.9268 30.6103 49.8488 30.9397 49.8488 31.295V35H48.7438V28.37ZM53.6188 28.37H54.6718V29.345H54.7238C54.9058 29.0157 55.1961 28.7383 55.5948 28.513C55.9935 28.279 56.4181 28.162 56.8688 28.162C57.6661 28.162 58.2728 28.396 58.6888 28.864C59.1135 29.3233 59.3258 29.9517 59.3258 30.749V35H58.2208V30.918C58.2208 30.3027 58.0735 29.8563 57.7788 29.579C57.4841 29.3017 57.0811 29.163 56.5698 29.163C56.2145 29.163 55.8938 29.2627 55.6078 29.462C55.3305 29.6613 55.1138 29.9257 54.9578 30.255C54.8018 30.5757 54.7238 30.9137 54.7238 31.269V35H53.6188V28.37ZM63.8569 35.208C63.2242 35.208 62.6566 35.0563 62.1539 34.753C61.6512 34.4497 61.2569 34.0337 60.9709 33.505C60.6936 32.9677 60.5549 32.3653 60.5549 31.698C60.5549 31.0567 60.6849 30.4673 60.9449 29.93C61.2136 29.3927 61.5906 28.9637 62.0759 28.643C62.5612 28.3223 63.1246 28.162 63.7659 28.162C64.4159 28.162 64.9792 28.3093 65.4559 28.604C65.9326 28.89 66.2966 29.2887 66.5479 29.8C66.8079 30.3113 66.9379 30.8963 66.9379 31.555C66.9379 31.685 66.9249 31.7977 66.8989 31.893H61.6599C61.6859 32.3957 61.8072 32.8203 62.0239 33.167C62.2406 33.5137 62.5136 33.7737 62.8429 33.947C63.1809 34.1203 63.5319 34.207 63.8959 34.207C64.7452 34.207 65.3996 33.8083 65.8589 33.011L66.7949 33.466C66.5089 34.0033 66.1189 34.428 65.6249 34.74C65.1396 35.052 64.5502 35.208 63.8569 35.208ZM65.7679 30.983C65.7506 30.7057 65.6726 30.4283 65.5339 30.151C65.3952 29.8737 65.1742 29.6397 64.8709 29.449C64.5762 29.2583 64.2036 29.163 63.7529 29.163C63.2329 29.163 62.7909 29.332 62.4269 29.67C62.0716 29.9993 61.8376 30.437 61.7249 30.983H65.7679ZM70.5887 35.104C70.32 35.104 70.0687 35.0607 69.8347 34.974C69.6093 34.8873 69.4187 34.7703 69.2627 34.623C69.0893 34.4583 68.9593 34.2677 68.8727 34.051C68.786 33.8343 68.7427 33.57 68.7427 33.258V29.371H67.5857V28.37H68.7427V26.498H69.8477V28.37H71.4597V29.371H69.8477V32.985C69.8477 33.349 69.917 33.6177 70.0557 33.791C70.2203 33.9817 70.4587 34.077 70.7707 34.077C71.022 34.077 71.2647 34.0033 71.4987 33.856V34.935C71.3687 34.9957 71.2343 35.039 71.0957 35.065C70.9657 35.091 70.7967 35.104 70.5887 35.104Z" fill="#1E272E"/>
<path d="M31.16 53.688L28.688 55.488L27.104 53.064L31.928 49.584H34.304V66H31.16V53.688ZM37.8886 63.144C38.4166 62.616 39.4326 61.6 40.9366 60.096C42.4566 58.576 43.4326 57.584 43.8646 57.12C44.4406 56.496 44.8326 55.976 45.0406 55.56C45.2646 55.144 45.3766 54.672 45.3766 54.144C45.3766 53.584 45.1686 53.112 44.7526 52.728C44.3366 52.344 43.7846 52.152 43.0966 52.152C42.4246 52.152 41.8806 52.344 41.4646 52.728C41.0486 53.112 40.7526 53.592 40.5766 54.168L37.7446 52.992C37.9206 52.368 38.2406 51.768 38.7046 51.192C39.1846 50.6 39.8006 50.12 40.5526 49.752C41.3046 49.384 42.1686 49.2 43.1446 49.2C44.2326 49.2 45.1846 49.416 46.0006 49.848C46.8166 50.264 47.4486 50.84 47.8966 51.576C48.3446 52.296 48.5686 53.104 48.5686 54C48.5686 55.776 47.7046 57.512 45.9766 59.208C45.2726 59.896 43.9686 61.192 42.0646 63.096L42.1366 63.24H48.7846V66H37.8886V63.144ZM53.4086 66.144C52.8326 66.144 52.3366 65.944 51.9206 65.544C51.5206 65.128 51.3206 64.632 51.3206 64.056C51.3206 63.48 51.5206 62.992 51.9206 62.592C52.3366 62.192 52.8326 61.992 53.4086 61.992C53.9846 61.992 54.4726 62.192 54.8726 62.592C55.2886 62.992 55.4966 63.48 55.4966 64.056C55.4966 64.632 55.2886 65.128 54.8726 65.544C54.4726 65.944 53.9846 66.144 53.4086 66.144ZM61.0428 53.688L58.5708 55.488L56.9868 53.064L61.8108 49.584H64.1868V66H61.0428V53.688ZM70.3451 64.8L73.7291 60.048L73.5851 59.904C73.2171 60.064 72.8011 60.144 72.3371 60.144C71.5051 60.144 70.7051 59.92 69.9371 59.472C69.1851 59.008 68.5691 58.368 68.0891 57.552C67.6251 56.736 67.3931 55.824 67.3931 54.816C67.3931 53.76 67.6571 52.8 68.1851 51.936C68.7291 51.072 69.4411 50.4 70.3211 49.92C71.2171 49.44 72.1691 49.2 73.1771 49.2C74.3291 49.2 75.3531 49.464 76.2491 49.992C77.1451 50.504 77.8411 51.2 78.3371 52.08C78.8331 52.96 79.0811 53.912 79.0811 54.936C79.0811 55.96 78.8811 56.92 78.4811 57.816C78.0971 58.712 77.5211 59.704 76.7531 60.792L72.7931 66.48L70.3451 64.8ZM73.2491 57.528C73.9851 57.528 74.6251 57.272 75.1691 56.76C75.7291 56.232 76.0091 55.576 76.0091 54.792C76.0091 54.008 75.7291 53.36 75.1691 52.848C74.6251 52.336 73.9851 52.08 73.2491 52.08C72.4971 52.08 71.8411 52.336 71.2811 52.848C70.7371 53.36 70.4651 54.008 70.4651 54.792C70.4651 55.576 70.7371 56.232 71.2811 56.76C71.8411 57.272 72.4971 57.528 73.2491 57.528Z" fill="#EC2028"/>
<path d="M90.824 67.224C89.8813 67.224 89.0133 66.9953 88.22 66.538C87.4267 66.0807 86.7967 65.4507 86.33 64.648C85.8633 63.8453 85.63 62.9587 85.63 61.988C85.63 61.0173 85.8633 60.1307 86.33 59.328C86.7967 58.5253 87.4267 57.8953 88.22 57.438C89.0133 56.9807 89.8813 56.752 90.824 56.752C91.5613 56.752 92.252 56.8827 92.896 57.144C93.5493 57.4053 94.086 57.774 94.506 58.25L93.652 59.104C93.3347 58.712 92.9287 58.4133 92.434 58.208C91.9393 57.9933 91.4073 57.886 90.838 57.886C90.1287 57.886 89.466 58.0587 88.85 58.404C88.2433 58.74 87.7533 59.2207 87.38 59.846C87.016 60.462 86.834 61.176 86.834 61.988C86.834 62.8 87.016 63.5187 87.38 64.144C87.7533 64.76 88.248 65.2407 88.864 65.586C89.48 65.922 90.138 66.09 90.838 66.09C91.51 66.09 92.07 65.9873 92.518 65.782C92.9753 65.5673 93.3673 65.2873 93.694 64.942C93.9367 64.6807 94.1327 64.368 94.282 64.004C94.4313 63.6307 94.5247 63.22 94.562 62.772H90.852V61.666H95.668C95.7147 61.9273 95.738 62.17 95.738 62.394C95.738 63.01 95.64 63.612 95.444 64.2C95.248 64.7787 94.9353 65.2873 94.506 65.726C93.582 66.7247 92.3547 67.224 90.824 67.224ZM97.5087 56.976H101.107C101.611 56.976 102.082 57.0927 102.521 57.326C102.969 57.5593 103.323 57.8813 103.585 58.292C103.846 58.7027 103.977 59.1647 103.977 59.678C103.977 60.1633 103.851 60.588 103.599 60.952C103.356 61.316 103.025 61.596 102.605 61.792V61.848C103.109 62.016 103.519 62.3053 103.837 62.716C104.154 63.1267 104.313 63.6073 104.313 64.158C104.313 64.6993 104.173 65.1893 103.893 65.628C103.622 66.0573 103.253 66.3933 102.787 66.636C102.329 66.8787 101.835 67 101.303 67H97.5087V56.976ZM101.107 61.316C101.443 61.316 101.737 61.2367 101.989 61.078C102.25 60.9193 102.451 60.7187 102.591 60.476C102.731 60.224 102.801 59.9673 102.801 59.706C102.801 59.454 102.731 59.2067 102.591 58.964C102.46 58.712 102.269 58.5067 102.017 58.348C101.774 58.1893 101.489 58.11 101.163 58.11H98.6847V61.316H101.107ZM101.373 65.866C101.709 65.866 102.007 65.782 102.269 65.614C102.539 65.446 102.745 65.2313 102.885 64.97C103.034 64.6993 103.109 64.424 103.109 64.144C103.109 63.864 103.034 63.5933 102.885 63.332C102.735 63.0613 102.525 62.8467 102.255 62.688C101.984 62.52 101.671 62.436 101.317 62.436H98.6847V65.866H101.373Z" fill="#747D8C"/>
<defs>
<filter id="filter0_d_1_241" x="0" y="0" width="133" height="100" filterUnits="userSpaceOnUse" color-interpolation-filters="sRGB">
<feFlood flood-opacity="0" result="BackgroundImageFix"/>
<feColorMatrix in="SourceAlpha" type="matrix" values="0 0 0 0 0 0 0 0 0 0 0 0 0 0 0 0 0 0 127 0" result="hardAlpha"/>
<feOffset dy="2"/>
<feGaussianBlur stdDeviation="8"/>
<feColorMatrix type="matrix" values="0 0 0 0 0.0642361 0 0 0 0 0.145291 0 0 0 0 0.208333 0 0 0 0.08 0"/>
<feBlend mode="normal" in2="BackgroundImageFix" result="effect1_dropShadow_1_241"/>
<feBlend mode="normal" in="SourceGraphic" in2="effect1_dropShadow_1_241" result="shape"/>
</filter>
</defs>
</svg>
