<svg width="133" height="100" viewBox="0 0 133 100" fill="none" xmlns="http://www.w3.org/2000/svg">
<g filter="url(#filter0_d_1_253)">
<rect x="16" y="14" width="101" height="68" rx="4" fill="white"/>
</g>
<path d="M27.248 64.144C27.776 63.616 28.792 62.6 30.296 61.096C31.816 59.576 32.792 58.584 33.224 58.12C33.8 57.496 34.192 56.976 34.4 56.56C34.624 56.144 34.736 55.672 34.736 55.144C34.736 54.584 34.528 54.112 34.112 53.728C33.696 53.344 33.144 53.152 32.456 53.152C31.784 53.152 31.24 53.344 30.824 53.728C30.408 54.112 30.112 54.592 29.936 55.168L27.104 53.992C27.28 53.368 27.6 52.768 28.064 52.192C28.544 51.6 29.16 51.12 29.912 50.752C30.664 50.384 31.528 50.2 32.504 50.2C33.592 50.2 34.544 50.416 35.36 50.848C36.176 51.264 36.808 51.84 37.256 52.576C37.704 53.296 37.928 54.104 37.928 55C37.928 56.776 37.064 58.512 35.336 60.208C34.632 60.896 33.328 62.192 31.424 64.096L31.496 64.24H38.144V67H27.248V64.144ZM46.1759 67.384C44.7839 67.384 43.5519 67.016 42.4799 66.28C41.4239 65.544 40.6959 64.472 40.2959 63.064L43.2719 61.888C43.4639 62.672 43.8079 63.28 44.3039 63.712C44.7999 64.128 45.4239 64.336 46.1759 64.336C46.8639 64.336 47.4559 64.128 47.9519 63.712C48.4639 63.296 48.7199 62.768 48.7199 62.128C48.7199 61.44 48.4479 60.896 47.9039 60.496C47.3759 60.08 46.6559 59.872 45.7439 59.872H44.3279V57.016H45.6239C46.3279 57.016 46.9199 56.84 47.3999 56.488C47.8959 56.136 48.1439 55.624 48.1439 54.952C48.1439 54.408 47.9439 53.96 47.5439 53.608C47.1439 53.256 46.6319 53.08 46.0079 53.08C45.3519 53.08 44.8239 53.256 44.4239 53.608C44.0239 53.96 43.7439 54.4 43.5839 54.928L40.7279 53.752C41.0639 52.792 41.6799 51.96 42.5759 51.256C43.4879 50.552 44.6399 50.2 46.0319 50.2C47.0559 50.2 47.9679 50.392 48.7679 50.776C49.5839 51.16 50.2159 51.688 50.6639 52.36C51.1119 53.016 51.3359 53.76 51.3359 54.592C51.3359 55.472 51.1279 56.224 50.7119 56.848C50.3119 57.472 49.8239 57.928 49.2479 58.216V58.408C50.0479 58.728 50.6959 59.232 51.1919 59.92C51.6879 60.608 51.9359 61.44 51.9359 62.416C51.9359 63.36 51.6959 64.208 51.2159 64.96C50.7359 65.712 50.0559 66.304 49.1759 66.736C48.3119 67.168 47.3119 67.384 46.1759 67.384Z" fill="#EC2028"/>
<path d="M61.92 68.224C61.136 68.224 60.4173 67.986 59.764 67.51C59.1107 67.034 58.6627 66.3667 58.42 65.508L59.554 65.046C59.7127 65.6433 60.0067 66.1333 60.436 66.516C60.8653 66.8987 61.3693 67.09 61.948 67.09C62.5267 67.09 63.0167 66.936 63.418 66.628C63.8193 66.3107 64.02 65.8813 64.02 65.34C64.02 64.8733 63.8473 64.4907 63.502 64.192C63.166 63.884 62.6107 63.5993 61.836 63.338L61.206 63.114C60.4967 62.862 59.918 62.5307 59.47 62.12C59.022 61.7093 58.798 61.14 58.798 60.412C58.798 59.936 58.9287 59.4973 59.19 59.096C59.4513 58.6853 59.8153 58.3587 60.282 58.116C60.7487 57.8733 61.2713 57.752 61.85 57.752C62.4287 57.752 62.9327 57.8593 63.362 58.074C63.7913 58.2887 64.132 58.55 64.384 58.858C64.6453 59.166 64.8273 59.4693 64.93 59.768L63.81 60.244C63.7167 59.8987 63.502 59.586 63.166 59.306C62.8393 59.026 62.4053 58.886 61.864 58.886C61.3507 58.886 60.912 59.0307 60.548 59.32C60.184 59.6093 60.002 59.9733 60.002 60.412C60.002 60.804 60.156 61.126 60.464 61.378C60.772 61.6207 61.2387 61.8493 61.864 62.064L62.522 62.288C63.3713 62.596 64.034 62.9833 64.51 63.45C64.986 63.9073 65.224 64.5327 65.224 65.326C65.224 65.97 65.056 66.5113 64.72 66.95C64.3933 67.3887 63.978 67.7107 63.474 67.916C62.97 68.1213 62.452 68.224 61.92 68.224ZM66.9677 57.976H68.6897L71.8817 66.194H71.9377L75.1297 57.976H76.8517V68H75.6757V61.63L75.7317 59.726H75.6757L72.3997 68H71.4197L68.1437 59.726H68.0877L68.1437 61.63V68H66.9677V57.976ZM81.8946 68.224C81.1106 68.224 80.3919 67.986 79.7386 67.51C79.0853 67.034 78.6373 66.3667 78.3946 65.508L79.5286 65.046C79.6873 65.6433 79.9813 66.1333 80.4106 66.516C80.8399 66.8987 81.3439 67.09 81.9226 67.09C82.5013 67.09 82.9913 66.936 83.3926 66.628C83.7939 66.3107 83.9946 65.8813 83.9946 65.34C83.9946 64.8733 83.8219 64.4907 83.4766 64.192C83.1406 63.884 82.5853 63.5993 81.8106 63.338L81.1806 63.114C80.4713 62.862 79.8926 62.5307 79.4446 62.12C78.9966 61.7093 78.7726 61.14 78.7726 60.412C78.7726 59.936 78.9033 59.4973 79.1646 59.096C79.4259 58.6853 79.7899 58.3587 80.2566 58.116C80.7233 57.8733 81.2459 57.752 81.8246 57.752C82.4033 57.752 82.9073 57.8593 83.3366 58.074C83.7659 58.2887 84.1066 58.55 84.3586 58.858C84.6199 59.166 84.8019 59.4693 84.9046 59.768L83.7846 60.244C83.6913 59.8987 83.4766 59.586 83.1406 59.306C82.8139 59.026 82.3799 58.886 81.8386 58.886C81.3253 58.886 80.8866 59.0307 80.5226 59.32C80.1586 59.6093 79.9766 59.9733 79.9766 60.412C79.9766 60.804 80.1306 61.126 80.4386 61.378C80.7466 61.6207 81.2133 61.8493 81.8386 62.064L82.4966 62.288C83.3459 62.596 84.0086 62.9833 84.4846 63.45C84.9606 63.9073 85.1986 64.5327 85.1986 65.326C85.1986 65.97 85.0306 66.5113 84.6946 66.95C84.3679 67.3887 83.9526 67.7107 83.4486 67.916C82.9446 68.1213 82.4266 68.224 81.8946 68.224Z" fill="#747D8C"/>
<path d="M29.92 36.224C29.136 36.224 28.4173 35.986 27.764 35.51C27.1107 35.034 26.6627 34.3667 26.42 33.508L27.554 33.046C27.7127 33.6433 28.0067 34.1333 28.436 34.516C28.8653 34.8987 29.3693 35.09 29.948 35.09C30.5267 35.09 31.0167 34.936 31.418 34.628C31.8193 34.3107 32.02 33.8813 32.02 33.34C32.02 32.8733 31.8473 32.4907 31.502 32.192C31.166 31.884 30.6107 31.5993 29.836 31.338L29.206 31.114C28.4967 30.862 27.918 30.5307 27.47 30.12C27.022 29.7093 26.798 29.14 26.798 28.412C26.798 27.936 26.9287 27.4973 27.19 27.096C27.4513 26.6853 27.8153 26.3587 28.282 26.116C28.7487 25.8733 29.2713 25.752 29.85 25.752C30.4287 25.752 30.9327 25.8593 31.362 26.074C31.7913 26.2887 32.132 26.55 32.384 26.858C32.6453 27.166 32.8273 27.4693 32.93 27.768L31.81 28.244C31.7167 27.8987 31.502 27.586 31.166 27.306C30.8393 27.026 30.4053 26.886 29.864 26.886C29.3507 26.886 28.912 27.0307 28.548 27.32C28.184 27.6093 28.002 27.9733 28.002 28.412C28.002 28.804 28.156 29.126 28.464 29.378C28.772 29.6207 29.2387 29.8493 29.864 30.064L30.522 30.288C31.3713 30.596 32.034 30.9833 32.51 31.45C32.986 31.9073 33.224 32.5327 33.224 33.326C33.224 33.97 33.056 34.5113 32.72 34.95C32.3933 35.3887 31.978 35.7107 31.474 35.916C30.97 36.1213 30.452 36.224 29.92 36.224ZM34.9677 25.976H36.6897L39.8817 34.194H39.9377L43.1297 25.976H44.8517V36H43.6757V29.63L43.7317 27.726H43.6757L40.3997 36H39.4197L36.1437 27.726H36.0877L36.1437 29.63V36H34.9677V25.976ZM49.8946 36.224C49.1106 36.224 48.3919 35.986 47.7386 35.51C47.0853 35.034 46.6373 34.3667 46.3946 33.508L47.5286 33.046C47.6873 33.6433 47.9813 34.1333 48.4106 34.516C48.8399 34.8987 49.3439 35.09 49.9226 35.09C50.5013 35.09 50.9913 34.936 51.3926 34.628C51.7939 34.3107 51.9946 33.8813 51.9946 33.34C51.9946 32.8733 51.8219 32.4907 51.4766 32.192C51.1406 31.884 50.5853 31.5993 49.8106 31.338L49.1806 31.114C48.4713 30.862 47.8926 30.5307 47.4446 30.12C46.9966 29.7093 46.7726 29.14 46.7726 28.412C46.7726 27.936 46.9033 27.4973 47.1646 27.096C47.4259 26.6853 47.7899 26.3587 48.2566 26.116C48.7233 25.8733 49.2459 25.752 49.8246 25.752C50.4033 25.752 50.9073 25.8593 51.3366 26.074C51.7659 26.2887 52.1066 26.55 52.3586 26.858C52.6199 27.166 52.8019 27.4693 52.9046 27.768L51.7846 28.244C51.6913 27.8987 51.4766 27.586 51.1406 27.306C50.8139 27.026 50.3799 26.886 49.8386 26.886C49.3253 26.886 48.8866 27.0307 48.5226 27.32C48.1586 27.6093 47.9766 27.9733 47.9766 28.412C47.9766 28.804 48.1306 29.126 48.4386 29.378C48.7466 29.6207 49.2133 29.8493 49.8386 30.064L50.4966 30.288C51.3459 30.596 52.0086 30.9833 52.4846 31.45C52.9606 31.9073 53.1986 32.5327 53.1986 33.326C53.1986 33.97 53.0306 34.5113 52.6946 34.95C52.3679 35.3887 51.9526 35.7107 51.4486 35.916C50.9446 36.1213 50.4266 36.224 49.8946 36.224Z" fill="#1E272E"/>
<defs>
<filter id="filter0_d_1_253" x="0" y="0" width="133" height="100" filterUnits="userSpaceOnUse" color-interpolation-filters="sRGB">
<feFlood flood-opacity="0" result="BackgroundImageFix"/>
<feColorMatrix in="SourceAlpha" type="matrix" values="0 0 0 0 0 0 0 0 0 0 0 0 0 0 0 0 0 0 127 0" result="hardAlpha"/>
<feOffset dy="2"/>
<feGaussianBlur stdDeviation="8"/>
<feColorMatrix type="matrix" values="0 0 0 0 0.0642361 0 0 0 0 0.145291 0 0 0 0 0.208333 0 0 0 0.08 0"/>
<feBlend mode="normal" in2="BackgroundImageFix" result="effect1_dropShadow_1_253"/>
<feBlend mode="normal" in="SourceGraphic" in2="effect1_dropShadow_1_253" result="shape"/>
</filter>
</defs>
</svg>
