<svg width="133" height="100" viewBox="0 0 133 100" fill="none" xmlns="http://www.w3.org/2000/svg">
<g filter="url(#filter0_d_1_247)">
<rect x="16" y="14" width="101" height="68" rx="4" fill="white"/>
</g>
<path d="M34.088 67.384C32.712 67.384 31.504 67.016 30.464 66.28C29.424 65.528 28.616 64.504 28.04 63.208C27.48 61.896 27.2 60.424 27.2 58.792C27.2 57.16 27.48 55.696 28.04 54.4C28.616 53.088 29.424 52.064 30.464 51.328C31.504 50.576 32.712 50.2 34.088 50.2C35.464 50.2 36.672 50.576 37.712 51.328C38.752 52.064 39.552 53.088 40.112 54.4C40.688 55.696 40.976 57.16 40.976 58.792C40.976 60.424 40.688 61.896 40.112 63.208C39.552 64.504 38.752 65.528 37.712 66.28C36.672 67.016 35.464 67.384 34.088 67.384ZM34.088 64.432C34.856 64.432 35.52 64.192 36.08 63.712C36.656 63.216 37.088 62.544 37.376 61.696C37.68 60.832 37.832 59.864 37.832 58.792C37.832 57.128 37.496 55.776 36.824 54.736C36.152 53.68 35.24 53.152 34.088 53.152C32.952 53.152 32.048 53.68 31.376 54.736C30.704 55.792 30.368 57.144 30.368 58.792C30.368 59.864 30.512 60.832 30.8 61.696C31.104 62.544 31.536 63.216 32.096 63.712C32.672 64.192 33.336 64.432 34.088 64.432Z" fill="#EC2028"/>
<path d="M48.12 57.976H49.842L53.034 66.194H53.09L56.282 57.976H58.004V68H56.828V61.63L56.884 59.726H56.828L53.552 68H52.572L49.296 59.726H49.24L49.296 61.63V68H48.12V57.976ZM60.709 59.544C60.4756 59.544 60.275 59.46 60.107 59.292C59.939 59.124 59.855 58.9233 59.855 58.69C59.855 58.4567 59.939 58.2607 60.107 58.102C60.275 57.934 60.4756 57.85 60.709 57.85C60.9423 57.85 61.143 57.934 61.311 58.102C61.479 58.2607 61.563 58.4567 61.563 58.69C61.563 58.9233 61.479 59.124 61.311 59.292C61.1523 59.46 60.9516 59.544 60.709 59.544ZM60.121 60.86H61.297V68H60.121V60.86ZM63.1672 60.86H64.3012V61.91H64.3572C64.5532 61.5553 64.8658 61.2567 65.2952 61.014C65.7245 60.762 66.1818 60.636 66.6672 60.636C67.5258 60.636 68.1792 60.888 68.6272 61.392C69.0845 61.8867 69.3132 62.5633 69.3132 63.422V68H68.1232V63.604C68.1232 62.9413 67.9645 62.4607 67.6472 62.162C67.3298 61.8633 66.8958 61.714 66.3452 61.714C65.9625 61.714 65.6172 61.8213 65.3092 62.036C65.0105 62.2507 64.7772 62.5353 64.6092 62.89C64.4412 63.2353 64.3572 63.5993 64.3572 63.982V68H63.1672V60.86Z" fill="#747D8C"/>
<path d="M29.178 27.11H26.364V25.976H33.168V27.11H30.368V36H29.178V27.11ZM36.4858 36.224C35.8044 36.224 35.1931 36.0607 34.6518 35.734C34.1104 35.4073 33.6858 34.9593 33.3778 34.39C33.0791 33.8113 32.9298 33.1627 32.9298 32.444C32.9298 31.7533 33.0698 31.1187 33.3498 30.54C33.6391 29.9613 34.0451 29.4993 34.5678 29.154C35.0904 28.8087 35.6971 28.636 36.3878 28.636C37.0878 28.636 37.6944 28.7947 38.2078 29.112C38.7211 29.42 39.1131 29.8493 39.3838 30.4C39.6638 30.9507 39.8038 31.5807 39.8038 32.29C39.8038 32.43 39.7898 32.5513 39.7618 32.654H34.1198C34.1478 33.1953 34.2784 33.6527 34.5118 34.026C34.7451 34.3993 35.0391 34.6793 35.3938 34.866C35.7578 35.0527 36.1358 35.146 36.5278 35.146C37.4424 35.146 38.1471 34.7167 38.6418 33.858L39.6498 34.348C39.3418 34.9267 38.9218 35.384 38.3898 35.72C37.8671 36.056 37.2324 36.224 36.4858 36.224ZM38.5438 31.674C38.5251 31.3753 38.4411 31.0767 38.2918 30.778C38.1424 30.4793 37.9044 30.2273 37.5778 30.022C37.2604 29.8167 36.8591 29.714 36.3738 29.714C35.8138 29.714 35.3378 29.896 34.9458 30.26C34.5631 30.6147 34.3111 31.086 34.1898 31.674H38.5438ZM41.1965 25.976H42.3865V36H41.1965V25.976ZM44.0936 28.86H45.2276V29.924H45.2836C45.4982 29.56 45.8202 29.2567 46.2496 29.014C46.6882 28.762 47.1782 28.636 47.7196 28.636C48.3542 28.636 48.9329 28.7993 49.4556 29.126C49.9782 29.4527 50.3889 29.9053 50.6876 30.484C50.9862 31.0627 51.1356 31.7113 51.1356 32.43C51.1356 33.158 50.9862 33.8113 50.6876 34.39C50.3889 34.9593 49.9782 35.4073 49.4556 35.734C48.9329 36.0607 48.3542 36.224 47.7196 36.224C47.1782 36.224 46.6882 36.1027 46.2496 35.86C45.8202 35.608 45.4982 35.3047 45.2836 34.95H45.2276L45.2836 35.93V39.024H44.0936V28.86ZM47.5796 35.146C47.9902 35.146 48.3776 35.034 48.7416 34.81C49.1056 34.586 49.3949 34.2687 49.6096 33.858C49.8336 33.438 49.9456 32.962 49.9456 32.43C49.9456 31.898 49.8336 31.4267 49.6096 31.016C49.3949 30.596 49.1056 30.274 48.7416 30.05C48.3776 29.826 47.9902 29.714 47.5796 29.714C47.1689 29.714 46.7816 29.826 46.4176 30.05C46.0536 30.274 45.7642 30.5913 45.5496 31.002C45.3349 31.4127 45.2276 31.8887 45.2276 32.43C45.2276 32.9713 45.3349 33.4473 45.5496 33.858C45.7642 34.2687 46.0536 34.586 46.4176 34.81C46.7816 35.034 47.1689 35.146 47.5796 35.146ZM55.8068 36.224C55.1068 36.224 54.4768 36.056 53.9168 35.72C53.3568 35.384 52.9181 34.9267 52.6008 34.348C52.2928 33.7693 52.1388 33.13 52.1388 32.43C52.1388 31.73 52.2928 31.0907 52.6008 30.512C52.9181 29.9333 53.3568 29.476 53.9168 29.14C54.4768 28.804 55.1068 28.636 55.8068 28.636C56.5068 28.636 57.1368 28.804 57.6968 29.14C58.2568 29.476 58.6908 29.9333 58.9988 30.512C59.3161 31.0907 59.4748 31.73 59.4748 32.43C59.4748 33.13 59.3161 33.7693 58.9988 34.348C58.6908 34.9267 58.2568 35.384 57.6968 35.72C57.1368 36.056 56.5068 36.224 55.8068 36.224ZM55.8068 35.146C56.2454 35.146 56.6514 35.0387 57.0248 34.824C57.4074 34.6 57.7108 34.2827 57.9348 33.872C58.1681 33.4613 58.2848 32.9807 58.2848 32.43C58.2848 31.8793 58.1681 31.3987 57.9348 30.988C57.7108 30.5773 57.4074 30.2647 57.0248 30.05C56.6514 29.826 56.2454 29.714 55.8068 29.714C55.3681 29.714 54.9574 29.826 54.5748 30.05C54.1921 30.2647 53.8841 30.5773 53.6508 30.988C53.4268 31.3987 53.3148 31.8793 53.3148 32.43C53.3148 32.9807 53.4268 33.4613 53.6508 33.872C53.8841 34.2827 54.1921 34.6 54.5748 34.824C54.9574 35.0387 55.3681 35.146 55.8068 35.146ZM60.7199 28.86H61.8539V29.91H61.9099C62.1059 29.5553 62.4186 29.2567 62.8479 29.014C63.2772 28.762 63.7346 28.636 64.2199 28.636C65.0786 28.636 65.7319 28.888 66.1799 29.392C66.6372 29.8867 66.8659 30.5633 66.8659 31.422V36H65.6759V31.604C65.6759 30.9413 65.5172 30.4607 65.1999 30.162C64.8826 29.8633 64.4486 29.714 63.8979 29.714C63.5152 29.714 63.1699 29.8213 62.8619 30.036C62.5632 30.2507 62.3299 30.5353 62.1619 30.89C61.9939 31.2353 61.9099 31.5993 61.9099 31.982V36H60.7199V28.86Z" fill="#1E272E"/>
<defs>
<filter id="filter0_d_1_247" x="0" y="0" width="133" height="100" filterUnits="userSpaceOnUse" color-interpolation-filters="sRGB">
<feFlood flood-opacity="0" result="BackgroundImageFix"/>
<feColorMatrix in="SourceAlpha" type="matrix" values="0 0 0 0 0 0 0 0 0 0 0 0 0 0 0 0 0 0 127 0" result="hardAlpha"/>
<feOffset dy="2"/>
<feGaussianBlur stdDeviation="8"/>
<feColorMatrix type="matrix" values="0 0 0 0 0.0642361 0 0 0 0 0.145291 0 0 0 0 0.208333 0 0 0 0.08 0"/>
<feBlend mode="normal" in2="BackgroundImageFix" result="effect1_dropShadow_1_247"/>
<feBlend mode="normal" in="SourceGraphic" in2="effect1_dropShadow_1_247" result="shape"/>
</filter>
</defs>
</svg>
