<svg width="148" height="134" viewBox="0 0 148 134" fill="none" xmlns="http://www.w3.org/2000/svg">
<path fill-rule="evenodd" clip-rule="evenodd" d="M76.6318 21.3286C103.057 21.3286 127.405 29.256 147.979 42.6571V133.634H0V46.4321C21.5173 30.5772 47.9421 21.3286 76.6318 21.3286Z" fill="#F9D4DB"/>
<path d="M57.3795 102.302C63.9857 102.113 70.5919 102.113 77.1981 102.113C78.1418 102.113 79.0855 102.113 80.0293 102.113C79.8405 102.302 79.8405 102.49 79.6518 102.679C75.8768 97.5829 72.2906 92.298 68.5156 87.013C67.9494 86.0693 67.3832 85.503 66.2507 85.3143C65.8732 85.3143 65.4957 85.3143 65.3069 85.3143C63.7969 85.3143 62.0982 85.3143 60.5882 85.3143C56.0583 85.503 51.3395 85.503 46.8096 85.503C44.7334 85.503 42.6571 85.503 40.5809 85.503C40.0147 85.503 39.2597 85.503 38.5047 85.503C38.1272 85.503 37.7497 85.503 37.3722 85.503C36.8059 85.503 36.9947 85.8805 37.1834 86.258C37.7497 87.2017 38.3159 87.9567 38.8822 88.9005C39.8259 90.5992 40.7696 92.298 41.9021 93.8079C42.0909 94.3742 41.3359 94.7517 41.1471 94.3742C40.2034 92.8642 39.2597 91.1655 38.3159 89.6555C37.7497 88.9005 37.1834 87.9567 36.6172 87.013C36.2397 86.4468 35.8622 85.8805 36.0509 85.3143C36.4284 84.3705 37.9384 84.5593 38.6934 84.5593C40.5809 84.5593 42.2796 84.5593 43.9784 84.5593C49.0746 84.5593 53.982 84.5593 58.8895 84.5593C60.777 84.5593 62.6644 84.5593 64.5519 84.5593C65.4957 84.5593 66.6282 84.3705 67.5719 84.748C68.7044 85.3143 69.4594 86.8243 70.2144 87.768C71.1581 89.278 72.2906 90.788 73.4231 92.298C75.6881 95.6954 77.9531 98.9041 80.4068 102.302C80.5955 102.49 80.4068 102.868 80.0293 102.868C73.4231 102.868 66.8169 103.057 60.2107 103.057C59.267 103.057 58.3232 103.057 57.3795 103.057C56.8132 103.057 56.8132 102.302 57.3795 102.302Z" fill="#1D1819"/>
<path d="M125.706 106.454C124.008 107.964 121.743 108.342 120.233 108.153C119.478 108.153 118.723 107.964 118.156 107.398C117.401 107.02 115.325 105.133 114.381 103.812C114.193 103.623 114.004 103.623 114.004 103.434C114.759 103.057 115.514 102.679 115.703 101.924C115.703 101.924 117.968 101.169 117.968 99.4704C117.968 99.4704 120.044 99.0929 119.666 95.6954V95.1292H119.855C119.855 95.1292 121.743 95.8841 122.686 96.0729C123.63 96.4504 127.028 98.5266 127.783 100.037C128.349 101.169 128.16 103.434 126.65 105.322C126.273 105.699 126.084 106.077 125.706 106.454Z" fill="white"/>
<path d="M114.948 89.0892L116.646 88.9005C117.213 88.9005 117.779 89.6554 117.59 90.2217L116.08 93.9967V94.1854C114.381 93.8079 110.795 93.0529 109.474 93.2417C107.775 93.4304 108.53 95.5066 108.53 95.5066L106.832 94.9404C106.454 94.7516 106.077 94.5629 105.699 94.3741C105.51 94.3741 105.51 94.3741 105.322 94.3741L105.51 94.1854L106.832 90.0329C107.02 89.6554 107.587 89.2779 108.153 89.2779L114.948 89.0892Z" fill="white"/>
<path d="M129.67 99.0929C129.67 99.0929 130.048 102.302 126.65 105.322C128.16 103.434 128.349 101.169 127.783 100.037C127.028 98.5266 123.63 96.4504 122.686 96.0729C121.743 95.8842 119.855 95.1292 119.855 95.1292H119.666L118.911 91.1655L118.534 89.0892C118.345 88.7117 117.968 88.3342 117.401 88.3342C116.646 88.3342 115.514 88.3342 114.948 88.9005V89.0892L108.153 89.278C107.587 89.278 107.02 89.6555 106.832 90.033L105.51 94.1854L105.322 94.3742C104.378 93.9967 104 94.7517 104 94.7517C101.924 94.5629 102.302 96.0729 102.302 96.0729L102.868 96.8279C102.302 97.0167 102.302 97.5829 102.302 97.5829C102.302 97.5829 104.378 103.623 110.607 104.567C111.173 104.567 111.739 104.378 112.305 104.189L113.06 103.812C113.06 103.812 113.438 103.623 114.004 103.434C114.004 103.623 114.193 103.623 114.381 103.812L115.514 133.634H58.8895C60.022 123.441 61.7207 109.852 62.2869 104.755C62.2869 103.434 62.4757 102.679 62.4757 102.679L80.218 102.49L80.4068 101.358C80.5955 100.414 80.4068 99.2816 79.8405 98.5266L69.8369 84.1818C69.0819 83.238 68.1381 82.6718 67.0057 82.6718L51.717 82.8605C51.717 82.8605 52.2833 76.6318 54.9258 67.3832C57.3795 58.1345 72.4794 50.2071 72.4794 50.2071C72.8568 50.0183 73.8006 49.4521 74.9331 49.0746C74.9331 49.2633 75.1218 49.4521 75.1218 49.6408C77.1981 54.5483 82.1055 57.5683 87.3905 57.757C90.2217 57.9458 93.6192 57.5683 95.6954 55.6808C95.6954 55.6808 99.6591 53.0383 101.169 49.2633L102.113 49.6408C103.057 49.8296 104 50.2071 104.944 50.5846C109.097 52.6608 120.233 58.512 123.441 67.3832C123.441 67.3832 130.425 93.8079 129.67 99.0929Z" fill="#EC2029"/>
<path d="M117.59 90.2217C117.779 89.6555 117.213 88.9005 116.646 88.9005L114.948 89.0892V88.9005C115.514 88.3342 116.646 88.3342 117.401 88.3342C117.968 88.3342 118.345 88.7117 118.534 89.0892L118.911 91.1655L119.666 95.1292V95.6954C120.044 99.0929 117.968 99.4704 117.968 99.4704C117.968 101.169 115.703 101.924 115.703 101.924C115.514 102.679 114.759 103.057 114.004 103.434C113.438 103.623 113.06 103.812 113.06 103.812L112.305 104.189C111.739 104.378 111.173 104.567 110.606 104.567C104.378 103.623 102.302 97.5829 102.302 97.5829C102.302 97.5829 102.302 97.0167 102.868 96.8279L102.302 96.0729C102.302 96.0729 101.924 94.5629 104 94.7517C104 94.7517 104.378 93.9967 105.322 94.3742C105.51 94.3742 105.51 94.3742 105.699 94.3742C106.077 94.5629 106.454 94.7517 106.832 94.9404L108.53 95.5067C108.53 95.5067 107.775 93.4304 109.474 93.2417C110.795 93.0529 114.381 93.8079 116.08 94.1854V93.9967L117.59 90.2217Z" fill="white"/>
<path d="M87.2017 13.0236C87.2017 13.2124 86.4467 13.5899 85.6917 14.1561C86.6355 13.5899 87.2017 13.2124 87.2017 13.0236ZM100.414 24.726C100.414 26.236 98.9041 27.5572 99.0929 26.236C99.2816 25.1035 98.7154 14.7224 98.7154 14.7224C98.7154 14.7224 97.0166 13.0236 97.0166 11.5136C97.0166 11.5136 90.9767 16.0436 86.6355 16.0436C83.993 16.0436 84.748 15.0999 85.6917 14.1561C83.6155 15.6661 79.463 18.1198 75.6881 18.8748C75.6881 21.706 75.6881 25.481 76.2543 27.1798C76.2543 27.1798 75.6881 28.3122 74.9331 26.4248C74.5556 25.481 74.1781 23.7823 73.9893 22.0835C73.9893 22.0835 73.9893 21.8948 73.9893 21.706C73.8006 20.5736 73.0456 19.4411 71.9131 19.0636C71.3469 18.6861 70.9694 18.3086 71.1581 17.5536C71.5356 15.6661 70.4031 10.0037 74.9331 7.54993C79.463 4.90745 84.1817 -3.58622 97.5829 2.64247L98.3379 5.28495C98.3379 5.28495 104.378 10.5699 103.812 16.7986C103.812 16.7986 104.189 18.3086 102.49 18.4973C101.358 18.8748 100.603 19.8186 100.603 20.9511C100.603 20.9511 100.603 21.1398 100.603 21.3286C100.603 23.216 100.414 24.726 100.414 24.726Z" fill="black"/>
<path d="M93.0529 23.5936C93.2417 23.5936 93.8079 23.5936 93.9966 23.7823C94.3741 23.7823 94.9404 24.3486 94.5629 24.9148C94.1854 25.1036 93.4304 25.2923 92.6754 25.2923C92.2979 25.2923 92.1092 25.1036 91.9204 24.9148C91.9204 24.7261 91.9204 24.3486 92.1092 24.1598C92.2979 23.9711 92.6754 23.7823 93.0529 23.5936Z" fill="black"/>
<path d="M95.6954 20.7623C93.8079 20.3848 91.7317 20.7623 90.7879 20.951C90.7879 21.1398 90.5992 20.951 90.5992 20.7623C91.1654 19.0636 93.0529 18.8748 93.0529 18.8748C93.0529 18.8748 95.8841 19.0636 95.8841 20.5736C95.8841 20.7623 95.8841 20.951 95.6954 20.7623Z" fill="black"/>
<path d="M82.8605 25.2923C82.1055 25.2923 81.5393 25.1035 81.1618 24.726C80.7843 24.3485 81.3505 23.7823 81.728 23.5935C81.9168 23.5935 82.2943 23.4048 82.6718 23.5935C82.8605 23.7823 83.238 23.971 83.4268 24.1598C83.6155 24.3485 83.6155 24.5373 83.4268 24.9148C83.4268 25.1035 83.238 25.1035 82.8605 25.2923Z" fill="black"/>
<path d="M80.0293 20.5736C80.5955 19.8186 81.5393 18.6861 82.6717 18.8748C82.6717 18.8748 84.3705 19.0636 84.9367 20.7623C84.9367 20.9511 84.9367 20.9511 84.748 20.9511C83.993 20.7623 81.9167 20.1961 80.218 20.7623C80.0293 20.7623 80.0293 20.5736 80.0293 20.5736Z" fill="black"/>
<path d="M101.169 49.2633C99.6591 53.0383 95.6954 55.6807 95.6954 55.6807C93.6192 57.5682 90.2217 57.9457 87.3905 57.757C82.1055 57.5682 77.1981 54.5482 75.1218 49.6408C75.1218 49.452 74.9331 49.2633 74.9331 49.0745C75.4993 48.697 76.2543 48.3195 76.8206 48.1308C77.7643 52.472 81.3505 54.5482 81.3505 54.5482C81.3505 54.5482 89.8442 59.4557 97.2054 52.2833C97.2054 52.2833 99.0929 49.8295 99.2816 48.5083L101.169 49.2633Z" fill="#D84652"/>
<path d="M102.302 24.9148C101.735 31.1435 99.2816 30.9547 99.2816 30.9547C98.7154 34.541 97.3941 36.9947 96.2616 38.6934C96.2616 38.6934 95.1291 46.0546 98.3379 48.3196L99.2816 48.5083C99.0929 49.8296 97.2054 52.2833 97.2054 52.2833C89.8442 59.4557 81.3505 54.5483 81.3505 54.5483C81.3505 54.5483 77.7643 52.472 76.8206 48.1308C77.3868 47.7533 77.7643 47.5646 77.7643 47.5646C80.0293 45.8659 79.8405 38.6934 79.8405 38.6934C77.0093 35.4847 76.4431 31.521 76.4431 31.521C74.9331 32.0872 72.6681 28.6898 72.2906 25.1035C71.9131 21.5173 73.9893 22.0836 73.9893 22.0836C74.1781 23.7823 74.5556 25.481 74.9331 26.4248C75.6881 28.3123 76.2543 27.1798 76.2543 27.1798C75.6881 25.481 75.6881 21.7061 75.6881 18.8749C79.463 18.1199 83.6155 15.6661 85.6917 14.1561C84.748 15.0999 83.993 16.0436 86.6355 16.0436C90.9767 16.0436 97.0166 11.5137 97.0166 11.5137C97.0166 13.0237 98.7154 14.7224 98.7154 14.7224C98.7154 14.7224 99.2816 25.1035 99.0929 26.236C98.9041 27.5573 100.414 26.236 100.414 24.7261C100.414 24.7261 100.603 23.2161 100.603 21.3286H100.792C103.434 20.1961 102.302 24.9148 102.302 24.9148Z" fill="white"/>
<path d="M62.4757 102.679C62.4757 102.679 62.2869 103.434 62.2869 104.755L59.6445 109.097C59.267 109.852 58.7007 110.418 58.1345 111.173C57.002 112.494 56.247 113.06 56.247 113.06C52.2833 115.891 46.8096 108.719 46.8096 108.719L54.9257 104.944C55.3032 104.755 55.6807 104.567 56.0582 104.189C56.247 103.812 56.247 103.623 56.247 103.245L56.8132 102.868C57.002 102.868 57.1907 102.679 57.3795 102.679H62.4757Z" fill="white"/>
<path d="M54.9257 104.944L46.8096 108.719C46.4321 108.908 46.0546 109.097 45.6771 108.908C44.9221 108.719 43.7896 108.342 43.2233 107.209L41.5246 105.51C41.5246 105.51 41.1471 104.944 41.3359 103.812C41.3359 103.623 41.1471 103.245 40.9584 103.245C40.5809 102.868 39.8259 102.49 39.8259 102.113C39.8259 101.547 40.0146 100.792 40.0146 100.225C40.0146 100.037 40.0146 99.8479 39.8259 99.6591C39.4484 98.7154 38.1271 95.1292 40.3921 94.3742C40.7696 94.1854 41.1471 94.1854 41.5246 94.1854C43.9783 93.8079 46.8096 94.5629 46.8096 95.1292C46.8096 95.1292 47.5645 96.8279 45.2996 97.2054L43.2233 97.5829L43.9783 98.7154L54.1707 98.5266C54.737 98.5266 55.1145 98.5266 55.492 98.9041C55.8695 99.0929 56.0582 99.4704 56.0582 100.037C55.8695 100.225 55.6807 100.414 55.492 100.603C55.8695 100.603 56.4357 100.414 56.8132 100.414C57.3795 100.414 57.757 100.98 57.757 101.547C57.757 101.924 57.5682 102.302 57.3795 102.679C57.1907 102.679 57.002 102.868 56.8132 102.868L56.247 103.245C56.247 103.623 56.247 103.812 56.0582 104.189C55.6807 104.567 55.3032 104.755 54.9257 104.944Z" fill="white"/>
<path d="M45.2996 97.2054C47.5646 96.8279 46.8096 95.1292 46.8096 95.1292C46.8096 94.5629 43.9784 93.8079 41.5246 94.1854L36.6172 86.0693C36.4284 85.6918 36.6172 85.3143 36.8059 85.1255C36.8059 85.1255 36.9947 85.1255 37.1834 85.1255L66.4394 84.9368C67.1944 84.9368 67.9494 85.3143 68.5156 86.0693C70.5919 89.0892 76.6318 97.7716 80.218 102.49L62.4757 102.679H57.3795C57.5682 102.302 57.757 101.924 57.757 101.547C57.757 100.98 57.3795 100.414 56.8133 100.414C56.4358 100.414 55.8695 100.603 55.492 100.603C55.6808 100.414 55.8695 100.225 56.0583 100.037C56.0583 99.4704 55.8695 99.0929 55.492 98.9041C55.1145 98.5266 54.737 98.5266 54.1708 98.5266L43.9784 98.7154L43.2234 97.5829L45.2996 97.2054Z" fill="white"/>
<path d="M80.218 102.49C76.6318 97.7716 70.5919 89.0892 68.5156 86.0692C67.9494 85.3142 67.1944 84.9367 66.4394 84.9367L37.1834 85.1255C36.9947 85.1255 36.8059 85.1255 36.8059 85.1255L37.1834 84.748C37.3722 84.3705 37.5609 83.993 37.9384 83.6155C38.3159 83.238 38.6934 83.0492 39.2596 83.0492L51.717 82.8605L67.0056 82.6718C68.1381 82.6718 69.0819 83.238 69.8369 84.1817L79.8405 98.5266C80.4068 99.2816 80.5955 100.414 80.4068 101.358L80.218 102.49Z" fill="white"/>
<path d="M73.9893 22.0835C73.9893 22.0835 71.9131 21.5173 72.2906 25.1035C72.6681 28.6897 74.9331 32.0872 76.4431 31.5209C76.4431 31.5209 77.0093 35.4846 79.8405 38.6934C81.3505 40.2034 83.238 41.3358 85.8805 41.9021" stroke="#231F1F" stroke-width="0.0787585"/>
<path d="M91.5429 41.9021C91.5429 41.9021 93.9967 41.5247 96.2616 38.6934C97.3941 36.9947 98.7154 34.541 99.2816 30.9547C99.2816 30.9547 101.735 31.1435 102.302 24.9148C102.302 24.9148 103.434 20.1961 100.792 21.3286" stroke="#231F1F" stroke-width="0.0787585"/>
<path d="M79.8405 38.6934C79.8405 38.6934 80.0293 45.8658 77.7643 47.5645C77.7643 47.5645 77.3868 47.7533 76.8206 48.1308C76.2543 48.3195 75.4993 48.697 74.9331 49.0745C73.8006 49.452 72.8569 50.0183 72.4794 50.207" stroke="#231F1F" stroke-width="0.0787585"/>
<path d="M42.4684 98.9041L43.9784 98.7154L54.1708 98.5266" stroke="#231F1F" stroke-width="0.0787585"/>
<path d="M54.1708 98.5266C54.737 98.5266 55.1145 98.5266 55.492 98.9041C55.8695 99.0929 56.0583 99.4704 56.0583 100.037C55.8695 100.225 55.6808 100.414 55.492 100.603C55.3033 100.792 55.1145 100.792 54.9258 100.792" stroke="#231F1F" stroke-width="0.0787585"/>
<path d="M54.9257 100.792L44.3558 102.679" stroke="#231F1F" stroke-width="0.0787585"/>
<path d="M44.9221 105.888L50.2071 105.322" stroke="#231F1F" stroke-width="0.0787585"/>
<path d="M50.207 105.322C50.5845 105.133 50.962 105.133 51.1508 104.944" stroke="#231F1F" stroke-width="0.0787585"/>
<path d="M51.1508 104.944L56.247 103.245L56.8133 102.868" stroke="#231F1F" stroke-width="0.0787585"/>
<path d="M56.8132 102.868C57.002 102.868 57.1907 102.679 57.3795 102.679C57.5682 102.302 57.757 101.924 57.757 101.547C57.757 100.98 57.3795 100.414 56.8132 100.414C56.4357 100.414 55.8695 100.603 55.492 100.603" stroke="#231F1F" stroke-width="0.0787585"/>
<path d="M56.247 103.245C56.247 103.623 56.247 103.812 56.0582 104.189C55.6807 104.567 55.3032 104.755 54.9257 104.944" stroke="#231F1F" stroke-width="0.0787585"/>
<path d="M54.9257 104.944L46.8096 108.719" stroke="#231F1F" stroke-width="0.0787585"/>
<path d="M46.8096 108.719C46.4321 108.908 46.0546 109.097 45.6771 108.908C44.9221 108.719 43.7896 108.342 43.2234 107.209" stroke="#231F1F" stroke-width="0.0787585"/>
<path d="M43.2233 107.209L41.5246 105.51" stroke="#231F1F" stroke-width="0.0787585"/>
<path d="M41.5246 105.51C41.5246 105.51 41.1471 104.944 41.3359 103.812C41.3359 103.623 41.1471 103.245 40.9584 103.245C40.5809 102.868 39.8259 102.49 39.8259 102.113C39.8259 101.547 40.0146 100.792 40.0146 100.225C40.0146 100.037 40.0146 99.8479 39.8259 99.6591C39.4484 98.7154 38.1271 95.1292 40.3921 94.3742C40.7696 94.1854 41.1471 94.1854 41.5246 94.1854C43.9783 93.8079 46.8096 94.5629 46.8096 95.1292C46.8096 95.1292 47.5645 96.8279 45.2996 97.2054" stroke="#231F1F" stroke-width="0.0787585"/>
<path d="M45.2996 97.2053L43.2234 97.5828L42.0909 97.7716" stroke="#231F1F" stroke-width="0.0787585"/>
<path d="M57.3795 102.679H62.4757L80.2181 102.49" stroke="#231F1F" stroke-width="0.0787585"/>
<path d="M80.218 102.49C76.6318 97.7716 70.5919 89.0892 68.5156 86.0693C67.9494 85.3143 67.1944 84.9368 66.4394 84.9368" stroke="#231F1F" stroke-width="0.0787585"/>
<path d="M66.4394 84.9368L37.1834 85.1255" stroke="#231F1F" stroke-width="0.0787585"/>
<path d="M37.1834 85.1255C36.9947 85.1255 36.8059 85.1255 36.8059 85.1255C36.6172 85.3142 36.4284 85.6917 36.6172 86.0692" stroke="#231F1F" stroke-width="0.0787585"/>
<path d="M36.6172 86.0692L41.5246 94.1854" stroke="#231F1F" stroke-width="0.0787585"/>
<path d="M43.2234 97.5829L43.9784 98.7154" stroke="#231F1F" stroke-width="0.0787585"/>
<path d="M117.968 95.1292L117.213 94.7516" stroke="#231F1F" stroke-width="0.0787585"/>
<path d="M117.213 94.7516C116.835 94.5629 116.646 94.3741 116.269 94.1854C116.08 94.1854 116.08 94.1854 116.08 94.1854C114.381 93.8079 110.795 93.0529 109.474 93.2416C107.775 93.4304 108.53 95.5066 108.53 95.5066" stroke="#231F1F" stroke-width="0.0787585"/>
<path d="M108.53 95.5067L106.832 94.9404" stroke="#231F1F" stroke-width="0.0787585"/>
<path d="M106.832 94.9404C106.454 94.7516 106.077 94.5629 105.699 94.3741C105.51 94.3741 105.51 94.3741 105.322 94.3741C104.378 93.9966 104 94.7516 104 94.7516C101.924 94.5629 102.302 96.0729 102.302 96.0729" stroke="#231F1F" stroke-width="0.0787585"/>
<path d="M102.302 96.0729L102.868 96.8279" stroke="#231F1F" stroke-width="0.0787585"/>
<path d="M102.868 96.8279C102.302 97.0166 102.302 97.5829 102.302 97.5829C102.302 97.5829 104.378 103.623 110.606 104.567C111.173 104.567 111.739 104.378 112.305 104.189" stroke="#231F1F" stroke-width="0.0787585"/>
<path d="M112.305 104.189L113.06 103.812" stroke="#231F1F" stroke-width="0.0787585"/>
<path d="M113.06 103.812C113.06 103.812 113.438 103.623 114.004 103.434C114.759 103.057 115.514 102.679 115.703 101.924C115.703 101.924 117.968 101.169 117.968 99.4703C117.968 99.4703 120.044 99.0928 119.666 95.6954" stroke="#231F1F" stroke-width="0.0787585"/>
<path d="M119.666 95.6954V95.1292L118.911 91.1655L118.534 89.0892" stroke="#231F1F" stroke-width="0.0787585"/>
<path d="M118.534 89.0892C118.345 88.7117 117.968 88.3342 117.401 88.3342C116.646 88.3342 115.514 88.3342 114.948 88.9005" stroke="#231F1F" stroke-width="0.0787585"/>
<path d="M114.004 103.434C114.004 103.623 114.193 103.623 114.381 103.812C115.325 105.133 117.401 107.02 118.156 107.398C118.723 107.964 119.478 108.153 120.233 108.153C121.743 108.342 124.008 107.964 125.706 106.454C126.084 106.077 126.273 105.699 126.65 105.322C128.16 103.434 128.349 101.169 127.783 100.037C127.028 98.5266 123.63 96.4504 122.686 96.0729C121.743 95.8841 119.855 95.1292 119.855 95.1292" stroke="#231F1F" stroke-width="0.0787585"/>
<path d="M122.686 107.775C124.385 107.02 125.706 106.265 126.65 105.322C130.048 102.302 129.67 99.0929 129.67 99.0929C130.425 93.8079 123.441 67.3832 123.441 67.3832C120.233 58.512 109.097 52.6608 104.944 50.5845C104 50.2071 103.057 49.8296 102.113 49.6408" stroke="#231F1F" stroke-width="0.0787585"/>
<path d="M102.113 49.6408L101.169 49.2633L99.2816 48.5083L98.3379 48.3196" stroke="#231F1F" stroke-width="0.0787585"/>
<path d="M98.3379 48.3195C95.1291 46.0545 96.2616 38.6934 96.2616 38.6934" stroke="#231F1F" stroke-width="0.0787585"/>
<path d="M105.51 94.1854L106.832 90.033" stroke="#231F1F" stroke-width="0.0787585"/>
<path d="M106.832 90.0329C107.02 89.6554 107.587 89.278 108.153 89.278" stroke="#231F1F" stroke-width="0.0787585"/>
<path d="M108.153 89.2779L114.948 89.0892L116.646 88.9005" stroke="#231F1F" stroke-width="0.0787585"/>
<path d="M116.646 88.9005C117.213 88.9005 117.779 89.6554 117.59 90.2217" stroke="#231F1F" stroke-width="0.0787585"/>
<path d="M117.59 90.2217L116.08 93.9966" stroke="#231F1F" stroke-width="0.0787585"/>
<path d="M106.643 94.1854L107.587 91.5429" stroke="#231F1F" stroke-width="0.0787585"/>
<path d="M107.587 91.5429C107.775 90.9767 108.342 90.5992 108.908 90.5992" stroke="#231F1F" stroke-width="0.0787585"/>
<path d="M108.908 90.5992L116.458 90.2217" stroke="#231F1F" stroke-width="0.0787585"/>
<path d="M115.325 97.9604C115.325 97.9604 109.474 96.2616 108.53 95.5067" stroke="#231F1F" stroke-width="0.0787585"/>
<path d="M104 94.7516C104 94.7516 103.623 95.3179 104.755 96.6391C106.077 97.9604 109.663 99.8479 109.663 99.8479" stroke="#231F1F" stroke-width="0.0787585"/>
<path d="M109.663 99.8479L112.683 100.603" stroke="#231F1F" stroke-width="0.0787585"/>
<path d="M102.868 96.8279C103.245 97.0166 107.02 101.358 108.153 101.735C109.285 102.113 110.795 102.679 110.795 102.679" stroke="#231F1F" stroke-width="0.0787585"/>
<path d="M72.4793 50.207C72.4793 50.207 57.3795 58.1345 54.9258 67.3831C52.2833 76.6318 51.717 82.8605 51.717 82.8605" stroke="#231F1F" stroke-width="0.0787585"/>
<path d="M114.381 103.812L115.514 133.634" stroke="#231F1F" stroke-width="0.0787585"/>
<path d="M58.8895 133.634C60.022 123.441 61.7207 109.852 62.2869 104.755C62.2869 103.434 62.4757 102.679 62.4757 102.679" stroke="#231F1F" stroke-width="0.0787585"/>
<path d="M114.004 88.9004C114.004 88.9004 114.948 68.3269 115.325 63.9857" stroke="#231F1F" stroke-width="0.0787585"/>
<path d="M118.911 91.1654C118.911 91.1654 122.875 86.4467 123.253 76.8206" stroke="#231F1F" stroke-width="0.0787585"/>
<path d="M61.7207 64.3632L62.4757 82.6717" stroke="#231F1F" stroke-width="0.0787585"/>
<path d="M46.8096 108.719C46.8096 108.719 52.2833 115.891 56.247 113.06C56.247 113.06 57.002 112.494 58.1345 111.173C58.7007 110.418 59.267 109.851 59.6445 109.096" stroke="#231F1F" stroke-width="0.0787585"/>
<path d="M59.6445 109.097L62.2869 104.755" stroke="#231F1F" stroke-width="0.0787585"/>
<path d="M76.8206 48.1308C77.7643 52.472 81.3505 54.5482 81.3505 54.5482C81.3505 54.5482 89.8442 59.4557 97.2054 52.2833C97.2054 52.2833 99.0929 49.8295 99.2816 48.5083" stroke="#231F1F" stroke-width="0.0787585"/>
<path d="M101.169 49.2633C99.6591 53.0383 95.6954 55.6808 95.6954 55.6808C93.6192 57.5683 90.2217 57.9458 87.3905 57.757C82.1055 57.5683 77.1981 54.5483 75.1218 49.6408C75.1218 49.4521 74.9331 49.2633 74.9331 49.0746" stroke="#231F1F" stroke-width="0.0787585"/>
<path d="M85.6917 14.1561C83.6155 15.6661 79.463 18.1198 75.6881 18.8748" stroke="#231F1F" stroke-width="0.0787585"/>
<path d="M87.3904 13.0237H87.2017C87.2017 13.2124 86.6355 13.5899 85.6917 14.1562" stroke="#231F1F" stroke-width="0.0787585"/>
<path d="M85.6917 14.1562C86.4467 13.5899 87.2017 13.2124 87.2017 13.0237" stroke="#231F1F" stroke-width="0.0787585"/>
<path d="M75.6881 15.2886C75.6881 15.2886 75.6881 16.7986 75.6881 18.8748C75.6881 21.706 75.6881 25.481 76.2543 27.1797C76.2543 27.1797 75.6881 28.3122 74.9331 26.4247C74.5556 25.481 74.1781 23.7822 73.9893 22.0835" stroke="#231F1F" stroke-width="0.0787585"/>
<path d="M73.9893 22.0835C73.9893 22.0835 73.9893 21.8948 73.9893 21.706C73.8006 20.5736 73.0456 19.4411 71.9131 19.0636C71.3469 18.6861 70.9694 18.3086 71.1581 17.5536C71.5356 15.6661 70.4031 10.0037 74.9331 7.54993C79.463 4.90745 84.1817 -3.58622 97.5829 2.64247" stroke="#231F1F" stroke-width="0.0787585"/>
<path d="M97.5829 2.64246L98.3379 5.28493" stroke="#231F1F" stroke-width="0.0787585"/>
<path d="M98.3379 5.28497C98.3379 5.28497 104.378 10.5699 103.812 16.7986C103.812 16.7986 104.189 18.3086 102.49 18.4974" stroke="#231F1F" stroke-width="0.0787585"/>
<path d="M102.49 18.4974C101.358 18.8749 100.603 19.8186 100.603 20.9511C100.603 20.9511 100.603 21.1398 100.603 21.3286C100.603 23.2161 100.414 24.7261 100.414 24.7261C100.414 26.236 98.9041 27.5573 99.0929 26.236C99.2816 25.1035 98.7154 14.7224 98.7154 14.7224C98.7154 14.7224 97.0166 13.0237 97.0166 11.5137C97.0166 11.5137 90.9767 16.0436 86.6355 16.0436C83.993 16.0436 84.748 15.0999 85.6917 14.1561" stroke="#231F1F" stroke-width="0.0787585"/>
<path d="M36.8059 85.1255L37.1834 84.748" stroke="#231F1F" stroke-width="0.0787585"/>
<path d="M37.1834 84.7479C37.3722 84.3704 37.5609 83.9929 37.9384 83.6154C38.3159 83.2379 38.6934 83.0492 39.2596 83.0492" stroke="#231F1F" stroke-width="0.0787585"/>
<path d="M39.2596 83.0493L51.717 82.8605L67.0056 82.6718" stroke="#231F1F" stroke-width="0.0787585"/>
<path d="M67.0056 82.6718C68.1381 82.6718 69.0818 83.238 69.8368 84.1817" stroke="#231F1F" stroke-width="0.0787585"/>
<path d="M69.8369 84.1818L79.8405 98.5266" stroke="#231F1F" stroke-width="0.0787585"/>
<path d="M79.8405 98.5266C80.4068 99.2816 80.5955 100.414 80.4068 101.358" stroke="#231F1F" stroke-width="0.0787585"/>
<path d="M80.4068 101.358L80.218 102.49" stroke="#231F1F" stroke-width="0.0787585"/>
<path d="M73.6118 22.6498C72.2906 22.0836 72.6681 24.726 72.6681 25.2923C72.8569 26.8023 73.4231 28.1235 73.9893 29.256C74.3668 30.011 75.3106 31.3322 76.2543 31.1435C76.4431 31.1435 76.8206 31.1435 76.8206 31.521C77.5756 36.2397 81.1618 40.5809 86.0692 41.5246C86.4467 41.5246 86.258 42.4684 85.6917 42.2796C80.5955 41.3359 76.8206 36.8059 76.0656 31.7097C76.2543 31.7097 76.2543 31.8985 76.4431 31.8985C75.3106 32.276 74.3668 31.3322 73.8006 30.5772C72.6681 29.0672 72.1019 27.1798 71.7244 25.2923C71.7244 23.971 71.9131 21.1398 73.9893 21.7061C74.3668 21.8948 74.1781 22.6498 73.6118 22.6498Z" fill="#1D1819"/>
<path d="M91.3542 41.5246C92.4867 41.3359 93.6192 40.5809 94.3742 39.8259C97.0166 37.5609 98.1491 34.1634 98.9041 30.766C98.9041 30.5772 99.0929 30.3885 99.2816 30.3885C100.603 30.5772 101.358 27.746 101.547 26.8022C101.735 25.6697 101.924 24.5373 102.113 23.5935C102.113 22.6498 102.113 21.1398 100.792 21.706C100.225 21.8948 100.037 21.1398 100.603 20.951C103.623 19.6298 102.868 24.5373 102.49 26.0472C102.302 27.746 101.924 29.6335 100.792 30.5772C100.414 30.9547 99.8479 31.3322 99.2816 31.3322C99.4704 31.1434 99.4704 31.1434 99.6591 30.9547C99.0929 34.5409 97.7716 38.1271 94.9404 40.3921C93.9967 41.3359 92.8642 42.0909 91.5429 42.2796C90.9767 42.4683 90.788 41.5246 91.3542 41.5246Z" fill="#1D1819"/>
<path d="M80.218 38.6934C80.218 40.5808 80.218 42.6571 79.6518 44.5446C79.463 45.677 79.0855 46.8095 78.1418 47.7533C77.5755 48.3195 76.6318 48.5083 75.8768 48.8858C74.7443 49.452 73.6118 50.0183 72.6681 50.5845C72.1018 50.7733 71.7243 50.207 72.1018 49.8295C73.0456 49.452 73.9893 48.8858 74.9331 48.5083C75.6881 48.1308 76.6318 47.7533 77.3868 47.187C78.1418 46.8095 78.5193 45.4883 78.708 44.5446C79.0855 43.4121 79.2743 42.0908 79.2743 40.7696C79.463 40.0146 79.463 39.4484 79.463 38.6934C79.463 38.1271 80.218 38.1271 80.218 38.6934Z" fill="#1D1819"/>
<path d="M42.4684 98.3379C46.0546 98.3379 49.6408 98.1491 53.4158 98.1491C54.1708 97.9604 54.9258 97.9604 55.6808 98.5266C56.8133 99.2816 56.247 100.98 54.9258 101.358C53.227 101.735 51.5283 101.924 49.8296 102.113C48.1308 102.49 46.2434 102.868 44.3559 103.057C43.7896 103.245 43.6009 102.302 44.1671 102.302C47.3758 101.735 50.7733 101.169 54.1708 100.603C54.3595 100.603 54.5483 100.414 54.737 100.414C55.3033 100.414 55.8695 99.6591 55.1145 99.2816C54.737 98.7154 53.7933 98.9041 53.227 98.9041C51.1508 98.9041 49.2633 99.0929 47.1871 99.0929C45.6771 99.0929 43.9784 99.2816 42.4684 99.2816C41.9021 99.2816 41.9021 98.3379 42.4684 98.3379Z" fill="#1D1819"/>
<path d="M44.9221 105.51C46.6209 105.322 48.3196 105.133 50.2071 104.755C50.7733 104.755 51.5283 104.378 52.2833 104.189C53.4158 103.812 54.5483 103.245 55.6808 102.868C55.8695 102.868 56.247 102.679 56.6245 102.49C57.002 102.302 57.3795 101.924 57.3795 101.358C57.1908 100.603 56.247 100.98 55.6808 100.98C55.1145 101.169 54.737 100.225 55.3033 100.225C56.247 100.037 57.3795 99.8478 57.9458 100.792C58.512 101.547 58.1345 102.49 57.3795 103.057C57.002 103.245 56.6245 103.434 56.247 103.623C55.6808 103.812 55.1145 104 54.5483 104.189C53.4158 104.567 52.4721 104.944 51.3396 105.322C50.3958 105.699 49.4521 105.699 48.5083 105.888C47.1871 106.077 46.0546 106.265 44.9221 106.265C44.3559 106.454 44.3559 105.51 44.9221 105.51Z" fill="#1D1819"/>
<path d="M56.6245 103.245C56.8132 104.755 55.1145 105.322 53.982 105.888C52.472 106.643 51.1508 107.209 49.6408 107.964C48.697 108.342 47.7533 108.719 46.8096 109.285C45.8658 109.474 44.9221 109.285 44.1671 108.908C43.4121 108.53 43.0346 107.775 42.4683 107.209C42.0908 106.643 41.5246 106.265 41.1471 105.888C40.9584 105.699 40.9584 105.322 40.7696 105.133C40.5809 104.567 40.9584 103.812 40.3921 103.434C40.0146 103.057 39.6371 102.868 39.4484 102.49C39.2596 101.924 39.4484 101.358 39.4484 100.98C39.4484 100.037 39.0709 99.2816 38.8821 98.5266C38.5046 97.0166 38.3159 94.9404 39.8259 94.1854C41.7133 93.2416 44.5446 93.4304 46.2433 94.1854C47.5645 94.7516 47.5645 96.2616 46.6208 97.2053C45.8658 97.5828 45.1108 97.7716 44.3558 97.7716C43.6008 97.9603 42.8458 98.1491 42.0908 98.1491C41.7133 98.3378 41.3359 97.3941 41.9021 97.3941C42.8458 97.2053 43.9783 97.0166 44.9221 96.8278C45.4883 96.8278 46.2433 96.4503 46.4321 95.6954C46.4321 95.3179 46.4321 95.3179 46.0546 95.1291C45.4883 94.7516 44.3558 94.5629 43.4121 94.5629C42.4683 94.3741 41.1471 94.3741 40.2034 94.9404C38.8821 95.5066 39.6371 97.7716 40.0146 98.9041C40.2034 99.6591 40.3921 100.225 40.2034 100.98C40.2034 101.547 40.2034 101.924 40.5809 102.302C40.7696 102.679 41.3359 102.868 41.5246 103.245C41.7133 103.623 41.5246 104.189 41.5246 104.567C41.5246 104.755 41.7133 104.944 41.7133 105.133C41.7133 105.133 41.9021 105.322 41.7133 105.322C42.0908 105.699 42.4683 106.077 42.8458 106.454C43.4121 106.832 43.6008 107.398 44.1671 107.775C44.7333 108.342 45.6771 108.719 46.4321 108.342C47.1871 108.153 47.942 107.775 48.697 107.398C50.207 106.832 51.5283 106.077 52.8495 105.51C53.7932 104.944 55.8695 104.378 55.6807 103.245C55.6807 102.679 56.4357 102.679 56.6245 103.245Z" fill="#1D1819"/>
<path d="M43.4121 97.3941C43.6008 97.7716 43.9783 98.1491 44.1671 98.3378C44.1671 98.5266 44.1671 98.5266 44.1671 98.5266C44.3558 98.7153 44.3558 98.7153 44.3558 98.9041C44.1671 98.9041 44.1671 99.0928 44.1671 99.0928C43.9783 99.2816 43.7896 99.2816 43.7896 99.2816C43.6008 99.0928 43.6008 99.0928 43.4121 98.9041C43.2233 98.7153 43.0346 98.3378 42.8459 97.9603L42.6571 97.7716C42.6571 97.7716 42.6571 97.5828 42.6571 97.3941C42.6571 97.3941 42.6571 97.2053 42.8459 97.2053C42.8459 97.2053 43.0346 97.2053 43.2233 97.2053C43.2233 97.2053 43.4121 97.2053 43.4121 97.3941Z" fill="#1D1819"/>
<path d="M117.779 95.5067C117.024 95.1292 116.269 94.7517 115.514 94.5629C114.381 94.3742 113.249 93.9967 112.305 93.8079C111.362 93.8079 110.229 93.4305 109.285 93.6192C108.53 93.8079 108.719 94.7517 108.908 95.3179C109.097 95.6954 108.719 95.8842 108.342 95.8842C107.775 95.6954 107.209 95.5067 106.643 95.3179C106.265 95.1292 105.888 94.9404 105.322 94.7517C104.755 94.5629 104.567 94.7517 104.189 94.9404C103.812 95.1292 103.812 95.1292 103.245 95.1292C102.868 95.1292 102.679 95.3179 102.49 95.6954V95.8842C102.49 95.6954 102.49 96.0729 102.49 95.8842C102.679 96.0729 102.868 96.2617 103.057 96.6392C103.245 96.8279 103.245 97.2054 102.868 97.2054C102.679 97.3942 102.679 97.7717 102.679 97.5829C102.679 97.7717 102.679 97.9604 102.868 97.9604C103.057 98.5267 103.434 99.0929 103.812 99.6591C104.944 101.358 106.643 102.868 108.719 103.623C109.285 103.812 109.852 104 110.418 104C111.173 104.189 111.739 104 112.494 103.623C112.872 103.245 113.626 103.057 114.004 102.868C114.381 102.679 114.57 102.679 114.759 102.49C114.948 102.302 114.948 102.113 115.136 101.924C115.325 101.735 115.325 101.547 115.514 101.547C116.458 101.169 117.401 100.603 117.401 99.4704C117.401 99.2816 117.59 99.0929 117.779 99.0929C118.534 98.9042 119.1 97.9604 119.289 97.2054C119.478 96.0729 119.1 94.7517 118.911 93.6192C118.723 92.6755 118.534 91.9205 118.345 91.1655C118.345 90.5992 118.156 89.8442 117.968 89.4667C117.779 88.9005 117.401 88.7117 116.835 88.7117C116.269 88.7117 115.514 88.7117 115.136 89.278C114.759 89.6555 114.193 89.0892 114.57 88.7117C115.136 87.9567 116.458 87.768 117.401 87.9567C118.345 87.9567 118.723 88.7117 118.911 89.4667C119.289 90.5992 119.478 91.9205 119.666 93.053C119.855 94.5629 120.421 96.0729 120.044 97.5829C119.855 98.5267 119.1 99.6591 117.968 100.037C118.156 99.8479 118.156 99.6591 118.345 99.4704C118.156 100.98 116.835 101.924 115.703 102.302L115.891 102.113C115.703 103.434 114.193 103.812 113.06 104.189C113.06 104.189 113.06 104.189 112.872 104.189C112.683 104.378 112.683 104.378 112.494 104.567C112.117 104.755 111.739 104.944 111.173 104.944C110.229 104.944 109.097 104.567 108.153 104.378C105.51 103.245 103.245 100.98 102.113 98.5267C101.735 97.5829 101.547 96.8279 102.679 96.4504C102.679 96.6392 102.679 97.0167 102.49 97.2054C102.113 96.6392 101.735 96.2617 101.735 95.6954C101.924 94.5629 102.868 94.1854 103.812 94.3742C103.623 94.3742 103.623 94.3742 103.434 94.5629C104 93.6192 104.944 93.6192 105.888 93.9967C106.643 94.5629 107.587 94.7517 108.53 94.9404C108.53 95.1292 108.342 95.3179 108.153 95.5067C107.775 94.9404 107.775 93.9967 108.153 93.4305C108.719 92.4867 110.04 92.6755 111.173 92.8642C112.494 93.053 113.815 93.2417 115.136 93.6192C116.269 93.8079 117.213 94.1854 118.156 94.7517C118.534 95.1292 118.156 95.8842 117.779 95.5067Z" fill="#1D1819"/>
<path d="M114.193 103.245C114.759 104 115.514 104.755 116.08 105.322C116.646 105.888 117.401 106.454 118.156 107.02C119.855 108.342 122.686 107.775 124.574 106.643C126.461 105.322 127.783 103.057 127.405 100.792C127.216 99.2816 125.329 98.1491 124.008 97.3941C122.498 96.4504 120.988 96.0729 119.666 95.5066C119.1 95.3179 119.289 94.3742 119.855 94.5629C121.365 95.3179 122.875 95.6954 124.385 96.6391C125.895 97.3941 127.971 98.7154 128.349 100.603C128.726 102.868 127.594 105.322 125.895 106.643C124.008 108.342 120.988 109.285 118.723 108.342C117.59 107.775 116.835 107.02 115.891 106.265C115.136 105.51 114.193 104.755 113.626 103.623C113.249 103.245 114.004 102.679 114.193 103.245Z" fill="#1D1819"/>
<path d="M122.498 107.398C125.518 106.077 128.726 103.623 129.104 100.037C129.293 98.7154 129.104 97.2054 129.104 95.8842C128.349 89.6555 126.839 83.4268 125.329 77.3868C124.763 74.7444 124.196 72.2906 123.441 69.6481C123.064 67.9494 122.686 66.4394 121.743 64.9294C117.968 58.512 111.173 54.1708 104.755 51.1508C103.057 50.2071 101.169 49.8296 99.4703 49.0746C98.9041 49.0746 98.5266 48.8858 98.1491 48.6971C97.3941 48.3196 96.8279 47.5646 96.4504 46.8096C95.3179 44.3559 95.3179 41.1472 95.6954 38.5047C95.6954 37.9384 96.6391 38.1272 96.4504 38.6934C96.4504 38.5047 96.4504 38.8822 96.4504 38.8822C96.4504 39.0709 96.4504 39.2597 96.4504 39.4484C96.4504 40.2034 96.2616 40.7697 96.2616 41.5247C96.4504 43.2234 96.4504 45.1109 97.3941 46.6209C97.5829 46.9984 97.9604 47.7533 98.5266 47.9421C99.0928 48.3196 99.8478 48.3196 100.414 48.5083C101.924 49.0746 103.434 49.6408 104.944 50.3958C111.55 53.227 118.156 57.5683 122.12 63.797C123.064 65.4957 123.819 67.0057 124.196 68.8932C124.763 71.3469 125.518 73.8006 126.084 76.2543C127.594 82.483 129.104 88.7117 129.859 95.1292C130.048 96.8279 130.236 98.5266 129.859 100.225C129.481 104 126.084 106.643 122.875 108.153C122.309 108.342 121.931 107.587 122.498 107.398Z" fill="#1D1819"/>
<path d="M104.944 94.1854C105.322 92.8642 105.888 91.3542 106.265 90.2217C106.643 89.2779 107.209 88.9004 107.964 88.7117C108.53 88.7117 109.097 88.7117 109.474 88.7117C111.173 88.7117 113.06 88.7117 114.759 88.5229C115.891 88.5229 118.156 88.1454 117.968 90.0329C117.779 90.7879 117.401 91.5429 117.213 92.1092C116.835 92.8642 116.646 93.4304 116.269 94.1854C116.08 94.7516 115.325 94.5629 115.514 93.9966C116.08 92.6754 116.458 91.5429 116.835 90.2217C117.024 90.2217 117.024 89.8442 117.024 89.6554C117.024 89.4667 116.646 89.4667 116.458 89.4667C115.891 89.4667 115.514 89.4667 114.948 89.4667C113.249 89.4667 111.739 89.4667 110.04 89.6554C109.474 89.6554 108.908 89.6554 108.342 89.6554C107.775 89.6554 107.398 89.8442 107.209 90.4104C106.643 91.7317 106.265 93.0529 105.699 94.3741C105.51 94.7516 104.755 94.5629 104.944 94.1854Z" fill="#1D1819"/>
<path d="M106.077 94.1854C106.454 93.2417 106.643 92.4867 107.02 91.7317C107.398 90.7879 107.964 90.2217 108.908 90.2217C110.607 90.0329 112.494 90.0329 114.381 90.0329C114.948 89.8442 115.703 89.8442 116.269 89.8442C116.835 89.8442 116.835 90.5992 116.269 90.7879C114.759 90.7879 113.249 90.7879 111.739 90.9767C110.984 90.9767 110.04 90.9767 109.285 90.9767C108.53 90.9767 108.153 91.1654 107.775 91.9204C107.587 92.6754 107.209 93.4304 107.02 94.3741C106.832 94.7516 105.888 94.5629 106.077 94.1854Z" fill="#1D1819"/>
<path d="M115.136 98.3379C113.249 97.7717 111.362 97.2054 109.663 96.4504C109.097 96.2617 108.719 96.0729 108.342 95.8842C107.775 95.5067 108.342 94.7517 108.719 95.1292C109.097 95.3179 109.285 95.5067 109.663 95.5067C110.229 95.6954 110.795 96.0729 111.362 96.2617C112.494 96.6392 113.626 97.0167 114.759 97.2054C114.948 97.3942 115.136 97.3942 115.325 97.5829C115.891 97.5829 115.703 98.5267 115.136 98.3379Z" fill="#1D1819"/>
<path d="M104.189 94.9404C104.189 94.7516 104.189 94.9404 104.189 94.9404V95.1291C104.378 95.6954 104.755 96.2616 105.133 96.4504C105.888 97.2054 106.832 97.7716 107.587 98.3378C108.342 98.7153 109.097 98.9041 109.663 99.2816L109.852 99.4703C109.663 99.2816 109.852 99.4703 109.852 99.4703C110.229 99.4703 110.418 99.6591 110.795 99.6591C111.55 99.8478 112.116 100.037 112.871 100.225C113.249 100.414 113.06 101.169 112.494 101.169C111.928 100.98 111.361 100.792 110.795 100.603C110.229 100.414 109.663 100.414 109.285 100.037C108.53 99.6591 107.775 99.2816 107.02 98.9041C106.077 98.3378 105.133 97.7716 104.378 97.0166C104 96.4504 103.057 95.3179 103.434 94.5629C103.623 93.9966 104.378 94.3741 104.189 94.9404Z" fill="#1D1819"/>
<path d="M103.057 96.4504C103.434 96.6391 103.623 97.0166 103.812 97.3941C104.378 97.7716 104.944 98.3379 105.322 98.9041C105.888 99.4704 106.454 100.037 107.02 100.603C107.209 100.792 107.398 100.98 107.775 101.169C107.964 101.169 108.153 101.358 108.342 101.358C109.097 101.735 110.04 101.924 110.984 102.302C111.362 102.302 111.173 103.245 110.607 103.057C110.04 102.868 109.285 102.679 108.53 102.302C107.775 102.113 107.398 101.924 106.832 101.358C105.699 100.414 104.567 99.2816 103.623 98.1491C103.434 97.9604 103.057 97.7716 102.868 97.5829C102.868 97.3941 102.679 97.3941 102.679 97.2054C102.49 97.2054 102.679 97.2054 102.679 97.2054C102.113 97.0166 102.49 96.2616 103.057 96.4504Z" fill="#1D1819"/>
<path d="M72.6681 50.5845C68.8932 52.472 65.4957 54.9257 62.287 57.757C60.022 59.8332 57.757 62.0982 56.247 64.9294C55.3033 66.6281 54.9258 68.5156 54.3595 70.4031C53.982 72.2906 53.4158 74.3668 53.0383 76.443C52.6608 78.5193 52.2833 80.7843 51.9058 82.8605C51.9058 83.4267 51.1508 83.4267 51.1508 82.8605C51.3396 81.1618 51.7171 79.463 51.9058 77.5755C52.2833 75.6881 52.8496 73.6118 53.227 71.7243C53.7933 69.6481 54.1708 67.5719 54.9258 65.6844C57.3795 60.0219 62.8532 55.6807 67.9494 52.472C69.2707 51.5283 70.7806 50.5845 72.1019 49.8295C72.6681 49.6408 73.0456 50.3958 72.6681 50.5845Z" fill="#1D1819"/>
<path d="M114.57 103.812C114.759 108.908 115.136 114.004 115.325 118.911L115.891 133.634H115.136V133.445C114.759 125.329 114.381 117.401 114.004 109.285C114.004 107.587 113.815 105.699 113.815 103.812C113.815 103.245 114.57 103.245 114.57 103.812ZM58.3232 133.634C58.8895 129.67 59.267 125.895 59.6445 121.931C60.3995 115.703 61.1545 109.285 61.9095 103.057C61.9095 102.868 61.9095 102.868 61.9095 102.679C61.9095 102.113 62.8532 102.113 62.8532 102.679C62.287 107.02 61.7207 111.361 61.3432 115.514C60.5882 121.554 59.8332 127.594 59.267 133.634H58.3232Z" fill="#1D1819"/>
<path d="M72.2906 50.5845C71.9131 50.5845 71.9131 49.8295 72.2906 49.8295C72.8568 49.8295 72.8568 50.5845 72.2906 50.5845Z" fill="#1D1819"/>
<path d="M113.438 88.9005C113.815 82.2943 114.193 75.4994 114.57 68.7044C114.57 67.1944 114.759 65.4957 114.948 63.9857C114.948 63.4195 115.703 63.4195 115.703 63.9857C114.948 71.3469 114.759 78.8968 114.381 86.258C114.381 87.2018 114.381 88.1455 114.381 88.9005C114.381 89.4667 113.438 89.4667 113.438 88.9005Z" fill="#1D1819"/>
<path d="M118.534 90.9767C118.534 90.9767 118.723 90.7879 118.534 90.9767C118.723 90.7879 118.723 90.7879 118.723 90.7879C118.911 90.5992 119.1 90.4104 119.1 90.0329C119.666 89.278 120.044 88.3342 120.421 87.3905C121.931 84.1817 122.498 80.4068 122.686 76.8206C122.686 76.2543 123.63 76.2543 123.441 76.8206C123.441 80.5955 122.686 84.3705 121.365 87.768C120.799 89.0892 120.044 90.4104 119.289 91.5429C118.911 91.9204 118.345 91.3542 118.534 90.9767Z" fill="#1D1819"/>
<path d="M62.0982 64.3632C62.287 69.6481 62.4757 74.9331 62.6645 80.4068C62.6645 81.1618 62.6645 81.9167 62.8532 82.6717C62.8532 83.238 61.9095 83.238 61.9095 82.6717C61.7207 77.3868 61.532 71.9131 61.3432 66.6281C61.1545 65.8731 61.1545 65.1182 61.1545 64.3632C61.1545 63.7969 61.9095 63.7969 62.0982 64.3632Z" fill="#1D1819"/>
<path d="M46.9983 108.53C46.9983 108.53 47.1871 108.53 47.1871 108.719C47.3758 108.908 47.3758 108.908 47.5646 109.097C47.942 109.663 48.3195 110.04 48.8858 110.606C50.0183 111.55 51.3395 112.683 52.8495 113.249C54.5482 113.626 55.6807 113.06 56.6245 111.928C57.9457 110.795 58.8895 109.474 59.8332 107.964C60.3994 106.832 61.1544 105.699 61.7207 104.567C62.0982 104 62.8532 104.378 62.4757 104.944C60.9657 107.587 59.4557 110.418 57.1907 112.683C56.0582 113.815 54.9257 114.381 53.227 114.193C51.5283 113.815 50.0183 112.871 48.8858 111.739C47.942 110.795 46.9983 110.04 46.4321 109.097C46.0546 108.53 46.8096 108.153 46.9983 108.53Z" fill="#1D1819"/>
<path d="M61.1545 114.193C60.5882 114.193 60.5882 113.438 61.1545 113.438C61.7207 113.438 61.7207 114.193 61.1545 114.193Z" fill="#1D1819"/>
<path d="M45.4883 109.285C44.9221 109.285 44.9221 108.53 45.4883 108.53C46.0546 108.53 46.0546 109.285 45.4883 109.285Z" fill="#1D1819"/>
<path d="M58.7007 103.057C58.1345 103.057 58.1345 102.302 58.7007 102.302C59.267 102.302 59.267 103.057 58.7007 103.057Z" fill="#1D1819"/>
<path d="M77.0093 47.9421C78.7081 55.3032 87.9567 57.5682 93.9967 54.1707C96.0729 53.0383 98.1491 50.962 98.7154 48.5083C98.9041 47.9421 99.6591 48.1308 99.4704 48.697C99.0929 50.7733 97.5829 52.6608 96.0729 53.7933C93.8079 55.492 90.9767 56.4357 88.1455 56.6245C85.503 56.6245 82.6718 55.8695 80.4068 54.3595C78.3306 52.8495 76.8206 50.7733 76.2543 48.1308C76.0656 47.5646 77.0093 47.3758 77.0093 47.9421Z" fill="#1D1819"/>
<path d="M101.358 49.2634C100.603 51.5283 99.2816 53.2271 97.5829 54.7371C96.2616 55.6808 94.9404 56.8133 93.6192 57.3795C89.0892 59.267 83.238 58.3233 79.2743 55.492C77.0093 53.7933 75.3106 51.7171 74.3668 49.0746C74.1781 48.6971 74.9331 48.3196 75.1218 48.8859C77.3868 54.7371 83.238 57.757 89.4667 57.3795C90.9767 57.1908 92.6754 57.002 93.9967 56.247C94.7516 55.8695 95.3179 55.3033 95.8841 54.9258C97.9604 53.4158 99.6591 51.5283 100.603 49.0746C100.792 48.6971 101.547 48.8859 101.358 49.2634Z" fill="#1D1819"/>
<path d="M76.0656 15.2886C75.8768 18.4973 75.8768 21.8948 76.2543 25.1035C76.2543 25.8585 77.1981 28.3122 75.4993 27.9347C74.5556 27.746 74.3668 26.4248 74.1781 25.6698C73.8006 24.3485 73.8006 22.8385 73.4231 21.3286C73.2344 20.5736 72.6681 20.0073 71.9131 19.6298C71.5356 19.2523 71.1581 19.0636 70.7806 18.6861C70.4031 17.9311 70.7806 17.1761 70.7806 16.4211C70.7806 14.5336 70.7806 12.6461 71.5356 10.7587C71.9131 9.81491 72.4794 8.87117 73.2344 8.11618C73.8006 7.54993 74.7443 7.17244 75.3106 6.60619C76.6318 5.66245 77.7643 4.71871 78.8968 3.77497C81.9168 1.50999 85.1255 0 89.0892 0C91.7317 0 94.1854 0.754993 96.6391 1.69873C97.2054 1.88748 97.7716 2.07623 97.9604 2.45373C98.1491 2.64248 98.1491 3.01997 98.1491 3.20872C98.3379 3.77497 98.3379 4.15246 98.5266 4.52996C98.5266 4.71871 98.5266 4.90746 98.7154 4.90746C98.7154 5.28495 98.7154 5.0962 98.5266 5.0962C99.2816 6.03995 100.414 6.79494 101.169 7.73868C102.49 9.62616 103.623 11.7024 104 13.9674C104.378 15.2886 104.755 17.7423 103.434 18.6861C103.057 18.8748 102.49 18.8748 102.113 19.0636C101.169 19.6298 100.98 20.3848 100.98 21.1398C100.98 22.461 100.792 23.5935 100.792 24.726C100.603 25.481 100.414 26.4248 99.6591 26.991C99.0929 27.3685 98.5266 26.991 98.5266 26.4248C98.5266 25.1035 98.5266 23.7823 98.5266 22.461C98.5266 20.5736 98.3379 18.6861 98.3379 16.7986C98.3379 16.2324 98.3379 15.6661 98.3379 15.0999C98.3379 14.9111 98.3379 14.9111 98.3379 14.7224C98.1491 15.0999 98.5266 15.0999 98.3379 14.9111C98.1491 14.9111 97.9604 14.5336 97.7716 14.3449C97.2054 13.5899 96.6391 12.6461 96.6391 11.5136C96.8279 11.5136 97.0166 11.7024 97.2054 11.8911C94.3742 13.9674 90.7879 16.2324 87.013 16.4211C86.0692 16.6098 83.6155 16.4211 84.5593 14.7224C84.9367 13.7786 86.0692 13.2124 87.013 12.6461C87.3905 12.4574 87.768 13.0236 87.3905 13.4011C83.993 16.0436 79.8405 18.3086 75.6881 19.2523C75.1218 19.4411 74.9331 18.4973 75.4993 18.4973C79.6518 17.5536 83.6155 15.2886 87.013 12.6461C87.2017 12.8349 87.2017 13.2124 87.3905 13.4011C86.6355 13.7786 85.8805 14.3449 85.3142 14.9111C84.9367 15.6661 85.503 15.6661 86.0692 15.6661C87.2017 15.6661 88.1455 15.4774 89.0892 15.2886C91.9204 14.3449 94.5629 12.8349 96.8279 11.1361C97.0166 10.9474 97.3941 11.1361 97.3941 11.5136C97.5829 12.6461 98.1491 13.4011 98.9041 14.3449C99.0929 14.5336 99.0929 14.7224 99.0929 15.0999C99.2816 16.2324 99.2816 17.3648 99.2816 18.4973C99.2816 20.1961 99.4704 21.8948 99.4704 23.5935C99.4704 24.3485 99.4704 24.9148 99.4704 25.481C99.4704 25.6698 99.4704 26.0473 99.4704 26.236C99.4704 26.236 99.4704 26.236 99.4704 26.4248C99.2816 26.6135 99.2816 26.4248 99.2816 26.236C99.2816 26.236 99.4704 26.0473 99.4704 25.8585C99.8479 25.2923 99.8479 24.1598 100.037 23.4048C100.037 22.2723 99.8479 20.7623 100.414 19.8186C100.792 18.8748 101.547 18.4973 102.302 18.1198C103.057 17.9311 103.434 17.5536 103.434 16.7986C103.623 12.6461 101.358 9.05992 98.5266 6.22869C98.3379 6.03995 98.1491 5.8512 97.9604 5.66245C97.7716 5.28495 97.5829 4.52996 97.5829 4.15246C97.3941 3.77497 97.3941 3.39747 97.2054 3.20872C97.0166 2.64248 97.0166 2.83122 96.2616 2.45373C95.1292 2.07623 93.8079 1.50999 92.4867 1.32124C88.7117 0.377497 84.9368 0.943742 81.5393 3.01997C79.2743 4.34121 77.3868 6.41744 75.1218 7.73868C73.2344 9.05992 72.1019 10.5699 71.9131 12.8349C71.5356 14.3449 71.7244 15.8549 71.5356 17.3648C71.5356 18.1198 71.7244 18.3086 72.2906 18.6861C72.6681 19.0636 73.0456 19.4411 73.4231 19.8186C74.1781 20.7623 74.3668 21.8948 74.5556 23.0273C74.5556 24.3485 74.7443 25.8585 75.4993 26.8023C75.6881 27.1798 75.4993 26.991 75.6881 26.991C75.6881 26.991 75.6881 27.1798 75.6881 26.8023C75.4993 26.6135 75.4993 26.4248 75.4993 26.236C74.9331 22.8385 75.1218 19.4411 75.1218 16.0436C75.1218 15.6661 75.1218 15.4774 75.1218 15.2886C75.3106 14.7224 76.0656 14.7224 76.0656 15.2886Z" fill="#1D1819"/>
<path d="M36.4284 84.9367C37.1834 83.993 37.7496 82.8605 39.0709 82.6718C39.4484 82.6718 39.6371 82.6718 39.8259 82.6718C41.5246 82.6718 43.0346 82.6718 44.5446 82.6718C49.452 82.483 54.3595 82.483 59.2669 82.2943C61.1544 82.2943 63.0419 82.2943 64.9294 82.2943C66.0619 82.2943 67.1944 82.1055 68.1381 82.483C69.6481 83.0493 70.4031 84.3705 71.3468 85.6917C72.6681 87.5792 73.9893 89.4667 75.3105 91.1654C76.6318 93.2417 77.953 95.1291 79.463 97.2054C79.6517 97.5829 80.0292 97.9604 80.218 98.3379C81.1617 99.6591 80.7842 100.98 80.4067 102.49C80.4067 103.057 79.463 102.868 79.6517 102.302C80.0292 100.98 80.218 99.8479 79.463 98.7154C79.2743 98.3379 78.8968 97.9604 78.708 97.7716C77.5755 96.0729 76.443 94.5629 75.3105 92.8642C73.4231 90.0329 71.5356 87.013 69.2706 84.3705C68.3268 83.0493 67.0056 83.0493 65.4956 83.238C63.7969 83.238 62.0982 83.238 60.3994 83.238C55.6807 83.238 51.1508 83.4267 46.432 83.4267C44.5446 83.4267 42.4683 83.4267 40.5808 83.6155C40.2034 83.6155 39.6371 83.6155 39.2596 83.6155C38.1271 83.6155 37.7496 84.748 36.9946 85.503C36.6171 85.8805 36.0509 85.3142 36.4284 84.9367Z" fill="#1D1819"/>
<path d="M17.1761 25.8585H38.8822C40.0147 25.8585 40.7697 26.6135 40.7697 27.746V42.4684C40.7697 43.4121 40.0147 44.3559 38.8822 44.3559H26.4248L23.7823 47.9421C23.5936 48.3196 23.2161 48.3196 23.0273 47.9421L20.3848 44.3559H17.1761C16.0436 44.3559 15.2886 43.4121 15.2886 42.4684V27.746C15.2886 26.6135 16.0436 25.8585 17.1761 25.8585Z" fill="#FEFEFE" stroke="#332C2B" stroke-width="0.352514"/>
<path d="M19.2524 29.6335H30.9548" stroke="#332C2B" stroke-width="0.352514" stroke-linecap="round"/>
<path d="M19.2524 33.2197H30.9548" stroke="#332C2B" stroke-width="0.352514" stroke-linecap="round"/>
<path d="M19.2524 36.806H30.9548" stroke="#332C2B" stroke-width="0.352514" stroke-linecap="round"/>
<path d="M54.5483 20.3848H32.8423C31.7098 20.3848 30.9548 21.1398 30.9548 22.2723V36.9947C30.9548 37.9384 31.7098 38.8822 32.8423 38.8822H45.2996L47.9421 42.4684C48.1309 42.8459 48.5084 42.8459 48.6971 42.4684L51.3396 38.8822H54.5483C55.6808 38.8822 56.4358 37.9384 56.4358 36.9947V22.2723C56.4358 21.1398 55.6808 20.3848 54.5483 20.3848Z" fill="#EC2029" stroke="#332C2B" stroke-width="0.352514"/>
<path d="M34.3522 23.9711H51.9058" stroke="#332C2B" stroke-width="0.352514" stroke-linecap="round"/>
<path d="M34.3522 27.5573H51.9058" stroke="#332C2B" stroke-width="0.352514" stroke-linecap="round"/>
<path d="M34.3522 31.1435H51.9058" stroke="#332C2B" stroke-width="0.352514" stroke-linecap="round"/>
<path d="M34.3522 34.7297H51.9058" stroke="#332C2B" stroke-width="0.352514" stroke-linecap="round"/>
</svg>
