<svg width="375" height="373" viewBox="0 0 375 373" fill="none" xmlns="http://www.w3.org/2000/svg">
<g clip-path="url(#clip0_404_9803)">
<path d="M0 32C0 14.3269 14.3269 0 32 0H343C360.673 0 375 14.3269 375 32V373H0V32Z" fill="white"/>
<path d="M0 32C0 14.3269 14.3269 0 32 0H343C360.673 0 375 14.3269 375 32V89H0V32Z" fill="white"/>
<line y1="88.5" x2="375" y2="88.5" stroke="#F1F2F6"/>
<path d="M26.94 67.32C25.82 67.32 24.84 67.08 24 66.6C23.1733 66.12 22.5267 65.4267 22.06 64.52C21.6067 63.6133 21.38 62.54 21.38 61.3V52.68H24.06V61.46C24.06 62.4467 24.3067 63.2467 24.8 63.86C25.3067 64.46 26.02 64.76 26.94 64.76C27.86 64.76 28.5667 64.46 29.06 63.86C29.5667 63.2467 29.82 62.4467 29.82 61.46V52.68H32.5V61.3C32.5 62.4867 32.2733 63.5333 31.82 64.44C31.3667 65.3467 30.72 66.0533 29.88 66.56C29.04 67.0667 28.06 67.32 26.94 67.32ZM35.1667 56.8H37.6267V58.16H37.7867C38.0401 57.68 38.4334 57.2867 38.9667 56.98C39.5001 56.66 40.0867 56.5 40.7267 56.5C41.1934 56.5 41.6201 56.5733 42.0067 56.72V59.34C41.6467 59.2067 41.3401 59.1133 41.0867 59.06C40.8467 58.9933 40.5867 58.96 40.3067 58.96C39.5334 58.96 38.9201 59.24 38.4667 59.8C38.0134 60.36 37.7867 61.0667 37.7867 61.92V67H35.1667V56.8ZM47.3819 67.32C46.1552 67.32 45.2219 66.94 44.5819 66.18C43.9419 65.42 43.6219 64.36 43.6219 63V56.8H46.2419V62.68C46.2419 63.3733 46.4085 63.92 46.7419 64.32C47.0752 64.7067 47.5152 64.9 48.0619 64.9C48.8085 64.9 49.4019 64.6267 49.8419 64.08C50.2819 63.5333 50.5019 62.84 50.5019 62V56.8H53.1219V67H50.6619V65.72H50.5019C50.1952 66.2133 49.7619 66.6067 49.2019 66.9C48.6552 67.18 48.0485 67.32 47.3819 67.32ZM60.2122 67.16C59.7055 67.16 59.2389 67.0867 58.8122 66.94C58.3855 66.78 58.0389 66.5667 57.7722 66.3C57.1455 65.7 56.8322 64.8467 56.8322 63.74V59.04H55.0522V56.8H56.8322V53.92H59.4522V56.8H61.9522V59.04H59.4522V63.26C59.4522 63.78 59.5655 64.1533 59.7922 64.38C59.9789 64.5933 60.2989 64.7 60.7522 64.7C61.0055 64.7 61.2122 64.6667 61.3722 64.6C61.5455 64.5333 61.7655 64.42 62.0322 64.26V66.82C61.4589 67.0467 60.8522 67.16 60.2122 67.16ZM64.2292 52.68H66.8492V60.48H66.9892L70.6492 56.8H73.8692V56.96L70.0092 60.74L74.0492 66.84V67H70.9492L68.1692 62.54L66.8492 63.84V67H64.2292V52.68ZM78.3258 67.32C77.2458 67.32 76.3591 67.0067 75.6658 66.38C74.9724 65.74 74.6258 64.9067 74.6258 63.88C74.6258 63.2 74.8058 62.6 75.1658 62.08C75.5258 61.56 76.0191 61.16 76.6458 60.88C77.2724 60.6 77.9658 60.46 78.7258 60.46C79.7791 60.46 80.6791 60.6133 81.4258 60.92V60.48C81.4258 59.92 81.2124 59.4667 80.7858 59.12C80.3724 58.7733 79.8124 58.6 79.1058 58.6C78.6258 58.6 78.1591 58.7133 77.7058 58.94C77.2658 59.1533 76.8991 59.44 76.6058 59.8L74.9258 58.48C75.4191 57.84 76.0391 57.3467 76.7858 57C77.5324 56.6533 78.3458 56.48 79.2258 56.48C80.7858 56.48 81.9724 56.84 82.7858 57.56C83.5991 58.28 84.0058 59.3333 84.0058 60.72V67H81.4258V65.96H81.2658C80.9591 66.36 80.5524 66.6867 80.0458 66.94C79.5524 67.1933 78.9791 67.32 78.3258 67.32ZM78.9458 65.28C79.7058 65.28 80.3058 65.04 80.7458 64.56C81.1991 64.0667 81.4258 63.4933 81.4258 62.84C80.7458 62.52 80.0324 62.36 79.2858 62.36C77.9258 62.36 77.2458 62.8667 77.2458 63.88C77.2458 64.2933 77.3924 64.6333 77.6858 64.9C77.9791 65.1533 78.3991 65.28 78.9458 65.28ZM86.4167 56.8H88.8767V58.08H89.0367C89.3434 57.5867 89.7767 57.2 90.3367 56.92C90.8967 56.6267 91.5034 56.48 92.1567 56.48C93.3834 56.48 94.3167 56.8533 94.9567 57.6C95.5967 58.3467 95.9167 59.3667 95.9167 60.66V67H93.2967V60.98C93.2967 60.3267 93.1301 59.82 92.7967 59.46C92.4634 59.1 91.9967 58.92 91.3967 58.92C90.6901 58.92 90.1167 59.1933 89.6767 59.74C89.2501 60.2867 89.0367 60.9733 89.0367 61.8V67H86.4167V56.8Z" fill="#1E272E"/>
<rect x="156" y="8" width="62" height="6" rx="3" fill="#CED6E0"/>
<g filter="url(#filter0_d_404_9803)">
<rect width="375" height="96" transform="translate(0 277)" fill="white"/>
<rect x="20" y="289" width="335" height="42" rx="4" fill="#EC2028"/>
<path d="M164.672 315.224C163.795 315.224 163.02 314.977 162.348 314.482C161.676 313.987 161.205 313.287 160.934 312.382L162.712 311.682C162.852 312.214 163.09 312.639 163.426 312.956C163.762 313.273 164.182 313.432 164.686 313.432C165.106 313.432 165.465 313.329 165.764 313.124C166.063 312.909 166.212 312.615 166.212 312.242C166.212 311.869 166.067 311.565 165.778 311.332C165.498 311.089 164.994 310.833 164.266 310.562L163.65 310.338C163.006 310.114 162.455 309.773 161.998 309.316C161.541 308.849 161.312 308.266 161.312 307.566C161.312 307.043 161.447 306.567 161.718 306.138C161.989 305.709 162.371 305.373 162.866 305.13C163.361 304.878 163.921 304.752 164.546 304.752C165.451 304.752 166.165 304.967 166.688 305.396C167.211 305.816 167.57 306.311 167.766 306.88L166.1 307.58C165.997 307.272 165.815 307.015 165.554 306.81C165.302 306.595 164.975 306.488 164.574 306.488C164.163 306.488 163.823 306.586 163.552 306.782C163.291 306.969 163.16 307.216 163.16 307.524C163.16 307.823 163.286 308.079 163.538 308.294C163.79 308.499 164.205 308.7 164.784 308.896L165.414 309.106C166.282 309.405 166.945 309.801 167.402 310.296C167.869 310.781 168.102 311.421 168.102 312.214C168.102 312.867 167.934 313.423 167.598 313.88C167.262 314.328 166.828 314.664 166.296 314.888C165.773 315.112 165.232 315.224 164.672 315.224ZM169.892 304.976H171.782V315H169.892V304.976ZM174.062 304.976H176.498L179.158 312.018H179.27L181.93 304.976H184.38V315H182.504V310.058L182.616 308.392H182.504L179.956 315H178.486L175.924 308.392H175.812L175.924 310.058V315H174.062V304.976ZM186.668 304.976H190.196C190.83 304.976 191.409 305.111 191.932 305.382C192.454 305.643 192.865 306.017 193.164 306.502C193.462 306.978 193.612 307.524 193.612 308.14C193.612 308.756 193.462 309.307 193.164 309.792C192.865 310.277 192.454 310.655 191.932 310.926C191.409 311.187 190.83 311.318 190.196 311.318H188.558V315H186.668V304.976ZM190.252 309.526C190.718 309.526 191.082 309.391 191.344 309.12C191.614 308.849 191.75 308.523 191.75 308.14C191.75 307.757 191.614 307.435 191.344 307.174C191.082 306.903 190.718 306.768 190.252 306.768H188.558V309.526H190.252ZM197.042 304.976H199.212L202.978 315H200.892L200.052 312.606H196.216L195.376 315H193.29L197.042 304.976ZM199.436 310.87L198.554 308.35L198.19 307.146H198.078L197.714 308.35L196.818 310.87H199.436ZM204.332 304.976H206.53L210.562 311.696H210.674L210.562 309.764V304.976H212.438V315H210.45L206.194 307.902H206.082L206.194 309.834V315H204.332V304.976Z" fill="white"/>
</g>
<rect x="121" y="360" width="134" height="5" rx="2.5" fill="black"/>
<rect y="89" width="375" height="44" fill="white"/>
<rect y="132" width="375" height="1" fill="#F1F2F6"/>
<path d="M21.148 105.976H24.62C25.208 105.976 25.7493 106.107 26.244 106.368C26.748 106.629 27.1447 106.993 27.434 107.46C27.7327 107.927 27.882 108.454 27.882 109.042C27.882 109.63 27.7327 110.157 27.434 110.624C27.1447 111.091 26.748 111.455 26.244 111.716C25.7493 111.977 25.208 112.108 24.62 112.108H22.716V116H21.148V105.976ZM24.648 110.624C24.9933 110.624 25.292 110.549 25.544 110.4C25.796 110.241 25.9873 110.041 26.118 109.798C26.2487 109.555 26.314 109.303 26.314 109.042C26.314 108.781 26.2487 108.529 26.118 108.286C25.9873 108.043 25.796 107.847 25.544 107.698C25.292 107.549 24.9933 107.474 24.648 107.474H22.716V110.624H24.648ZM31.1887 116.224C30.6754 116.224 30.2181 116.126 29.8167 115.93C29.4154 115.725 29.1027 115.44 28.8787 115.076C28.6547 114.703 28.5427 114.283 28.5427 113.816C28.5427 113.079 28.8181 112.495 29.3687 112.066C29.9287 111.637 30.6334 111.422 31.4827 111.422C31.9027 111.422 32.2807 111.464 32.6167 111.548C32.9527 111.623 33.2187 111.707 33.4147 111.8V111.436C33.4147 110.997 33.2514 110.643 32.9247 110.372C32.5981 110.092 32.1781 109.952 31.6647 109.952C31.3007 109.952 30.9554 110.031 30.6287 110.19C30.3114 110.349 30.0547 110.568 29.8587 110.848L28.7807 110.022C29.0981 109.583 29.5087 109.243 30.0127 109C30.5167 108.757 31.0767 108.636 31.6927 108.636C32.7287 108.636 33.5267 108.893 34.0867 109.406C34.6467 109.91 34.9267 110.624 34.9267 111.548V116H33.4147V115.146H33.3447C33.1394 115.454 32.8501 115.711 32.4767 115.916C32.1034 116.121 31.6741 116.224 31.1887 116.224ZM31.4547 114.95C31.8281 114.95 32.1641 114.861 32.4627 114.684C32.7614 114.507 32.9947 114.269 33.1627 113.97C33.3307 113.671 33.4147 113.349 33.4147 113.004C33.2001 112.883 32.9481 112.785 32.6587 112.71C32.3787 112.635 32.0847 112.598 31.7767 112.598C31.1981 112.598 30.7734 112.715 30.5027 112.948C30.2321 113.172 30.0967 113.466 30.0967 113.83C30.0967 114.157 30.2227 114.427 30.4747 114.642C30.7267 114.847 31.0534 114.95 31.4547 114.95ZM36.605 105.976H38.145V116H36.605V105.976ZM40.8366 107.824C40.5473 107.824 40.2999 107.726 40.0946 107.53C39.8986 107.325 39.8006 107.077 39.8006 106.788C39.8006 106.499 39.8986 106.256 40.0946 106.06C40.2999 105.855 40.5473 105.752 40.8366 105.752C41.1259 105.752 41.3686 105.855 41.5646 106.06C41.7699 106.256 41.8726 106.499 41.8726 106.788C41.8726 107.077 41.7699 107.325 41.5646 107.53C41.3686 107.726 41.1259 107.824 40.8366 107.824ZM40.0666 108.86H41.6066V116H40.0666V108.86ZM43.523 108.86H44.993V109.798H45.063C45.2683 109.462 45.5716 109.187 45.973 108.972C46.3836 108.748 46.8176 108.636 47.275 108.636C48.143 108.636 48.801 108.893 49.249 109.406C49.7063 109.91 49.935 110.601 49.935 111.478V116H48.395V111.688C48.395 111.128 48.255 110.717 47.975 110.456C47.7043 110.195 47.3263 110.064 46.841 110.064C46.4956 110.064 46.1876 110.162 45.917 110.358C45.6463 110.545 45.4363 110.797 45.287 111.114C45.1376 111.431 45.063 111.772 45.063 112.136V116H43.523V108.86ZM54.823 119.248C53.9457 119.248 53.2177 119.047 52.639 118.646C52.0697 118.245 51.687 117.769 51.491 117.218L52.933 116.616C53.0824 116.989 53.3204 117.288 53.647 117.512C53.983 117.745 54.375 117.862 54.823 117.862C55.4764 117.862 55.985 117.666 56.349 117.274C56.7224 116.891 56.909 116.35 56.909 115.65V114.992H56.825C56.5917 115.328 56.279 115.594 55.887 115.79C55.5044 115.977 55.061 116.07 54.557 116.07C53.9597 116.07 53.4044 115.916 52.891 115.608C52.3777 115.3 51.967 114.866 51.659 114.306C51.3604 113.737 51.211 113.088 51.211 112.36C51.211 111.632 51.3604 110.988 51.659 110.428C51.967 109.859 52.3777 109.42 52.891 109.112C53.4044 108.795 53.9597 108.636 54.557 108.636C55.0517 108.636 55.495 108.734 55.887 108.93C56.279 109.126 56.5917 109.392 56.825 109.728H56.909V108.86H58.379V115.608C58.379 116.383 58.2297 117.041 57.931 117.582C57.6324 118.133 57.2124 118.548 56.671 118.828C56.139 119.108 55.523 119.248 54.823 119.248ZM54.837 114.67C55.2104 114.67 55.5557 114.581 55.873 114.404C56.1904 114.217 56.4424 113.951 56.629 113.606C56.8157 113.251 56.909 112.836 56.909 112.36C56.909 111.632 56.7084 111.067 56.307 110.666C55.915 110.255 55.425 110.05 54.837 110.05C54.4544 110.05 54.1044 110.143 53.787 110.33C53.4697 110.507 53.2177 110.769 53.031 111.114C52.8444 111.459 52.751 111.875 52.751 112.36C52.751 112.845 52.8444 113.261 53.031 113.606C53.2177 113.951 53.4697 114.217 53.787 114.404C54.1044 114.581 54.4544 114.67 54.837 114.67ZM66.1964 116.224C65.3657 116.224 64.6191 115.981 63.9564 115.496C63.2937 115.011 62.8364 114.329 62.5844 113.452L64.0684 112.85C64.2177 113.401 64.4791 113.853 64.8524 114.208C65.2351 114.553 65.6924 114.726 66.2244 114.726C66.7191 114.726 67.1391 114.6 67.4844 114.348C67.8297 114.087 68.0024 113.732 68.0024 113.284C68.0024 112.873 67.8484 112.537 67.5404 112.276C67.2417 112.005 66.7144 111.735 65.9584 111.464L65.3284 111.24C64.6564 111.007 64.0917 110.671 63.6344 110.232C63.1771 109.793 62.9484 109.215 62.9484 108.496C62.9484 108.001 63.0837 107.544 63.3544 107.124C63.6251 106.704 63.9984 106.373 64.4744 106.13C64.9597 105.878 65.5057 105.752 66.1124 105.752C66.9897 105.752 67.6897 105.967 68.2124 106.396C68.7351 106.816 69.0851 107.292 69.2624 107.824L67.8484 108.426C67.7457 108.109 67.5497 107.829 67.2604 107.586C66.9711 107.343 66.5977 107.222 66.1404 107.222C65.6831 107.222 65.2957 107.339 64.9784 107.572C64.6704 107.805 64.5164 108.104 64.5164 108.468C64.5164 108.813 64.6564 109.098 64.9364 109.322C65.2164 109.546 65.6551 109.761 66.2524 109.966L66.8824 110.176C67.7411 110.475 68.4037 110.867 68.8704 111.352C69.3464 111.828 69.5844 112.467 69.5844 113.27C69.5844 113.923 69.4164 114.474 69.0804 114.922C68.7444 115.361 68.3151 115.687 67.7924 115.902C67.2791 116.117 66.7471 116.224 66.1964 116.224ZM74.3885 116.224C73.6885 116.224 73.0585 116.061 72.4985 115.734C71.9478 115.407 71.5138 114.959 71.1965 114.39C70.8885 113.811 70.7345 113.163 70.7345 112.444C70.7345 111.763 70.8838 111.133 71.1825 110.554C71.4905 109.966 71.9151 109.499 72.4565 109.154C72.9978 108.809 73.6138 108.636 74.3045 108.636C75.0231 108.636 75.6438 108.795 76.1665 109.112C76.6985 109.429 77.0998 109.863 77.3705 110.414C77.6505 110.965 77.7905 111.585 77.7905 112.276C77.7905 112.407 77.7765 112.57 77.7485 112.766H72.2745C72.3305 113.429 72.5638 113.942 72.9745 114.306C73.3945 114.661 73.8798 114.838 74.4305 114.838C74.8691 114.838 75.2471 114.74 75.5645 114.544C75.8911 114.339 76.1525 114.063 76.3485 113.718L77.6505 114.334C77.3145 114.922 76.8758 115.384 76.3345 115.72C75.7931 116.056 75.1445 116.224 74.3885 116.224ZM76.2225 111.59C76.2038 111.338 76.1245 111.091 75.9845 110.848C75.8445 110.596 75.6298 110.386 75.3405 110.218C75.0605 110.05 74.7151 109.966 74.3045 109.966C73.8098 109.966 73.3898 110.115 73.0445 110.414C72.7085 110.703 72.4751 111.095 72.3445 111.59H76.2225ZM81.8652 116.224C81.0439 116.224 80.3719 116.047 79.8492 115.692C79.3266 115.328 78.9579 114.866 78.7432 114.306L80.1152 113.704C80.2832 114.077 80.5166 114.362 80.8152 114.558C81.1232 114.754 81.4732 114.852 81.8652 114.852C82.2479 114.852 82.5699 114.787 82.8312 114.656C83.0926 114.516 83.2232 114.311 83.2232 114.04C83.2232 113.779 83.1112 113.573 82.8872 113.424C82.6632 113.275 82.3179 113.144 81.8512 113.032L80.9972 112.822C80.4279 112.682 79.9566 112.435 79.5832 112.08C79.2099 111.725 79.0232 111.277 79.0232 110.736C79.0232 110.316 79.1446 109.947 79.3872 109.63C79.6392 109.313 79.9752 109.07 80.3952 108.902C80.8152 108.725 81.2726 108.636 81.7672 108.636C82.4299 108.636 83.0132 108.771 83.5172 109.042C84.0212 109.303 84.3852 109.686 84.6092 110.19L83.2652 110.778C82.9946 110.227 82.4999 109.952 81.7812 109.952C81.4359 109.952 81.1466 110.022 80.9132 110.162C80.6799 110.302 80.5632 110.484 80.5632 110.708C80.5632 110.923 80.6519 111.1 80.8292 111.24C81.0066 111.371 81.2679 111.483 81.6132 111.576L82.6632 111.842C83.3632 112.019 83.8906 112.29 84.2452 112.654C84.6092 113.009 84.7912 113.447 84.7912 113.97C84.7912 114.418 84.6606 114.815 84.3992 115.16C84.1472 115.496 83.7972 115.757 83.3492 115.944C82.9012 116.131 82.4066 116.224 81.8652 116.224ZM88.7285 116.224C87.8605 116.224 87.1978 115.967 86.7405 115.454C86.2925 114.931 86.0685 114.208 86.0685 113.284V108.86H87.6085V113.074C87.6085 113.653 87.7438 114.087 88.0145 114.376C88.2945 114.665 88.6585 114.81 89.1065 114.81C89.4705 114.81 89.7925 114.717 90.0725 114.53C90.3525 114.334 90.5672 114.077 90.7165 113.76C90.8658 113.443 90.9405 113.102 90.9405 112.738V108.86H92.4805V116H91.0245V115.076H90.9405C90.7445 115.412 90.4412 115.687 90.0305 115.902C89.6198 116.117 89.1858 116.224 88.7285 116.224ZM96.4446 116.224C95.9313 116.224 95.4739 116.126 95.0726 115.93C94.6713 115.725 94.3586 115.44 94.1346 115.076C93.9106 114.703 93.7986 114.283 93.7986 113.816C93.7986 113.079 94.0739 112.495 94.6246 112.066C95.1846 111.637 95.8893 111.422 96.7386 111.422C97.1586 111.422 97.5366 111.464 97.8726 111.548C98.2086 111.623 98.4746 111.707 98.6706 111.8V111.436C98.6706 110.997 98.5073 110.643 98.1806 110.372C97.8539 110.092 97.4339 109.952 96.9206 109.952C96.5566 109.952 96.2113 110.031 95.8846 110.19C95.5673 110.349 95.3106 110.568 95.1146 110.848L94.0366 110.022C94.3539 109.583 94.7646 109.243 95.2686 109C95.7726 108.757 96.3326 108.636 96.9486 108.636C97.9846 108.636 98.7826 108.893 99.3426 109.406C99.9026 109.91 100.183 110.624 100.183 111.548V116H98.6706V115.146H98.6006C98.3953 115.454 98.1059 115.711 97.7326 115.916C97.3593 116.121 96.9299 116.224 96.4446 116.224ZM96.7106 114.95C97.0839 114.95 97.4199 114.861 97.7186 114.684C98.0173 114.507 98.2506 114.269 98.4186 113.97C98.5866 113.671 98.6706 113.349 98.6706 113.004C98.4559 112.883 98.2039 112.785 97.9146 112.71C97.6346 112.635 97.3406 112.598 97.0326 112.598C96.4539 112.598 96.0293 112.715 95.7586 112.948C95.4879 113.172 95.3526 113.466 95.3526 113.83C95.3526 114.157 95.4786 114.427 95.7306 114.642C95.9826 114.847 96.3093 114.95 96.7106 114.95ZM102.743 107.824C102.454 107.824 102.206 107.726 102.001 107.53C101.805 107.325 101.707 107.077 101.707 106.788C101.707 106.499 101.805 106.256 102.001 106.06C102.206 105.855 102.454 105.752 102.743 105.752C103.032 105.752 103.275 105.855 103.471 106.06C103.676 106.256 103.779 106.499 103.779 106.788C103.779 107.077 103.676 107.325 103.471 107.53C103.275 107.726 103.032 107.824 102.743 107.824ZM101.973 108.86H103.513V116H101.973V108.86Z" fill="#1E272E"/>
<rect y="133" width="375" height="44" fill="white"/>
<rect y="176" width="375" height="1" fill="#F1F2F6"/>
<path d="M23.178 151.474H20.378V149.976H27.546V151.474H24.746V160H23.178V151.474ZM30.9529 160.224C30.2529 160.224 29.6229 160.061 29.0629 159.734C28.5123 159.407 28.0783 158.959 27.7609 158.39C27.4529 157.811 27.2989 157.163 27.2989 156.444C27.2989 155.763 27.4483 155.133 27.7469 154.554C28.0549 153.966 28.4796 153.499 29.0209 153.154C29.5623 152.809 30.1783 152.636 30.8689 152.636C31.5876 152.636 32.2083 152.795 32.7309 153.112C33.2629 153.429 33.6643 153.863 33.9349 154.414C34.2149 154.965 34.3549 155.585 34.3549 156.276C34.3549 156.407 34.3409 156.57 34.3129 156.766H28.8389C28.8949 157.429 29.1283 157.942 29.5389 158.306C29.9589 158.661 30.4443 158.838 30.9949 158.838C31.4336 158.838 31.8116 158.74 32.1289 158.544C32.4556 158.339 32.7169 158.063 32.9129 157.718L34.2149 158.334C33.8789 158.922 33.4403 159.384 32.8989 159.72C32.3576 160.056 31.7089 160.224 30.9529 160.224ZM32.7869 155.59C32.7683 155.338 32.6889 155.091 32.5489 154.848C32.4089 154.596 32.1943 154.386 31.9049 154.218C31.6249 154.05 31.2796 153.966 30.8689 153.966C30.3743 153.966 29.9543 154.115 29.6089 154.414C29.2729 154.703 29.0396 155.095 28.9089 155.59H32.7869ZM35.7573 152.86H37.2273V153.91H37.2973C37.456 153.546 37.7313 153.247 38.1233 153.014C38.5153 152.771 38.9307 152.65 39.3693 152.65C39.7147 152.65 40.004 152.697 40.2373 152.79V154.386C39.8267 154.237 39.458 154.162 39.1313 154.162C38.7767 154.162 38.4593 154.255 38.1793 154.442C37.9087 154.629 37.694 154.881 37.5353 155.198C37.3767 155.506 37.2973 155.847 37.2973 156.22V160H35.7573V152.86ZM45.2938 160.224C44.7898 160.224 44.3372 160.112 43.9358 159.888C43.5345 159.664 43.2312 159.393 43.0258 159.076H42.9558V160H41.4858V149.976H43.0258V152.79L42.9558 153.798H43.0258C43.2312 153.471 43.5345 153.196 43.9358 152.972C44.3372 152.748 44.7898 152.636 45.2938 152.636C45.9378 152.636 46.5212 152.799 47.0438 153.126C47.5665 153.453 47.9772 153.905 48.2758 154.484C48.5838 155.053 48.7378 155.702 48.7378 156.43C48.7378 157.158 48.5838 157.811 48.2758 158.39C47.9772 158.959 47.5665 159.407 47.0438 159.734C46.5212 160.061 45.9378 160.224 45.2938 160.224ZM45.0698 158.81C45.4432 158.81 45.7932 158.712 46.1198 158.516C46.4465 158.32 46.7078 158.04 46.9038 157.676C47.0998 157.312 47.1978 156.897 47.1978 156.43C47.1978 155.963 47.0998 155.553 46.9038 155.198C46.7078 154.834 46.4465 154.554 46.1198 154.358C45.7932 154.162 45.4432 154.064 45.0698 154.064C44.6965 154.064 44.3465 154.162 44.0198 154.358C43.7025 154.554 43.4458 154.834 43.2498 155.198C43.0538 155.553 42.9558 155.963 42.9558 156.43C42.9558 156.897 43.0538 157.312 43.2498 157.676C43.4458 158.04 43.7025 158.32 44.0198 158.516C44.3465 158.712 44.6965 158.81 45.0698 158.81ZM52.3801 160.224C51.8668 160.224 51.4095 160.126 51.0081 159.93C50.6068 159.725 50.2941 159.44 50.0701 159.076C49.8461 158.703 49.7341 158.283 49.7341 157.816C49.7341 157.079 50.0095 156.495 50.5601 156.066C51.1201 155.637 51.8248 155.422 52.6741 155.422C53.0941 155.422 53.4721 155.464 53.8081 155.548C54.1441 155.623 54.4101 155.707 54.6061 155.8V155.436C54.6061 154.997 54.4428 154.643 54.1161 154.372C53.7895 154.092 53.3695 153.952 52.8561 153.952C52.4921 153.952 52.1468 154.031 51.8201 154.19C51.5028 154.349 51.2461 154.568 51.0501 154.848L49.9721 154.022C50.2895 153.583 50.7001 153.243 51.2041 153C51.7081 152.757 52.2681 152.636 52.8841 152.636C53.9201 152.636 54.7181 152.893 55.2781 153.406C55.8381 153.91 56.1181 154.624 56.1181 155.548V160H54.6061V159.146H54.5361C54.3308 159.454 54.0415 159.711 53.6681 159.916C53.2948 160.121 52.8655 160.224 52.3801 160.224ZM52.6461 158.95C53.0195 158.95 53.3555 158.861 53.6541 158.684C53.9528 158.507 54.1861 158.269 54.3541 157.97C54.5221 157.671 54.6061 157.349 54.6061 157.004C54.3915 156.883 54.1395 156.785 53.8501 156.71C53.5701 156.635 53.2761 156.598 52.9681 156.598C52.3895 156.598 51.9648 156.715 51.6941 156.948C51.4235 157.172 51.2881 157.466 51.2881 157.83C51.2881 158.157 51.4141 158.427 51.6661 158.642C51.9181 158.847 52.2448 158.95 52.6461 158.95ZM57.7964 152.86H59.2664V153.91H59.3364C59.4951 153.546 59.7704 153.247 60.1624 153.014C60.5544 152.771 60.9697 152.65 61.4084 152.65C61.7537 152.65 62.0431 152.697 62.2764 152.79V154.386C61.8657 154.237 61.4971 154.162 61.1704 154.162C60.8157 154.162 60.4984 154.255 60.2184 154.442C59.9477 154.629 59.7331 154.881 59.5744 155.198C59.4157 155.506 59.3364 155.847 59.3364 156.22V160H57.7964V152.86ZM66.0605 160.224C65.1925 160.224 64.5299 159.967 64.0725 159.454C63.6245 158.931 63.4005 158.208 63.4005 157.284V152.86H64.9405V157.074C64.9405 157.653 65.0759 158.087 65.3465 158.376C65.6265 158.665 65.9905 158.81 66.4385 158.81C66.8025 158.81 67.1245 158.717 67.4045 158.53C67.6845 158.334 67.8992 158.077 68.0485 157.76C68.1979 157.443 68.2725 157.102 68.2725 156.738V152.86H69.8125V160H68.3565V159.076H68.2725C68.0765 159.412 67.7732 159.687 67.3625 159.902C66.9519 160.117 66.5179 160.224 66.0605 160.224Z" fill="#1E272E"/>
<rect y="177" width="375" height="44" fill="white"/>
<rect y="220" width="375" height="1" fill="#F1F2F6"/>
<path d="M21.148 193.976H22.716V198.134H27.364V193.976H28.918V204H27.364V199.618H22.716V204H21.148V193.976ZM32.9934 204.224C32.4801 204.224 32.0228 204.126 31.6214 203.93C31.2201 203.725 30.9074 203.44 30.6834 203.076C30.4594 202.703 30.3474 202.283 30.3474 201.816C30.3474 201.079 30.6228 200.495 31.1734 200.066C31.7334 199.637 32.4381 199.422 33.2874 199.422C33.7074 199.422 34.0854 199.464 34.4214 199.548C34.7574 199.623 35.0234 199.707 35.2194 199.8V199.436C35.2194 198.997 35.0561 198.643 34.7294 198.372C34.4028 198.092 33.9828 197.952 33.4694 197.952C33.1054 197.952 32.7601 198.031 32.4334 198.19C32.1161 198.349 31.8594 198.568 31.6634 198.848L30.5854 198.022C30.9028 197.583 31.3134 197.243 31.8174 197C32.3214 196.757 32.8814 196.636 33.4974 196.636C34.5334 196.636 35.3314 196.893 35.8914 197.406C36.4514 197.91 36.7314 198.624 36.7314 199.548V204H35.2194V203.146H35.1494C34.9441 203.454 34.6548 203.711 34.2814 203.916C33.9081 204.121 33.4788 204.224 32.9934 204.224ZM33.2594 202.95C33.6328 202.95 33.9688 202.861 34.2674 202.684C34.5661 202.507 34.7994 202.269 34.9674 201.97C35.1354 201.671 35.2194 201.349 35.2194 201.004C35.0048 200.883 34.7528 200.785 34.4634 200.71C34.1834 200.635 33.8894 200.598 33.5814 200.598C33.0028 200.598 32.5781 200.715 32.3074 200.948C32.0368 201.172 31.9014 201.466 31.9014 201.83C31.9014 202.157 32.0274 202.427 32.2794 202.642C32.5314 202.847 32.8581 202.95 33.2594 202.95ZM38.4097 196.86H39.8797V197.91H39.9497C40.1083 197.546 40.3837 197.247 40.7757 197.014C41.1677 196.771 41.583 196.65 42.0217 196.65C42.367 196.65 42.6563 196.697 42.8897 196.79V198.386C42.479 198.237 42.1103 198.162 41.7837 198.162C41.429 198.162 41.1117 198.255 40.8317 198.442C40.561 198.629 40.3463 198.881 40.1877 199.198C40.029 199.506 39.9497 199.847 39.9497 200.22V204H38.4097V196.86ZM46.9344 207.248C46.057 207.248 45.329 207.047 44.7504 206.646C44.181 206.245 43.7984 205.769 43.6024 205.218L45.0444 204.616C45.1937 204.989 45.4317 205.288 45.7584 205.512C46.0944 205.745 46.4864 205.862 46.9344 205.862C47.5877 205.862 48.0964 205.666 48.4604 205.274C48.8337 204.891 49.0204 204.35 49.0204 203.65V202.992H48.9364C48.703 203.328 48.3904 203.594 47.9984 203.79C47.6157 203.977 47.1724 204.07 46.6684 204.07C46.071 204.07 45.5157 203.916 45.0024 203.608C44.489 203.3 44.0784 202.866 43.7704 202.306C43.4717 201.737 43.3224 201.088 43.3224 200.36C43.3224 199.632 43.4717 198.988 43.7704 198.428C44.0784 197.859 44.489 197.42 45.0024 197.112C45.5157 196.795 46.071 196.636 46.6684 196.636C47.163 196.636 47.6064 196.734 47.9984 196.93C48.3904 197.126 48.703 197.392 48.9364 197.728H49.0204V196.86H50.4904V203.608C50.4904 204.383 50.341 205.041 50.0424 205.582C49.7437 206.133 49.3237 206.548 48.7824 206.828C48.2504 207.108 47.6344 207.248 46.9344 207.248ZM46.9484 202.67C47.3217 202.67 47.667 202.581 47.9844 202.404C48.3017 202.217 48.5537 201.951 48.7404 201.606C48.927 201.251 49.0204 200.836 49.0204 200.36C49.0204 199.632 48.8197 199.067 48.4184 198.666C48.0264 198.255 47.5364 198.05 46.9484 198.05C46.5657 198.05 46.2157 198.143 45.8984 198.33C45.581 198.507 45.329 198.769 45.1424 199.114C44.9557 199.459 44.8624 199.875 44.8624 200.36C44.8624 200.845 44.9557 201.261 45.1424 201.606C45.329 201.951 45.581 202.217 45.8984 202.404C46.2157 202.581 46.5657 202.67 46.9484 202.67ZM54.4719 204.224C53.9586 204.224 53.5013 204.126 53.0999 203.93C52.6986 203.725 52.3859 203.44 52.1619 203.076C51.9379 202.703 51.8259 202.283 51.8259 201.816C51.8259 201.079 52.1013 200.495 52.6519 200.066C53.2119 199.637 53.9166 199.422 54.7659 199.422C55.1859 199.422 55.5639 199.464 55.8999 199.548C56.2359 199.623 56.5019 199.707 56.6979 199.8V199.436C56.6979 198.997 56.5346 198.643 56.2079 198.372C55.8813 198.092 55.4613 197.952 54.9479 197.952C54.5839 197.952 54.2386 198.031 53.9119 198.19C53.5946 198.349 53.3379 198.568 53.1419 198.848L52.0639 198.022C52.3813 197.583 52.7919 197.243 53.2959 197C53.7999 196.757 54.3599 196.636 54.9759 196.636C56.0119 196.636 56.8099 196.893 57.3699 197.406C57.9299 197.91 58.2099 198.624 58.2099 199.548V204H56.6979V203.146H56.6279C56.4226 203.454 56.1333 203.711 55.7599 203.916C55.3866 204.121 54.9573 204.224 54.4719 204.224ZM54.7379 202.95C55.1113 202.95 55.4473 202.861 55.7459 202.684C56.0446 202.507 56.2779 202.269 56.4459 201.97C56.6139 201.671 56.6979 201.349 56.6979 201.004C56.4833 200.883 56.2313 200.785 55.9419 200.71C55.6619 200.635 55.3679 200.598 55.0599 200.598C54.4813 200.598 54.0566 200.715 53.7859 200.948C53.5153 201.172 53.3799 201.466 53.3799 201.83C53.3799 202.157 53.5059 202.427 53.7579 202.642C54.0099 202.847 54.3366 202.95 54.7379 202.95ZM64.8909 195.474H62.0909V193.976H69.2589V195.474H66.4589V204H64.8909V195.474ZM72.6658 204.224C71.9658 204.224 71.3358 204.061 70.7758 203.734C70.2251 203.407 69.7911 202.959 69.4738 202.39C69.1658 201.811 69.0118 201.163 69.0118 200.444C69.0118 199.763 69.1611 199.133 69.4598 198.554C69.7678 197.966 70.1925 197.499 70.7338 197.154C71.2751 196.809 71.8911 196.636 72.5818 196.636C73.3005 196.636 73.9211 196.795 74.4438 197.112C74.9758 197.429 75.3771 197.863 75.6478 198.414C75.9278 198.965 76.0678 199.585 76.0678 200.276C76.0678 200.407 76.0538 200.57 76.0258 200.766H70.5518C70.6078 201.429 70.8411 201.942 71.2518 202.306C71.6718 202.661 72.1571 202.838 72.7078 202.838C73.1465 202.838 73.5245 202.74 73.8418 202.544C74.1685 202.339 74.4298 202.063 74.6258 201.718L75.9278 202.334C75.5918 202.922 75.1531 203.384 74.6118 203.72C74.0705 204.056 73.4218 204.224 72.6658 204.224ZM74.4998 199.59C74.4811 199.338 74.4018 199.091 74.2618 198.848C74.1218 198.596 73.9071 198.386 73.6178 198.218C73.3378 198.05 72.9925 197.966 72.5818 197.966C72.0871 197.966 71.6671 198.115 71.3218 198.414C70.9858 198.703 70.7525 199.095 70.6218 199.59H74.4998ZM77.4702 196.86H78.9402V197.91H79.0102C79.1689 197.546 79.4442 197.247 79.8362 197.014C80.2282 196.771 80.6436 196.65 81.0822 196.65C81.4276 196.65 81.7169 196.697 81.9502 196.79V198.386C81.5396 198.237 81.1709 198.162 80.8442 198.162C80.4896 198.162 80.1722 198.255 79.8922 198.442C79.6216 198.629 79.4069 198.881 79.2482 199.198C79.0896 199.506 79.0102 199.847 79.0102 200.22V204H77.4702V196.86ZM85.9685 204.224C85.2685 204.224 84.6385 204.061 84.0785 203.734C83.5279 203.407 83.0939 202.959 82.7765 202.39C82.4685 201.811 82.3145 201.163 82.3145 200.444C82.3145 199.763 82.4639 199.133 82.7625 198.554C83.0705 197.966 83.4952 197.499 84.0365 197.154C84.5779 196.809 85.1939 196.636 85.8845 196.636C86.6032 196.636 87.2239 196.795 87.7465 197.112C88.2785 197.429 88.6799 197.863 88.9505 198.414C89.2305 198.965 89.3705 199.585 89.3705 200.276C89.3705 200.407 89.3565 200.57 89.3285 200.766H83.8545C83.9105 201.429 84.1439 201.942 84.5545 202.306C84.9745 202.661 85.4599 202.838 86.0105 202.838C86.4492 202.838 86.8272 202.74 87.1445 202.544C87.4712 202.339 87.7325 202.063 87.9285 201.718L89.2305 202.334C88.8945 202.922 88.4559 203.384 87.9145 203.72C87.3732 204.056 86.7245 204.224 85.9685 204.224ZM87.8025 199.59C87.7839 199.338 87.7045 199.091 87.5645 198.848C87.4245 198.596 87.2099 198.386 86.9205 198.218C86.6405 198.05 86.2952 197.966 85.8845 197.966C85.3899 197.966 84.9699 198.115 84.6245 198.414C84.2885 198.703 84.0552 199.095 83.9245 199.59H87.8025ZM90.773 196.86H92.243V197.798H92.313C92.5183 197.462 92.8216 197.187 93.223 196.972C93.6336 196.748 94.0676 196.636 94.525 196.636C95.393 196.636 96.051 196.893 96.499 197.406C96.9563 197.91 97.185 198.601 97.185 199.478V204H95.645V199.688C95.645 199.128 95.505 198.717 95.225 198.456C94.9543 198.195 94.5763 198.064 94.091 198.064C93.7456 198.064 93.4376 198.162 93.167 198.358C92.8963 198.545 92.6863 198.797 92.537 199.114C92.3876 199.431 92.313 199.772 92.313 200.136V204H90.773V196.86ZM101.973 204.224C101.329 204.224 100.746 204.061 100.223 203.734C99.7007 203.407 99.2854 202.959 98.9774 202.39C98.6787 201.811 98.5294 201.158 98.5294 200.43C98.5294 199.702 98.6787 199.053 98.9774 198.484C99.2854 197.905 99.7007 197.453 100.223 197.126C100.746 196.799 101.329 196.636 101.973 196.636C102.477 196.636 102.93 196.748 103.331 196.972C103.733 197.196 104.036 197.471 104.241 197.798H104.311L104.241 196.79V193.976H105.781V204H104.311V203.076H104.241C104.036 203.393 103.733 203.664 103.331 203.888C102.93 204.112 102.477 204.224 101.973 204.224ZM102.197 202.81C102.571 202.81 102.916 202.712 103.233 202.516C103.56 202.32 103.821 202.04 104.017 201.676C104.213 201.312 104.311 200.897 104.311 200.43C104.311 199.963 104.213 199.553 104.017 199.198C103.821 198.834 103.56 198.554 103.233 198.358C102.916 198.162 102.571 198.064 102.197 198.064C101.824 198.064 101.474 198.162 101.147 198.358C100.821 198.554 100.559 198.834 100.363 199.198C100.167 199.553 100.069 199.963 100.069 200.43C100.069 200.897 100.167 201.312 100.363 201.676C100.559 202.04 100.821 202.32 101.147 202.516C101.474 202.712 101.824 202.81 102.197 202.81ZM109.747 204.224C109.234 204.224 108.777 204.126 108.375 203.93C107.974 203.725 107.661 203.44 107.437 203.076C107.213 202.703 107.101 202.283 107.101 201.816C107.101 201.079 107.377 200.495 107.927 200.066C108.487 199.637 109.192 199.422 110.041 199.422C110.461 199.422 110.839 199.464 111.175 199.548C111.511 199.623 111.777 199.707 111.973 199.8V199.436C111.973 198.997 111.81 198.643 111.483 198.372C111.157 198.092 110.737 197.952 110.223 197.952C109.859 197.952 109.514 198.031 109.187 198.19C108.87 198.349 108.613 198.568 108.417 198.848L107.339 198.022C107.657 197.583 108.067 197.243 108.571 197C109.075 196.757 109.635 196.636 110.251 196.636C111.287 196.636 112.085 196.893 112.645 197.406C113.205 197.91 113.485 198.624 113.485 199.548V204H111.973V203.146H111.903C111.698 203.454 111.409 203.711 111.035 203.916C110.662 204.121 110.233 204.224 109.747 204.224ZM110.013 202.95C110.387 202.95 110.723 202.861 111.021 202.684C111.32 202.507 111.553 202.269 111.721 201.97C111.889 201.671 111.973 201.349 111.973 201.004C111.759 200.883 111.507 200.785 111.217 200.71C110.937 200.635 110.643 200.598 110.335 200.598C109.757 200.598 109.332 200.715 109.061 200.948C108.791 201.172 108.655 201.466 108.655 201.83C108.655 202.157 108.781 202.427 109.033 202.642C109.285 202.847 109.612 202.95 110.013 202.95ZM115.164 193.976H116.704V196.706L116.634 197.798H116.704C116.909 197.462 117.212 197.187 117.614 196.972C118.024 196.748 118.463 196.636 118.93 196.636C119.798 196.636 120.46 196.893 120.918 197.406C121.375 197.91 121.604 198.601 121.604 199.478V204H120.064V199.688C120.064 199.147 119.919 198.741 119.63 198.47C119.35 198.199 118.981 198.064 118.524 198.064C118.178 198.064 117.866 198.162 117.586 198.358C117.315 198.554 117.1 198.815 116.942 199.142C116.783 199.459 116.704 199.8 116.704 200.164V204H115.164V193.976Z" fill="#1E272E"/>
<path d="M342.5 202.475L339.608 199.583C339.452 199.428 339.241 199.34 339.021 199.34C338.8 199.34 338.589 199.428 338.433 199.583C338.277 199.739 338.19 199.95 338.19 200.171C338.19 200.28 338.211 200.388 338.253 200.489C338.295 200.59 338.356 200.681 338.433 200.758L341.917 204.242C342.242 204.567 342.767 204.567 343.092 204.242L351.908 195.425C352.064 195.269 352.152 195.058 352.152 194.837C352.152 194.617 352.064 194.406 351.908 194.25C351.752 194.094 351.541 194.007 351.321 194.007C351.1 194.007 350.889 194.094 350.733 194.25L342.5 202.475Z" fill="#EC2028"/>
<rect y="221" width="375" height="44" fill="white"/>
<rect y="264" width="375" height="1" fill="#F1F2F6"/>
<path d="M21.148 237.976H22.716V242.134H27.364V237.976H28.918V248H27.364V243.618H22.716V248H21.148V237.976ZM32.9934 248.224C32.4801 248.224 32.0228 248.126 31.6214 247.93C31.2201 247.725 30.9074 247.44 30.6834 247.076C30.4594 246.703 30.3474 246.283 30.3474 245.816C30.3474 245.079 30.6228 244.495 31.1734 244.066C31.7334 243.637 32.4381 243.422 33.2874 243.422C33.7074 243.422 34.0854 243.464 34.4214 243.548C34.7574 243.623 35.0234 243.707 35.2194 243.8V243.436C35.2194 242.997 35.0561 242.643 34.7294 242.372C34.4028 242.092 33.9828 241.952 33.4694 241.952C33.1054 241.952 32.7601 242.031 32.4334 242.19C32.1161 242.349 31.8594 242.568 31.6634 242.848L30.5854 242.022C30.9028 241.583 31.3134 241.243 31.8174 241C32.3214 240.757 32.8814 240.636 33.4974 240.636C34.5334 240.636 35.3314 240.893 35.8914 241.406C36.4514 241.91 36.7314 242.624 36.7314 243.548V248H35.2194V247.146H35.1494C34.9441 247.454 34.6548 247.711 34.2814 247.916C33.9081 248.121 33.4788 248.224 32.9934 248.224ZM33.2594 246.95C33.6328 246.95 33.9688 246.861 34.2674 246.684C34.5661 246.507 34.7994 246.269 34.9674 245.97C35.1354 245.671 35.2194 245.349 35.2194 245.004C35.0048 244.883 34.7528 244.785 34.4634 244.71C34.1834 244.635 33.8894 244.598 33.5814 244.598C33.0028 244.598 32.5781 244.715 32.3074 244.948C32.0368 245.172 31.9014 245.466 31.9014 245.83C31.9014 246.157 32.0274 246.427 32.2794 246.642C32.5314 246.847 32.8581 246.95 33.2594 246.95ZM38.4097 240.86H39.8797V241.91H39.9497C40.1083 241.546 40.3837 241.247 40.7757 241.014C41.1677 240.771 41.583 240.65 42.0217 240.65C42.367 240.65 42.6563 240.697 42.8897 240.79V242.386C42.479 242.237 42.1103 242.162 41.7837 242.162C41.429 242.162 41.1117 242.255 40.8317 242.442C40.561 242.629 40.3463 242.881 40.1877 243.198C40.029 243.506 39.9497 243.847 39.9497 244.22V248H38.4097V240.86ZM46.9344 251.248C46.057 251.248 45.329 251.047 44.7504 250.646C44.181 250.245 43.7984 249.769 43.6024 249.218L45.0444 248.616C45.1937 248.989 45.4317 249.288 45.7584 249.512C46.0944 249.745 46.4864 249.862 46.9344 249.862C47.5877 249.862 48.0964 249.666 48.4604 249.274C48.8337 248.891 49.0204 248.35 49.0204 247.65V246.992H48.9364C48.703 247.328 48.3904 247.594 47.9984 247.79C47.6157 247.977 47.1724 248.07 46.6684 248.07C46.071 248.07 45.5157 247.916 45.0024 247.608C44.489 247.3 44.0784 246.866 43.7704 246.306C43.4717 245.737 43.3224 245.088 43.3224 244.36C43.3224 243.632 43.4717 242.988 43.7704 242.428C44.0784 241.859 44.489 241.42 45.0024 241.112C45.5157 240.795 46.071 240.636 46.6684 240.636C47.163 240.636 47.6064 240.734 47.9984 240.93C48.3904 241.126 48.703 241.392 48.9364 241.728H49.0204V240.86H50.4904V247.608C50.4904 248.383 50.341 249.041 50.0424 249.582C49.7437 250.133 49.3237 250.548 48.7824 250.828C48.2504 251.108 47.6344 251.248 46.9344 251.248ZM46.9484 246.67C47.3217 246.67 47.667 246.581 47.9844 246.404C48.3017 246.217 48.5537 245.951 48.7404 245.606C48.927 245.251 49.0204 244.836 49.0204 244.36C49.0204 243.632 48.8197 243.067 48.4184 242.666C48.0264 242.255 47.5364 242.05 46.9484 242.05C46.5657 242.05 46.2157 242.143 45.8984 242.33C45.581 242.507 45.329 242.769 45.1424 243.114C44.9557 243.459 44.8624 243.875 44.8624 244.36C44.8624 244.845 44.9557 245.261 45.1424 245.606C45.329 245.951 45.581 246.217 45.8984 246.404C46.2157 246.581 46.5657 246.67 46.9484 246.67ZM54.4719 248.224C53.9586 248.224 53.5013 248.126 53.0999 247.93C52.6986 247.725 52.3859 247.44 52.1619 247.076C51.9379 246.703 51.8259 246.283 51.8259 245.816C51.8259 245.079 52.1013 244.495 52.6519 244.066C53.2119 243.637 53.9166 243.422 54.7659 243.422C55.1859 243.422 55.5639 243.464 55.8999 243.548C56.2359 243.623 56.5019 243.707 56.6979 243.8V243.436C56.6979 242.997 56.5346 242.643 56.2079 242.372C55.8813 242.092 55.4613 241.952 54.9479 241.952C54.5839 241.952 54.2386 242.031 53.9119 242.19C53.5946 242.349 53.3379 242.568 53.1419 242.848L52.0639 242.022C52.3813 241.583 52.7919 241.243 53.2959 241C53.7999 240.757 54.3599 240.636 54.9759 240.636C56.0119 240.636 56.8099 240.893 57.3699 241.406C57.9299 241.91 58.2099 242.624 58.2099 243.548V248H56.6979V247.146H56.6279C56.4226 247.454 56.1333 247.711 55.7599 247.916C55.3866 248.121 54.9573 248.224 54.4719 248.224ZM54.7379 246.95C55.1113 246.95 55.4473 246.861 55.7459 246.684C56.0446 246.507 56.2779 246.269 56.4459 245.97C56.6139 245.671 56.6979 245.349 56.6979 245.004C56.4833 244.883 56.2313 244.785 55.9419 244.71C55.6619 244.635 55.3679 244.598 55.0599 244.598C54.4813 244.598 54.0566 244.715 53.7859 244.948C53.5153 245.172 53.3799 245.466 53.3799 245.83C53.3799 246.157 53.5059 246.427 53.7579 246.642C54.0099 246.847 54.3366 246.95 54.7379 246.95ZM64.8909 239.474H62.0909V237.976H69.2589V239.474H66.4589V248H64.8909V239.474ZM72.6658 248.224C71.9658 248.224 71.3358 248.061 70.7758 247.734C70.2251 247.407 69.7911 246.959 69.4738 246.39C69.1658 245.811 69.0118 245.163 69.0118 244.444C69.0118 243.763 69.1611 243.133 69.4598 242.554C69.7678 241.966 70.1925 241.499 70.7338 241.154C71.2751 240.809 71.8911 240.636 72.5818 240.636C73.3005 240.636 73.9211 240.795 74.4438 241.112C74.9758 241.429 75.3771 241.863 75.6478 242.414C75.9278 242.965 76.0678 243.585 76.0678 244.276C76.0678 244.407 76.0538 244.57 76.0258 244.766H70.5518C70.6078 245.429 70.8411 245.942 71.2518 246.306C71.6718 246.661 72.1571 246.838 72.7078 246.838C73.1465 246.838 73.5245 246.74 73.8418 246.544C74.1685 246.339 74.4298 246.063 74.6258 245.718L75.9278 246.334C75.5918 246.922 75.1531 247.384 74.6118 247.72C74.0705 248.056 73.4218 248.224 72.6658 248.224ZM74.4998 243.59C74.4811 243.338 74.4018 243.091 74.2618 242.848C74.1218 242.596 73.9071 242.386 73.6178 242.218C73.3378 242.05 72.9925 241.966 72.5818 241.966C72.0871 241.966 71.6671 242.115 71.3218 242.414C70.9858 242.703 70.7525 243.095 70.6218 243.59H74.4998ZM77.4702 240.86H78.9402V241.91H79.0102C79.1969 241.527 79.4862 241.224 79.8782 241C80.2796 240.776 80.7136 240.664 81.1802 240.664C81.4416 240.664 81.6329 240.683 81.7542 240.72V242.274C81.5209 242.209 81.2736 242.176 81.0122 242.176C80.4056 242.176 79.9202 242.367 79.5562 242.75C79.1922 243.133 79.0102 243.637 79.0102 244.262V248H77.4702V240.86ZM86.1362 248.112C85.8189 248.112 85.5202 248.061 85.2402 247.958C84.9602 247.855 84.7316 247.72 84.5542 247.552C84.1529 247.151 83.9522 246.605 83.9522 245.914V242.218H82.7062V240.86H83.9522V238.844H85.4922V240.86H87.2282V242.218H85.4922V245.578C85.4922 245.961 85.5669 246.231 85.7162 246.39C85.8562 246.577 86.0989 246.67 86.4442 246.67C86.6029 246.67 86.7429 246.651 86.8642 246.614C86.9856 246.567 87.1162 246.497 87.2562 246.404V247.902C86.9482 248.042 86.5749 248.112 86.1362 248.112ZM89.6452 239.824C89.3559 239.824 89.1085 239.726 88.9032 239.53C88.7072 239.325 88.6092 239.077 88.6092 238.788C88.6092 238.499 88.7072 238.256 88.9032 238.06C89.1085 237.855 89.3559 237.752 89.6452 237.752C89.9345 237.752 90.1772 237.855 90.3732 238.06C90.5785 238.256 90.6812 238.499 90.6812 238.788C90.6812 239.077 90.5785 239.325 90.3732 239.53C90.1772 239.726 89.9345 239.824 89.6452 239.824ZM88.8752 240.86H90.4152V248H88.8752V240.86ZM92.3315 240.86H93.8015V241.798H93.8715C94.0769 241.462 94.3802 241.187 94.7815 240.972C95.1922 240.748 95.6262 240.636 96.0835 240.636C96.9515 240.636 97.6095 240.893 98.0575 241.406C98.5149 241.91 98.7435 242.601 98.7435 243.478V248H97.2035V243.688C97.2035 243.128 97.0635 242.717 96.7835 242.456C96.5129 242.195 96.1349 242.064 95.6495 242.064C95.3042 242.064 94.9962 242.162 94.7255 242.358C94.4549 242.545 94.2449 242.797 94.0955 243.114C93.9462 243.431 93.8715 243.772 93.8715 244.136V248H92.3315V240.86ZM103.632 251.248C102.754 251.248 102.026 251.047 101.448 250.646C100.878 250.245 100.496 249.769 100.3 249.218L101.742 248.616C101.891 248.989 102.129 249.288 102.456 249.512C102.792 249.745 103.184 249.862 103.632 249.862C104.285 249.862 104.794 249.666 105.158 249.274C105.531 248.891 105.718 248.35 105.718 247.65V246.992H105.634C105.4 247.328 105.088 247.594 104.696 247.79C104.313 247.977 103.87 248.07 103.366 248.07C102.768 248.07 102.213 247.916 101.7 247.608C101.186 247.3 100.776 246.866 100.468 246.306C100.169 245.737 100.02 245.088 100.02 244.36C100.02 243.632 100.169 242.988 100.468 242.428C100.776 241.859 101.186 241.42 101.7 241.112C102.213 240.795 102.768 240.636 103.366 240.636C103.86 240.636 104.304 240.734 104.696 240.93C105.088 241.126 105.4 241.392 105.634 241.728H105.718V240.86H107.188V247.608C107.188 248.383 107.038 249.041 106.74 249.582C106.441 250.133 106.021 250.548 105.48 250.828C104.948 251.108 104.332 251.248 103.632 251.248ZM103.646 246.67C104.019 246.67 104.364 246.581 104.682 246.404C104.999 246.217 105.251 245.951 105.438 245.606C105.624 245.251 105.718 244.836 105.718 244.36C105.718 243.632 105.517 243.067 105.116 242.666C104.724 242.255 104.234 242.05 103.646 242.05C103.263 242.05 102.913 242.143 102.596 242.33C102.278 242.507 102.026 242.769 101.84 243.114C101.653 243.459 101.56 243.875 101.56 244.36C101.56 244.845 101.653 245.261 101.84 245.606C102.026 245.951 102.278 246.217 102.596 246.404C102.913 246.581 103.263 246.67 103.646 246.67ZM112.149 251.248C111.272 251.248 110.544 251.047 109.965 250.646C109.396 250.245 109.013 249.769 108.817 249.218L110.259 248.616C110.409 248.989 110.647 249.288 110.973 249.512C111.309 249.745 111.701 249.862 112.149 249.862C112.803 249.862 113.311 249.666 113.675 249.274C114.049 248.891 114.235 248.35 114.235 247.65V246.992H114.151C113.918 247.328 113.605 247.594 113.213 247.79C112.831 247.977 112.387 248.07 111.883 248.07C111.286 248.07 110.731 247.916 110.217 247.608C109.704 247.3 109.293 246.866 108.985 246.306C108.687 245.737 108.537 245.088 108.537 244.36C108.537 243.632 108.687 242.988 108.985 242.428C109.293 241.859 109.704 241.42 110.217 241.112C110.731 240.795 111.286 240.636 111.883 240.636C112.378 240.636 112.821 240.734 113.213 240.93C113.605 241.126 113.918 241.392 114.151 241.728H114.235V240.86H115.705V247.608C115.705 248.383 115.556 249.041 115.257 249.582C114.959 250.133 114.539 250.548 113.997 250.828C113.465 251.108 112.849 251.248 112.149 251.248ZM112.163 246.67C112.537 246.67 112.882 246.581 113.199 246.404C113.517 246.217 113.769 245.951 113.955 245.606C114.142 245.251 114.235 244.836 114.235 244.36C114.235 243.632 114.035 243.067 113.633 242.666C113.241 242.255 112.751 242.05 112.163 242.05C111.781 242.05 111.431 242.143 111.113 242.33C110.796 242.507 110.544 242.769 110.357 243.114C110.171 243.459 110.077 243.875 110.077 244.36C110.077 244.845 110.171 245.261 110.357 245.606C110.544 245.951 110.796 246.217 111.113 246.404C111.431 246.581 111.781 246.67 112.163 246.67ZM118.397 239.824C118.108 239.824 117.86 239.726 117.655 239.53C117.459 239.325 117.361 239.077 117.361 238.788C117.361 238.499 117.459 238.256 117.655 238.06C117.86 237.855 118.108 237.752 118.397 237.752C118.686 237.752 118.929 237.855 119.125 238.06C119.33 238.256 119.433 238.499 119.433 238.788C119.433 239.077 119.33 239.325 119.125 239.53C118.929 239.726 118.686 239.824 118.397 239.824ZM117.627 240.86H119.167V248H117.627V240.86Z" fill="#1E272E"/>
</g>
<defs>
<filter id="filter0_d_404_9803" x="-16" y="263" width="407" height="128" filterUnits="userSpaceOnUse" color-interpolation-filters="sRGB">
<feFlood flood-opacity="0" result="BackgroundImageFix"/>
<feColorMatrix in="SourceAlpha" type="matrix" values="0 0 0 0 0 0 0 0 0 0 0 0 0 0 0 0 0 0 127 0" result="hardAlpha"/>
<feOffset dy="2"/>
<feGaussianBlur stdDeviation="8"/>
<feColorMatrix type="matrix" values="0 0 0 0 0.0642361 0 0 0 0 0.145291 0 0 0 0 0.208333 0 0 0 0.08 0"/>
<feBlend mode="normal" in2="BackgroundImageFix" result="effect1_dropShadow_404_9803"/>
<feBlend mode="normal" in="SourceGraphic" in2="effect1_dropShadow_404_9803" result="shape"/>
</filter>
<clipPath id="clip0_404_9803">
<rect width="375" height="373" fill="white"/>
</clipPath>
</defs>
</svg>
